<?xml version="1.0" encoding="UTF-8" standalone="no"?>
<svg
	 xmlns:dc="http://purl.org/dc/elements/1.1/"
	 xmlns:cc="http://creativecommons.org/ns#"
	 xmlns:rdf="http://www.w3.org/1999/02/22-rdf-syntax-ns#"
	 xmlns:svg="http://www.w3.org/2000/svg"
	 xmlns="http://www.w3.org/2000/svg"
	 width="2048"
	 height="1024"
	 viewBox="0 0 360 180"
	 version="1.1">
	<metadata>
		<rdf:RDF>
			<cc:work>
				<rdf:Description
					 about="https://github.com/jkunimune15/Map-Projections/"
					 dc:title="Icosohedral orthodromic mesh - Equirectangular projection"
					 dc:description="A mesh of great circles that intersect with 10-fold symmetry at 12 principal nodes and 6-fold symmetry at 20 minor nodes. Aligns with the edges of an icosohedron and its dual dodecahedron."
					 dc:creator="Justin Kunimune"
					 dc:source="http://www.naturalearthdata.com/"
					 dc:date="2018-01-15"
					 dc:format="image/svg+xml"
					 dc:language="en" >
				</rdf:Description>
			</cc:work>
			<cc:License>
				<cc:permits rdf:resource="http://web.resource.org/cc/Reproduction" />
				<cc:permits rdf:resource="http://web.resource.org/cc/Distribution" />
				<cc:permits rdf:resource="http://web.resource.org/cc/DerivativeWorks" />
				<cc:permits rdf:resource="http://web.resource.org/cc/Sharing" />
				<cc:requires rdf:resource="http://web.resource.org/cc/Attribution" />
				<cc:requires rdf:resource="http://web.resource.org/cc/ShareAlike" />
			</cc:License>
		</rdf:RDF>
	</metadata>
	<title>Icosohedral orthodromic mesh - Equirectangular projection</title>
	<desc>
		A mesh of great circles that intersect with 10-fold symmetry at 12 principal nodes and 6-fold symmetry at 20 minor nodes. Aligns with the edges of an icosohedron and its dual dodecahedron.
	</desc>
	<style>
		path {
			stroke:#000000;
			fill:none;
		}
	</style>
	<g transform="matrix(1,0,0,-1,180,90)">
		<path d="M-180,-90 L-180,-89 L-180,-88 L-180,-87 L-180,-86 L-180,-85 L-180,-84 L-180,-83 L-180,-82 L-180,-81 L-180,-80 L-180,-79 L-180,-78 L-180,-77 L-180,-76 L-180,-75 L-180,-74 L-180,-73 L-180,-72 L-180,-71 L-180,-70 L-180,-69 L-180,-68 L-180,-67 L-180,-66 L-180,-65 L-180,-64 L-180,-63 L-180,-62 L-180,-61 L-180,-60 L-180,-59 L-180,-58 L-180,-57 L-180,-56 L-180,-55 L-180,-54 L-180,-53 L-180,-52 L-180,-51 L-180,-50 L-180,-49 L-180,-48 L-180,-47 L-180,-46 L-180,-45 L-180,-44 L-180,-43 L-180,-42 L-180,-41 L-180,-40 L-180,-39 L-180,-38 L-180,-37 L-180,-36 L-180,-35 L-180,-34 L-180,-33 L-180,-32 L-180,-31 L-180,-30 L-180,-29 L-180,-28 L-180,-27 L-180,-26 L-180,-25 L-180,-24 L-180,-23 L-180,-22 L-180,-21 L-180,-20 L-180,-19 L-180,-18 L-180,-17 L-180,-16 L-180,-15 L-180,-14 L-180,-13 L-180,-12 L-180,-11 L-180,-10 L-180,-9 L-180,-8 L-180,-7 L-180,-6 L-180,-5 L-180,-4 L-180,-3 L-180,-2 L-180,-1 L-180,0 L-180,1 L-180,2 L-180,3 L-180,4 L-180,5 L-180,6 L-180,7 L-180,8 L-180,9 L-180,10 L-180,11 L-180,12 L-180,13 L-180,14 L-180,15 L-180,16 L-180,17 L-180,18 L-180,19 L-180,20 L-180,21 L-180,22 L-180,23 L-180,24 L-180,25 L-180,26 L-180,27 L-180,28 L-180,29 L-180,30 L-180,31 L-180,32 L-180,33 L-180,34 L-180,35 L-180,36 L-180,37 L-180,38 L-180,39 L-180,40 L-180,41 L-180,42 L-180,43 L-180,44 L-180,45 L-180,46 L-180,47 L-180,48 L-180,49 L-180,50 L-180,51 L-180,52 L-180,53 L-180,54 L-180,55 L-180,56 L-180,57 L-180,58 L-180,59 L-180,60 L-180,61 L-180,62 L-180,63 L-180,64 L-180,65 L-180,66 L-180,67 L-180,68 L-180,69 L-180,70 L-180,71 L-180,72 L-180,73 L-180,74 L-180,75 L-180,76 L-180,77 L-180,78 L-180,79 L-180,80 L-180,81 L-180,82 L-180,83 L-180,84 L-180,85 L-180,86 L-180,87 L-180,88 L-180,89 L-180,90 " />
		<path d="M-144,-90 L-144,-89 L-144,-88 L-144,-87 L-144,-86 L-144,-85 L-144,-84 L-144,-83 L-144,-82 L-144,-81 L-144,-80 L-144,-79 L-144,-78 L-144,-77 L-144,-76 L-144,-75 L-144,-74 L-144,-73 L-144,-72 L-144,-71 L-144,-70 L-144,-69 L-144,-68 L-144,-67 L-144,-66 L-144,-65 L-144,-64 L-144,-63 L-144,-62 L-144,-61 L-144,-60 L-144,-59 L-144,-58 L-144,-57 L-144,-56 L-144,-55 L-144,-54 L-144,-53 L-144,-52 L-144,-51 L-144,-50 L-144,-49 L-144,-48 L-144,-47 L-144,-46 L-144,-45 L-144,-44 L-144,-43 L-144,-42 L-144,-41 L-144,-40 L-144,-39 L-144,-38 L-144,-37 L-144,-36 L-144,-35 L-144,-34 L-144,-33 L-144,-32 L-144,-31 L-144,-30 L-144,-29 L-144,-28 L-144,-27 L-144,-26 L-144,-25 L-144,-24 L-144,-23 L-144,-22 L-144,-21 L-144,-20 L-144,-19 L-144,-18 L-144,-17 L-144,-16 L-144,-15 L-144,-14 L-144,-13 L-144,-12 L-144,-11 L-144,-10 L-144,-9 L-144,-8 L-144,-7 L-144,-6 L-144,-5 L-144,-4 L-144,-3 L-144,-2 L-144,-1 L-144,0 L-144,1 L-144,2 L-144,3 L-144,4 L-144,5 L-144,6 L-144,7 L-144,8 L-144,9 L-144,10 L-144,11 L-144,12 L-144,13 L-144,14 L-144,15 L-144,16 L-144,17 L-144,18 L-144,19 L-144,20 L-144,21 L-144,22 L-144,23 L-144,24 L-144,25 L-144,26 L-144,27 L-144,28 L-144,29 L-144,30 L-144,31 L-144,32 L-144,33 L-144,34 L-144,35 L-144,36 L-144,37 L-144,38 L-144,39 L-144,40 L-144,41 L-144,42 L-144,43 L-144,44 L-144,45 L-144,46 L-144,47 L-144,48 L-144,49 L-144,50 L-144,51 L-144,52 L-144,53 L-144,54 L-144,55 L-144,56 L-144,57 L-144,58 L-144,59 L-144,60 L-144,61 L-144,62 L-144,63 L-144,64 L-144,65 L-144,66 L-144,67 L-144,68 L-144,69 L-144,70 L-144,71 L-144,72 L-144,73 L-144,74 L-144,75 L-144,76 L-144,77 L-144,78 L-144,79 L-144,80 L-144,81 L-144,82 L-144,83 L-144,84 L-144,85 L-144,86 L-144,87 L-144,88 L-144,89 L-144,90 " />
		<path d="M-108,-90 L-108,-89 L-108,-88 L-108,-87 L-108,-86 L-108,-85 L-108,-84 L-108,-83 L-108,-82 L-108,-81 L-108,-80 L-108,-79 L-108,-78 L-108,-77 L-108,-76 L-108,-75 L-108,-74 L-108,-73 L-108,-72 L-108,-71 L-108,-70 L-108,-69 L-108,-68 L-108,-67 L-108,-66 L-108,-65 L-108,-64 L-108,-63 L-108,-62 L-108,-61 L-108,-60 L-108,-59 L-108,-58 L-108,-57 L-108,-56 L-108,-55 L-108,-54 L-108,-53 L-108,-52 L-108,-51 L-108,-50 L-108,-49 L-108,-48 L-108,-47 L-108,-46 L-108,-45 L-108,-44 L-108,-43 L-108,-42 L-108,-41 L-108,-40 L-108,-39 L-108,-38 L-108,-37 L-108,-36 L-108,-35 L-108,-34 L-108,-33 L-108,-32 L-108,-31 L-108,-30 L-108,-29 L-108,-28 L-108,-27 L-108,-26 L-108,-25 L-108,-24 L-108,-23 L-108,-22 L-108,-21 L-108,-20 L-108,-19 L-108,-18 L-108,-17 L-108,-16 L-108,-15 L-108,-14 L-108,-13 L-108,-12 L-108,-11 L-108,-10 L-108,-9 L-108,-8 L-108,-7 L-108,-6 L-108,-5 L-108,-4 L-108,-3 L-108,-2 L-108,-1 L-108,0 L-108,1 L-108,2 L-108,3 L-108,4 L-108,5 L-108,6 L-108,7 L-108,8 L-108,9 L-108,10 L-108,11 L-108,12 L-108,13 L-108,14 L-108,15 L-108,16 L-108,17 L-108,18 L-108,19 L-108,20 L-108,21 L-108,22 L-108,23 L-108,24 L-108,25 L-108,26 L-108,27 L-108,28 L-108,29 L-108,30 L-108,31 L-108,32 L-108,33 L-108,34 L-108,35 L-108,36 L-108,37 L-108,38 L-108,39 L-108,40 L-108,41 L-108,42 L-108,43 L-108,44 L-108,45 L-108,46 L-108,47 L-108,48 L-108,49 L-108,50 L-108,51 L-108,52 L-108,53 L-108,54 L-108,55 L-108,56 L-108,57 L-108,58 L-108,59 L-108,60 L-108,61 L-108,62 L-108,63 L-108,64 L-108,65 L-108,66 L-108,67 L-108,68 L-108,69 L-108,70 L-108,71 L-108,72 L-108,73 L-108,74 L-108,75 L-108,76 L-108,77 L-108,78 L-108,79 L-108,80 L-108,81 L-108,82 L-108,83 L-108,84 L-108,85 L-108,86 L-108,87 L-108,88 L-108,89 L-108,90 " />
		<path d="M-72,-90 L-72,-89 L-72,-88 L-72,-87 L-72,-86 L-72,-85 L-72,-84 L-72,-83 L-72,-82 L-72,-81 L-72,-80 L-72,-79 L-72,-78 L-72,-77 L-72,-76 L-72,-75 L-72,-74 L-72,-73 L-72,-72 L-72,-71 L-72,-70 L-72,-69 L-72,-68 L-72,-67 L-72,-66 L-72,-65 L-72,-64 L-72,-63 L-72,-62 L-72,-61 L-72,-60 L-72,-59 L-72,-58 L-72,-57 L-72,-56 L-72,-55 L-72,-54 L-72,-53 L-72,-52 L-72,-51 L-72,-50 L-72,-49 L-72,-48 L-72,-47 L-72,-46 L-72,-45 L-72,-44 L-72,-43 L-72,-42 L-72,-41 L-72,-40 L-72,-39 L-72,-38 L-72,-37 L-72,-36 L-72,-35 L-72,-34 L-72,-33 L-72,-32 L-72,-31 L-72,-30 L-72,-29 L-72,-28 L-72,-27 L-72,-26 L-72,-25 L-72,-24 L-72,-23 L-72,-22 L-72,-21 L-72,-20 L-72,-19 L-72,-18 L-72,-17 L-72,-16 L-72,-15 L-72,-14 L-72,-13 L-72,-12 L-72,-11 L-72,-10 L-72,-9 L-72,-8 L-72,-7 L-72,-6 L-72,-5 L-72,-4 L-72,-3 L-72,-2 L-72,-1 L-72,-0 L-72,1 L-72,2 L-72,3 L-72,4 L-72,5 L-72,6 L-72,7 L-72,8 L-72,9 L-72,10 L-72,11 L-72,12 L-72,13 L-72,14 L-72,15 L-72,16 L-72,17 L-72,18 L-72,19 L-72,20 L-72,21 L-72,22 L-72,23 L-72,24 L-72,25 L-72,26 L-72,27 L-72,28 L-72,29 L-72,30 L-72,31 L-72,32 L-72,33 L-72,34 L-72,35 L-72,36 L-72,37 L-72,38 L-72,39 L-72,40 L-72,41 L-72,42 L-72,43 L-72,44 L-72,45 L-72,46 L-72,47 L-72,48 L-72,49 L-72,50 L-72,51 L-72,52 L-72,53 L-72,54 L-72,55 L-72,56 L-72,57 L-72,58 L-72,59 L-72,60 L-72,61 L-72,62 L-72,63 L-72,64 L-72,65 L-72,66 L-72,67 L-72,68 L-72,69 L-72,70 L-72,71 L-72,72 L-72,73 L-72,74 L-72,75 L-72,76 L-72,77 L-72,78 L-72,79 L-72,80 L-72,81 L-72,82 L-72,83 L-72,84 L-72,85 L-72,86 L-72,87 L-72,88 L-72,89 L-72,90 " />
		<path d="M-36,-90 L-36,-89 L-36,-88 L-36,-87 L-36,-86 L-36,-85 L-36,-84 L-36,-83 L-36,-82 L-36,-81 L-36,-80 L-36,-79 L-36,-78 L-36,-77 L-36,-76 L-36,-75 L-36,-74 L-36,-73 L-36,-72 L-36,-71 L-36,-70 L-36,-69 L-36,-68 L-36,-67 L-36,-66 L-36,-65 L-36,-64 L-36,-63 L-36,-62 L-36,-61 L-36,-60 L-36,-59 L-36,-58 L-36,-57 L-36,-56 L-36,-55 L-36,-54 L-36,-53 L-36,-52 L-36,-51 L-36,-50 L-36,-49 L-36,-48 L-36,-47 L-36,-46 L-36,-45 L-36,-44 L-36,-43 L-36,-42 L-36,-41 L-36,-40 L-36,-39 L-36,-38 L-36,-37 L-36,-36 L-36,-35 L-36,-34 L-36,-33 L-36,-32 L-36,-31 L-36,-30 L-36,-29 L-36,-28 L-36,-27 L-36,-26 L-36,-25 L-36,-24 L-36,-23 L-36,-22 L-36,-21 L-36,-20 L-36,-19 L-36,-18 L-36,-17 L-36,-16 L-36,-15 L-36,-14 L-36,-13 L-36,-12 L-36,-11 L-36,-10 L-36,-9 L-36,-8 L-36,-7 L-36,-6 L-36,-5 L-36,-4 L-36,-3 L-36,-2 L-36,-1 L-36,-0 L-36,1 L-36,2 L-36,3 L-36,4 L-36,5 L-36,6 L-36,7 L-36,8 L-36,9 L-36,10 L-36,11 L-36,12 L-36,13 L-36,14 L-36,15 L-36,16 L-36,17 L-36,18 L-36,19 L-36,20 L-36,21 L-36,22 L-36,23 L-36,24 L-36,25 L-36,26 L-36,27 L-36,28 L-36,29 L-36,30 L-36,31 L-36,32 L-36,33 L-36,34 L-36,35 L-36,36 L-36,37 L-36,38 L-36,39 L-36,40 L-36,41 L-36,42 L-36,43 L-36,44 L-36,45 L-36,46 L-36,47 L-36,48 L-36,49 L-36,50 L-36,51 L-36,52 L-36,53 L-36,54 L-36,55 L-36,56 L-36,57 L-36,58 L-36,59 L-36,60 L-36,61 L-36,62 L-36,63 L-36,64 L-36,65 L-36,66 L-36,67 L-36,68 L-36,69 L-36,70 L-36,71 L-36,72 L-36,73 L-36,74 L-36,75 L-36,76 L-36,77 L-36,78 L-36,79 L-36,80 L-36,81 L-36,82 L-36,83 L-36,84 L-36,85 L-36,86 L-36,87 L-36,88 L-36,89 L-36,90 " />
		<path d="M0,-90 L0,-89 L0,-88 L0,-87 L0,-86 L0,-85 L0,-84 L0,-83 L0,-82 L0,-81 L0,-80 L0,-79 L0,-78 L0,-77 L0,-76 L0,-75 L0,-74 L0,-73 L0,-72 L0,-71 L0,-70 L0,-69 L0,-68 L0,-67 L0,-66 L0,-65 L0,-64 L0,-63 L0,-62 L0,-61 L0,-60 L0,-59 L0,-58 L0,-57 L0,-56 L0,-55 L0,-54 L0,-53 L0,-52 L0,-51 L0,-50 L0,-49 L0,-48 L0,-47 L0,-46 L0,-45 L0,-44 L0,-43 L0,-42 L0,-41 L0,-40 L0,-39 L0,-38 L0,-37 L0,-36 L0,-35 L0,-34 L0,-33 L0,-32 L0,-31 L0,-30 L0,-29 L0,-28 L0,-27 L0,-26 L0,-25 L0,-24 L0,-23 L0,-22 L0,-21 L0,-20 L0,-19 L0,-18 L0,-17 L0,-16 L0,-15 L0,-14 L0,-13 L0,-12 L0,-11 L0,-10 L0,-9 L0,-8 L0,-7 L0,-6 L0,-5 L0,-4 L0,-3 L0,-2 L0,-1 L0,-0 L0,1 L0,2 L0,3 L0,4 L0,5 L0,6 L0,7 L0,8 L0,9 L0,10 L0,11 L0,12 L0,13 L0,14 L0,15 L0,16 L0,17 L0,18 L0,19 L0,20 L0,21 L0,22 L0,23 L0,24 L0,25 L0,26 L0,27 L0,28 L0,29 L0,30 L0,31 L0,32 L0,33 L0,34 L0,35 L0,36 L0,37 L0,38 L0,39 L0,40 L0,41 L0,42 L0,43 L0,44 L0,45 L0,46 L0,47 L0,48 L0,49 L0,50 L0,51 L0,52 L0,53 L0,54 L0,55 L0,56 L0,57 L0,58 L0,59 L0,60 L0,61 L0,62 L0,63 L0,64 L0,65 L0,66 L0,67 L0,68 L0,69 L0,70 L0,71 L0,72 L0,73 L0,74 L0,75 L0,76 L0,77 L0,78 L0,79 L0,80 L0,81 L0,82 L0,83 L0,84 L0,85 L0,86 L0,87 L0,88 L0,89 L0,90 " />
		<path d="M36,-90 L36,-89 L36,-88 L36,-87 L36,-86 L36,-85 L36,-84 L36,-83 L36,-82 L36,-81 L36,-80 L36,-79 L36,-78 L36,-77 L36,-76 L36,-75 L36,-74 L36,-73 L36,-72 L36,-71 L36,-70 L36,-69 L36,-68 L36,-67 L36,-66 L36,-65 L36,-64 L36,-63 L36,-62 L36,-61 L36,-60 L36,-59 L36,-58 L36,-57 L36,-56 L36,-55 L36,-54 L36,-53 L36,-52 L36,-51 L36,-50 L36,-49 L36,-48 L36,-47 L36,-46 L36,-45 L36,-44 L36,-43 L36,-42 L36,-41 L36,-40 L36,-39 L36,-38 L36,-37 L36,-36 L36,-35 L36,-34 L36,-33 L36,-32 L36,-31 L36,-30 L36,-29 L36,-28 L36,-27 L36,-26 L36,-25 L36,-24 L36,-23 L36,-22 L36,-21 L36,-20 L36,-19 L36,-18 L36,-17 L36,-16 L36,-15 L36,-14 L36,-13 L36,-12 L36,-11 L36,-10 L36,-9 L36,-8 L36,-7 L36,-6 L36,-5 L36,-4 L36,-3 L36,-2 L36,-1 L36,-0 L36,1 L36,2 L36,3 L36,4 L36,5 L36,6 L36,7 L36,8 L36,9 L36,10 L36,11 L36,12 L36,13 L36,14 L36,15 L36,16 L36,17 L36,18 L36,19 L36,20 L36,21 L36,22 L36,23 L36,24 L36,25 L36,26 L36,27 L36,28 L36,29 L36,30 L36,31 L36,32 L36,33 L36,34 L36,35 L36,36 L36,37 L36,38 L36,39 L36,40 L36,41 L36,42 L36,43 L36,44 L36,45 L36,46 L36,47 L36,48 L36,49 L36,50 L36,51 L36,52 L36,53 L36,54 L36,55 L36,56 L36,57 L36,58 L36,59 L36,60 L36,61 L36,62 L36,63 L36,64 L36,65 L36,66 L36,67 L36,68 L36,69 L36,70 L36,71 L36,72 L36,73 L36,74 L36,75 L36,76 L36,77 L36,78 L36,79 L36,80 L36,81 L36,82 L36,83 L36,84 L36,85 L36,86 L36,87 L36,88 L36,89 L36,90 " />
		<path d="M72,-90 L72,-89 L72,-88 L72,-87 L72,-86 L72,-85 L72,-84 L72,-83 L72,-82 L72,-81 L72,-80 L72,-79 L72,-78 L72,-77 L72,-76 L72,-75 L72,-74 L72,-73 L72,-72 L72,-71 L72,-70 L72,-69 L72,-68 L72,-67 L72,-66 L72,-65 L72,-64 L72,-63 L72,-62 L72,-61 L72,-60 L72,-59 L72,-58 L72,-57 L72,-56 L72,-55 L72,-54 L72,-53 L72,-52 L72,-51 L72,-50 L72,-49 L72,-48 L72,-47 L72,-46 L72,-45 L72,-44 L72,-43 L72,-42 L72,-41 L72,-40 L72,-39 L72,-38 L72,-37 L72,-36 L72,-35 L72,-34 L72,-33 L72,-32 L72,-31 L72,-30 L72,-29 L72,-28 L72,-27 L72,-26 L72,-25 L72,-24 L72,-23 L72,-22 L72,-21 L72,-20 L72,-19 L72,-18 L72,-17 L72,-16 L72,-15 L72,-14 L72,-13 L72,-12 L72,-11 L72,-10 L72,-9 L72,-8 L72,-7 L72,-6 L72,-5 L72,-4 L72,-3 L72,-2 L72,-1 L72,-0 L72,1 L72,2 L72,3 L72,4 L72,5 L72,6 L72,7 L72,8 L72,9 L72,10 L72,11 L72,12 L72,13 L72,14 L72,15 L72,16 L72,17 L72,18 L72,19 L72,20 L72,21 L72,22 L72,23 L72,24 L72,25 L72,26 L72,27 L72,28 L72,29 L72,30 L72,31 L72,32 L72,33 L72,34 L72,35 L72,36 L72,37 L72,38 L72,39 L72,40 L72,41 L72,42 L72,43 L72,44 L72,45 L72,46 L72,47 L72,48 L72,49 L72,50 L72,51 L72,52 L72,53 L72,54 L72,55 L72,56 L72,57 L72,58 L72,59 L72,60 L72,61 L72,62 L72,63 L72,64 L72,65 L72,66 L72,67 L72,68 L72,69 L72,70 L72,71 L72,72 L72,73 L72,74 L72,75 L72,76 L72,77 L72,78 L72,79 L72,80 L72,81 L72,82 L72,83 L72,84 L72,85 L72,86 L72,87 L72,88 L72,89 L72,90 " />
		<path d="M108,-90 L108,-89 L108,-88 L108,-87 L108,-86 L108,-85 L108,-84 L108,-83 L108,-82 L108,-81 L108,-80 L108,-79 L108,-78 L108,-77 L108,-76 L108,-75 L108,-74 L108,-73 L108,-72 L108,-71 L108,-70 L108,-69 L108,-68 L108,-67 L108,-66 L108,-65 L108,-64 L108,-63 L108,-62 L108,-61 L108,-60 L108,-59 L108,-58 L108,-57 L108,-56 L108,-55 L108,-54 L108,-53 L108,-52 L108,-51 L108,-50 L108,-49 L108,-48 L108,-47 L108,-46 L108,-45 L108,-44 L108,-43 L108,-42 L108,-41 L108,-40 L108,-39 L108,-38 L108,-37 L108,-36 L108,-35 L108,-34 L108,-33 L108,-32 L108,-31 L108,-30 L108,-29 L108,-28 L108,-27 L108,-26 L108,-25 L108,-24 L108,-23 L108,-22 L108,-21 L108,-20 L108,-19 L108,-18 L108,-17 L108,-16 L108,-15 L108,-14 L108,-13 L108,-12 L108,-11 L108,-10 L108,-9 L108,-8 L108,-7 L108,-6 L108,-5 L108,-4 L108,-3 L108,-2 L108,-1 L108,0 L108,1 L108,2 L108,3 L108,4 L108,5 L108,6 L108,7 L108,8 L108,9 L108,10 L108,11 L108,12 L108,13 L108,14 L108,15 L108,16 L108,17 L108,18 L108,19 L108,20 L108,21 L108,22 L108,23 L108,24 L108,25 L108,26 L108,27 L108,28 L108,29 L108,30 L108,31 L108,32 L108,33 L108,34 L108,35 L108,36 L108,37 L108,38 L108,39 L108,40 L108,41 L108,42 L108,43 L108,44 L108,45 L108,46 L108,47 L108,48 L108,49 L108,50 L108,51 L108,52 L108,53 L108,54 L108,55 L108,56 L108,57 L108,58 L108,59 L108,60 L108,61 L108,62 L108,63 L108,64 L108,65 L108,66 L108,67 L108,68 L108,69 L108,70 L108,71 L108,72 L108,73 L108,74 L108,75 L108,76 L108,77 L108,78 L108,79 L108,80 L108,81 L108,82 L108,83 L108,84 L108,85 L108,86 L108,87 L108,88 L108,89 L108,90 " />
		<path d="M144,-90 L144,-89 L144,-88 L144,-87 L144,-86 L144,-85 L144,-84 L144,-83 L144,-82 L144,-81 L144,-80 L144,-79 L144,-78 L144,-77 L144,-76 L144,-75 L144,-74 L144,-73 L144,-72 L144,-71 L144,-70 L144,-69 L144,-68 L144,-67 L144,-66 L144,-65 L144,-64 L144,-63 L144,-62 L144,-61 L144,-60 L144,-59 L144,-58 L144,-57 L144,-56 L144,-55 L144,-54 L144,-53 L144,-52 L144,-51 L144,-50 L144,-49 L144,-48 L144,-47 L144,-46 L144,-45 L144,-44 L144,-43 L144,-42 L144,-41 L144,-40 L144,-39 L144,-38 L144,-37 L144,-36 L144,-35 L144,-34 L144,-33 L144,-32 L144,-31 L144,-30 L144,-29 L144,-28 L144,-27 L144,-26 L144,-25 L144,-24 L144,-23 L144,-22 L144,-21 L144,-20 L144,-19 L144,-18 L144,-17 L144,-16 L144,-15 L144,-14 L144,-13 L144,-12 L144,-11 L144,-10 L144,-9 L144,-8 L144,-7 L144,-6 L144,-5 L144,-4 L144,-3 L144,-2 L144,-1 L144,0 L144,1 L144,2 L144,3 L144,4 L144,5 L144,6 L144,7 L144,8 L144,9 L144,10 L144,11 L144,12 L144,13 L144,14 L144,15 L144,16 L144,17 L144,18 L144,19 L144,20 L144,21 L144,22 L144,23 L144,24 L144,25 L144,26 L144,27 L144,28 L144,29 L144,30 L144,31 L144,32 L144,33 L144,34 L144,35 L144,36 L144,37 L144,38 L144,39 L144,40 L144,41 L144,42 L144,43 L144,44 L144,45 L144,46 L144,47 L144,48 L144,49 L144,50 L144,51 L144,52 L144,53 L144,54 L144,55 L144,56 L144,57 L144,58 L144,59 L144,60 L144,61 L144,62 L144,63 L144,64 L144,65 L144,66 L144,67 L144,68 L144,69 L144,70 L144,71 L144,72 L144,73 L144,74 L144,75 L144,76 L144,77 L144,78 L144,79 L144,80 L144,81 L144,82 L144,83 L144,84 L144,85 L144,86 L144,87 L144,88 L144,89 L144,90 " />
		<path d="M180,-26.565 L179.338,-27.373 L178.667,-28.177 L177.985,-28.978 L177.292,-29.775 L176.589,-30.569 L175.874,-31.359 L175.147,-32.145 L174.407,-32.927 L173.654,-33.704 L172.888,-34.477 L172.107,-35.245 L171.311,-36.007 L170.500,-36.765 L169.672,-37.516 L168.828,-38.262 L167.967,-39.002 L167.087,-39.735 L166.188,-40.461 L165.270,-41.180 L164.332,-41.892 L163.373,-42.596 L162.392,-43.292 L161.388,-43.979 L160.361,-44.658 L159.309,-45.326 L158.233,-45.985 L157.131,-46.634 L156.003,-47.272 L154.847,-47.898 L153.664,-48.513 L152.451,-49.115 L151.209,-49.704 L149.937,-50.279 L148.634,-50.841 L147.300,-51.387 L145.934,-51.918 L144.536,-52.433 L143.105,-52.931 L141.642,-53.411 L140.146,-53.873 L138.617,-54.316 L137.056,-54.739 L135.463,-55.142 L133.837,-55.523 L132.181,-55.883 L130.495,-56.220 L128.781,-56.534 L127.038,-56.824 L125.270,-57.089 L123.477,-57.328 L121.662,-57.542 L119.827,-57.730 L117.975,-57.891 L116.107,-58.025 L114.226,-58.131 L112.336,-58.209 L110.438,-58.259 L108.537,-58.281 L106.635,-58.275 L104.736,-58.241 L102.841,-58.178 L100.955,-58.088 L99.079,-57.970 L97.218,-57.824 L95.372,-57.652 L93.546,-57.453 L91.740,-57.227 L89.958,-56.976 L88.201,-56.701 L86.470,-56.400 L84.768,-56.076 L83.095,-55.729 L81.452,-55.360 L79.840,-54.969 L78.261,-54.558 L76.714,-54.126 L75.199,-53.674 L73.717,-53.204 L72.268,-52.716 L70.852,-52.211 L69.468,-51.689 L68.116,-51.151 L66.795,-50.598 L65.506,-50.031 L64.247,-49.449 L63.018,-48.854 L61.818,-48.247 L60.647,-47.627 L59.503,-46.996 L58.386,-46.353 L57.296,-45.700 L56.230,-45.037 L55.190,-44.364 L54.173,-43.681 L53.179,-42.990 L52.207,-42.291 L51.257,-41.584 L50.328,-40.868 L49.418,-40.146 L48.528,-39.417 L47.656,-38.681 L46.802,-37.938 L45.966,-37.190 L45.145,-36.436 L44.341,-35.676 L43.552,-34.911 L42.777,-34.141 L42.017,-33.367 L41.270,-32.587 L40.535,-31.804 L39.814,-31.016 L39.104,-30.224 L38.405,-29.429 L37.717,-28.630 L37.040,-27.827 L36.373,-27.022 L35.715,-26.213 L35.066,-25.401 L34.426,-24.587 L33.795,-23.769 L33.171,-22.950 L32.555,-22.127 L31.945,-21.303 L31.343,-20.476 L30.747,-19.648 L30.157,-18.817 L29.574,-17.984 L28.995,-17.150 L28.422,-16.314 L27.853,-15.477 L27.290,-14.638 L26.730,-13.798 L26.175,-12.957 L25.623,-12.114 L25.075,-11.270 L24.530,-10.426 L23.988,-9.580 L23.448,-8.734 L22.911,-7.887 L22.376,-7.039 L21.844,-6.190 L21.313,-5.341 L20.783,-4.492 L20.254,-3.642 L19.727,-2.792 L19.200,-1.941 L18.674,-1.091 L18.149,-0.240 L17.623,0.610 L17.097,1.461 L16.571,2.311 L16.044,3.162 L15.516,4.012 L14.987,4.861 L14.457,5.711 L13.925,6.559 L13.391,7.408 L12.856,8.255 L12.318,9.102 L11.777,9.948 L11.234,10.793 L10.687,11.637 L10.138,12.481 L9.584,13.323 L9.027,14.164 L8.466,15.003 L7.900,15.841 L7.329,16.678 L6.754,17.513 L6.173,18.347 L5.587,19.178 L4.994,20.008 L4.396,20.836 L3.791,21.662 L3.178,22.485 L2.559,23.306 L1.932,24.125 L1.296,24.941 L0.653,25.755 L0,26.565 " />
		<path d="M180,-26.565 L178.934,-26.870 L177.862,-27.167 L176.784,-27.456 L175.701,-27.736 L174.613,-28.008 L173.519,-28.272 L172.419,-28.526 L171.315,-28.772 L170.205,-29.009 L169.090,-29.236 L167.971,-29.455 L166.847,-29.664 L165.718,-29.863 L164.585,-30.053 L163.447,-30.233 L162.305,-30.403 L161.160,-30.563 L160.011,-30.713 L158.858,-30.853 L157.703,-30.982 L156.544,-31.102 L155.382,-31.211 L154.218,-31.309 L153.052,-31.397 L151.883,-31.475 L150.713,-31.541 L149.541,-31.598 L148.368,-31.643 L147.194,-31.678 L146.019,-31.702 L144.843,-31.715 L143.668,-31.717 L142.492,-31.709 L141.317,-31.689 L140.143,-31.659 L138.969,-31.619 L137.797,-31.567 L136.626,-31.505 L135.456,-31.432 L134.289,-31.349 L133.124,-31.255 L131.961,-31.150 L130.801,-31.036 L129.644,-30.910 L128.490,-30.775 L127.339,-30.629 L126.192,-30.474 L125.049,-30.308 L123.910,-30.132 L122.775,-29.947 L121.644,-29.751 L120.518,-29.547 L119.396,-29.333 L118.279,-29.109 L117.167,-28.876 L116.060,-28.634 L114.959,-28.384 L113.862,-28.124 L112.771,-27.856 L111.686,-27.579 L110.606,-27.294 L109.532,-27 L108.463,-26.699 L107.400,-26.389 L106.343,-26.072 L105.292,-25.747 L104.246,-25.414 L103.206,-25.075 L102.172,-24.727 L101.144,-24.373 L100.122,-24.012 L99.105,-23.645 L98.094,-23.270 L97.089,-22.889 L96.090,-22.502 L95.096,-22.109 L94.108,-21.710 L93.125,-21.305 L92.147,-20.894 L91.176,-20.478 L90.209,-20.057 L89.247,-19.630 L88.291,-19.198 L87.340,-18.761 L86.393,-18.320 L85.452,-17.873 L84.515,-17.423 L83.583,-16.968 L82.655,-16.508 L81.732,-16.045 L80.813,-15.578 L79.899,-15.107 L78.988,-14.632 L78.081,-14.154 L77.179,-13.672 L76.279,-13.187 L75.384,-12.699 L74.492,-12.208 L73.603,-11.714 L72.717,-11.218 L71.835,-10.718 L70.955,-10.217 L70.078,-9.713 L69.204,-9.206 L68.332,-8.698 L67.463,-8.188 L66.595,-7.676 L65.730,-7.162 L64.867,-6.646 L64.006,-6.129 L63.146,-5.611 L62.288,-5.091 L61.431,-4.570 L60.576,-4.048 L59.721,-3.526 L58.868,-3.002 L58.015,-2.478 L57.163,-1.953 L56.312,-1.428 L55.461,-0.903 L54.610,-0.377 L53.760,0.149 L52.909,0.674 L52.058,1.200 L51.207,1.725 L50.355,2.250 L49.503,2.774 L48.650,3.298 L47.796,3.821 L46.941,4.343 L46.085,4.865 L45.227,5.385 L44.368,5.904 L43.508,6.421 L42.645,6.938 L41.781,7.452 L40.915,7.965 L40.047,8.476 L39.176,8.986 L38.303,9.493 L37.427,9.998 L36.548,10.501 L35.667,11.001 L34.783,11.499 L33.895,11.994 L33.005,12.486 L32.111,12.975 L31.213,13.462 L30.312,13.945 L29.407,14.424 L28.498,14.901 L27.585,15.373 L26.668,15.842 L25.747,16.307 L24.821,16.768 L23.891,17.225 L22.956,17.678 L22.017,18.126 L21.072,18.570 L20.123,19.009 L19.169,19.443 L18.210,19.872 L17.246,20.296 L16.276,20.714 L15.301,21.127 L14.321,21.535 L13.335,21.936 L12.343,22.332 L11.346,22.722 L10.344,23.105 L9.335,23.483 L8.321,23.853 L7.301,24.217 L6.276,24.574 L5.244,24.924 L4.207,25.267 L3.164,25.603 L2.115,25.931 L1.060,26.252 L0,26.565 " />
		<path d="M-180,-26.565 L-179.347,-25.755 L-178.704,-24.941 L-178.068,-24.125 L-177.441,-23.306 L-176.822,-22.485 L-176.209,-21.662 L-175.604,-20.836 L-175.006,-20.008 L-174.413,-19.178 L-173.827,-18.347 L-173.246,-17.513 L-172.671,-16.678 L-172.100,-15.841 L-171.534,-15.003 L-170.973,-14.164 L-170.416,-13.323 L-169.862,-12.481 L-169.313,-11.637 L-168.766,-10.793 L-168.223,-9.948 L-167.682,-9.102 L-167.144,-8.255 L-166.609,-7.408 L-166.075,-6.559 L-165.543,-5.711 L-165.013,-4.861 L-164.484,-4.012 L-163.956,-3.162 L-163.429,-2.311 L-162.903,-1.461 L-162.377,-0.610 L-161.851,0.240 L-161.326,1.091 L-160.800,1.941 L-160.273,2.792 L-159.746,3.642 L-159.217,4.492 L-158.687,5.341 L-158.156,6.190 L-157.624,7.039 L-157.089,7.887 L-156.552,8.734 L-156.012,9.580 L-155.470,10.426 L-154.925,11.270 L-154.377,12.114 L-153.825,12.957 L-153.270,13.798 L-152.710,14.638 L-152.147,15.477 L-151.578,16.314 L-151.005,17.150 L-150.426,17.984 L-149.843,18.817 L-149.253,19.648 L-148.657,20.476 L-148.055,21.303 L-147.445,22.127 L-146.829,22.950 L-146.205,23.769 L-145.574,24.587 L-144.934,25.401 L-144.285,26.213 L-143.627,27.022 L-142.960,27.827 L-142.283,28.630 L-141.595,29.429 L-140.896,30.224 L-140.186,31.016 L-139.465,31.804 L-138.730,32.587 L-137.983,33.367 L-137.223,34.141 L-136.448,34.911 L-135.659,35.676 L-134.855,36.436 L-134.034,37.190 L-133.198,37.938 L-132.344,38.681 L-131.472,39.417 L-130.582,40.146 L-129.672,40.868 L-128.743,41.584 L-127.793,42.291 L-126.821,42.990 L-125.827,43.681 L-124.810,44.364 L-123.770,45.037 L-122.704,45.700 L-121.614,46.353 L-120.497,46.996 L-119.353,47.627 L-118.182,48.247 L-116.982,48.854 L-115.753,49.449 L-114.494,50.031 L-113.205,50.598 L-111.884,51.151 L-110.532,51.689 L-109.148,52.211 L-107.732,52.716 L-106.283,53.204 L-104.801,53.674 L-103.286,54.126 L-101.739,54.558 L-100.160,54.969 L-98.548,55.360 L-96.905,55.729 L-95.232,56.076 L-93.530,56.400 L-91.799,56.701 L-90.042,56.976 L-88.260,57.227 L-86.454,57.453 L-84.628,57.652 L-82.782,57.824 L-80.921,57.970 L-79.045,58.088 L-77.159,58.178 L-75.264,58.241 L-73.365,58.275 L-71.463,58.281 L-69.562,58.259 L-67.664,58.209 L-65.774,58.131 L-63.893,58.025 L-62.025,57.891 L-60.173,57.730 L-58.338,57.542 L-56.523,57.328 L-54.730,57.089 L-52.962,56.824 L-51.219,56.534 L-49.505,56.220 L-47.819,55.883 L-46.163,55.523 L-44.537,55.142 L-42.944,54.739 L-41.383,54.316 L-39.854,53.873 L-38.358,53.411 L-36.895,52.931 L-35.464,52.433 L-34.066,51.918 L-32.700,51.387 L-31.366,50.841 L-30.063,50.279 L-28.791,49.704 L-27.549,49.115 L-26.336,48.513 L-25.153,47.898 L-23.997,47.272 L-22.869,46.634 L-21.767,45.985 L-20.691,45.326 L-19.639,44.658 L-18.612,43.979 L-17.608,43.292 L-16.627,42.596 L-15.668,41.892 L-14.730,41.180 L-13.812,40.461 L-12.913,39.735 L-12.033,39.002 L-11.172,38.262 L-10.328,37.516 L-9.500,36.765 L-8.689,36.007 L-7.893,35.245 L-7.112,34.477 L-6.346,33.704 L-5.593,32.927 L-4.853,32.145 L-4.126,31.359 L-3.411,30.569 L-2.708,29.775 L-2.015,28.978 L-1.333,28.177 L-0.662,27.373 L0,26.565 " />
		<path d="M-180,-26.565 L-178.940,-26.252 L-177.885,-25.931 L-176.836,-25.603 L-175.793,-25.267 L-174.756,-24.924 L-173.724,-24.574 L-172.699,-24.217 L-171.679,-23.853 L-170.665,-23.483 L-169.656,-23.105 L-168.654,-22.722 L-167.657,-22.332 L-166.665,-21.936 L-165.679,-21.535 L-164.699,-21.127 L-163.724,-20.714 L-162.754,-20.296 L-161.790,-19.872 L-160.831,-19.443 L-159.877,-19.009 L-158.928,-18.570 L-157.983,-18.126 L-157.044,-17.678 L-156.109,-17.225 L-155.179,-16.768 L-154.253,-16.307 L-153.332,-15.842 L-152.415,-15.373 L-151.502,-14.901 L-150.593,-14.424 L-149.688,-13.945 L-148.787,-13.462 L-147.889,-12.975 L-146.995,-12.486 L-146.105,-11.994 L-145.217,-11.499 L-144.333,-11.001 L-143.452,-10.501 L-142.573,-9.998 L-141.697,-9.493 L-140.824,-8.986 L-139.953,-8.476 L-139.085,-7.965 L-138.219,-7.452 L-137.355,-6.938 L-136.492,-6.421 L-135.632,-5.904 L-134.773,-5.385 L-133.915,-4.865 L-133.059,-4.343 L-132.204,-3.821 L-131.350,-3.298 L-130.497,-2.774 L-129.645,-2.250 L-128.793,-1.725 L-127.942,-1.200 L-127.091,-0.674 L-126.240,-0.149 L-125.390,0.377 L-124.539,0.903 L-123.688,1.428 L-122.837,1.953 L-121.985,2.478 L-121.132,3.002 L-120.279,3.526 L-119.424,4.048 L-118.569,4.570 L-117.712,5.091 L-116.854,5.611 L-115.994,6.129 L-115.133,6.646 L-114.270,7.162 L-113.405,7.676 L-112.537,8.188 L-111.668,8.698 L-110.796,9.206 L-109.922,9.713 L-109.045,10.217 L-108.165,10.718 L-107.283,11.218 L-106.397,11.714 L-105.508,12.208 L-104.616,12.699 L-103.721,13.187 L-102.821,13.672 L-101.919,14.154 L-101.012,14.632 L-100.101,15.107 L-99.187,15.578 L-98.268,16.045 L-97.345,16.508 L-96.417,16.968 L-95.485,17.423 L-94.548,17.873 L-93.607,18.320 L-92.660,18.761 L-91.709,19.198 L-90.753,19.630 L-89.791,20.057 L-88.824,20.478 L-87.853,20.894 L-86.875,21.305 L-85.892,21.710 L-84.904,22.109 L-83.910,22.502 L-82.911,22.889 L-81.906,23.270 L-80.895,23.645 L-79.878,24.012 L-78.856,24.373 L-77.828,24.727 L-76.794,25.075 L-75.754,25.414 L-74.708,25.747 L-73.657,26.072 L-72.600,26.389 L-71.537,26.699 L-70.468,27 L-69.394,27.294 L-68.314,27.579 L-67.229,27.856 L-66.138,28.124 L-65.041,28.384 L-63.940,28.634 L-62.833,28.876 L-61.721,29.109 L-60.604,29.333 L-59.482,29.547 L-58.356,29.751 L-57.225,29.947 L-56.090,30.132 L-54.951,30.308 L-53.808,30.474 L-52.661,30.629 L-51.510,30.775 L-50.356,30.910 L-49.199,31.036 L-48.039,31.150 L-46.876,31.255 L-45.711,31.349 L-44.544,31.432 L-43.374,31.505 L-42.203,31.567 L-41.031,31.619 L-39.857,31.659 L-38.683,31.689 L-37.508,31.709 L-36.332,31.717 L-35.157,31.715 L-33.981,31.702 L-32.806,31.678 L-31.632,31.643 L-30.459,31.598 L-29.287,31.541 L-28.117,31.475 L-26.948,31.397 L-25.782,31.309 L-24.618,31.211 L-23.456,31.102 L-22.297,30.982 L-21.142,30.853 L-19.989,30.713 L-18.840,30.563 L-17.695,30.403 L-16.553,30.233 L-15.415,30.053 L-14.282,29.863 L-13.153,29.664 L-12.029,29.455 L-10.910,29.236 L-9.795,29.009 L-8.685,28.772 L-7.581,28.526 L-6.481,28.272 L-5.387,28.008 L-4.299,27.736 L-3.216,27.456 L-2.138,27.167 L-1.066,26.870 L0,26.565 " />
		<path d="M-108,-26.565 L-108.662,-27.373 L-109.333,-28.177 L-110.015,-28.978 L-110.708,-29.775 L-111.411,-30.569 L-112.126,-31.359 L-112.853,-32.145 L-113.593,-32.927 L-114.346,-33.704 L-115.112,-34.477 L-115.893,-35.245 L-116.689,-36.007 L-117.500,-36.765 L-118.328,-37.516 L-119.172,-38.262 L-120.033,-39.002 L-120.913,-39.735 L-121.812,-40.461 L-122.730,-41.180 L-123.668,-41.892 L-124.627,-42.596 L-125.608,-43.292 L-126.612,-43.979 L-127.639,-44.658 L-128.691,-45.326 L-129.767,-45.985 L-130.869,-46.634 L-131.997,-47.272 L-133.153,-47.898 L-134.336,-48.513 L-135.549,-49.115 L-136.791,-49.704 L-138.063,-50.279 L-139.366,-50.841 L-140.700,-51.387 L-142.066,-51.918 L-143.464,-52.433 L-144.895,-52.931 L-146.358,-53.411 L-147.854,-53.873 L-149.383,-54.316 L-150.944,-54.739 L-152.537,-55.142 L-154.163,-55.523 L-155.819,-55.883 L-157.505,-56.220 L-159.219,-56.534 L-160.962,-56.824 L-162.730,-57.089 L-164.523,-57.328 L-166.338,-57.542 L-168.173,-57.730 L-170.025,-57.891 L-171.893,-58.025 L-173.774,-58.131 L-175.664,-58.209 L-177.562,-58.259 L-179.463,-58.281 L178.635,-58.275 L176.736,-58.241 L174.841,-58.178 L172.955,-58.088 L171.079,-57.970 L169.218,-57.824 L167.372,-57.652 L165.546,-57.453 L163.740,-57.227 L161.958,-56.976 L160.201,-56.701 L158.470,-56.400 L156.768,-56.076 L155.095,-55.729 L153.452,-55.360 L151.840,-54.969 L150.261,-54.558 L148.714,-54.126 L147.199,-53.674 L145.717,-53.204 L144.268,-52.716 L142.852,-52.211 L141.468,-51.689 L140.116,-51.151 L138.795,-50.598 L137.506,-50.031 L136.247,-49.449 L135.018,-48.854 L133.818,-48.247 L132.647,-47.627 L131.503,-46.996 L130.386,-46.353 L129.296,-45.700 L128.230,-45.037 L127.190,-44.364 L126.173,-43.681 L125.179,-42.990 L124.207,-42.291 L123.257,-41.584 L122.328,-40.868 L121.418,-40.146 L120.528,-39.417 L119.656,-38.681 L118.802,-37.938 L117.966,-37.190 L117.145,-36.436 L116.341,-35.676 L115.552,-34.911 L114.777,-34.141 L114.017,-33.367 L113.270,-32.587 L112.535,-31.804 L111.814,-31.016 L111.104,-30.224 L110.405,-29.429 L109.717,-28.630 L109.040,-27.827 L108.373,-27.022 L107.715,-26.213 L107.066,-25.401 L106.426,-24.587 L105.795,-23.769 L105.171,-22.950 L104.555,-22.127 L103.945,-21.303 L103.343,-20.476 L102.747,-19.648 L102.157,-18.817 L101.574,-17.984 L100.995,-17.150 L100.422,-16.314 L99.853,-15.477 L99.290,-14.638 L98.730,-13.798 L98.175,-12.957 L97.623,-12.114 L97.075,-11.270 L96.530,-10.426 L95.988,-9.580 L95.448,-8.734 L94.911,-7.887 L94.376,-7.039 L93.844,-6.190 L93.313,-5.341 L92.783,-4.492 L92.254,-3.642 L91.727,-2.792 L91.200,-1.941 L90.674,-1.091 L90.149,-0.240 L89.623,0.610 L89.097,1.461 L88.571,2.311 L88.044,3.162 L87.516,4.012 L86.987,4.861 L86.457,5.711 L85.925,6.559 L85.391,7.408 L84.856,8.255 L84.318,9.102 L83.777,9.948 L83.234,10.793 L82.687,11.637 L82.138,12.481 L81.584,13.323 L81.027,14.164 L80.466,15.003 L79.900,15.841 L79.329,16.678 L78.754,17.513 L78.173,18.347 L77.587,19.178 L76.994,20.008 L76.396,20.836 L75.791,21.662 L75.178,22.485 L74.559,23.306 L73.932,24.125 L73.296,24.941 L72.653,25.755 L72,26.565 " />
		<path d="M-108,-26.565 L-109.066,-26.870 L-110.138,-27.167 L-111.216,-27.456 L-112.299,-27.736 L-113.387,-28.008 L-114.481,-28.272 L-115.581,-28.526 L-116.685,-28.772 L-117.795,-29.009 L-118.910,-29.236 L-120.029,-29.455 L-121.153,-29.664 L-122.282,-29.863 L-123.415,-30.053 L-124.553,-30.233 L-125.695,-30.403 L-126.840,-30.563 L-127.989,-30.713 L-129.142,-30.853 L-130.297,-30.982 L-131.456,-31.102 L-132.618,-31.211 L-133.782,-31.309 L-134.948,-31.397 L-136.117,-31.475 L-137.287,-31.541 L-138.459,-31.598 L-139.632,-31.643 L-140.806,-31.678 L-141.981,-31.702 L-143.157,-31.715 L-144.332,-31.717 L-145.508,-31.709 L-146.683,-31.689 L-147.857,-31.659 L-149.031,-31.619 L-150.203,-31.567 L-151.374,-31.505 L-152.544,-31.432 L-153.711,-31.349 L-154.876,-31.255 L-156.039,-31.150 L-157.199,-31.036 L-158.356,-30.910 L-159.510,-30.775 L-160.661,-30.629 L-161.808,-30.474 L-162.951,-30.308 L-164.090,-30.132 L-165.225,-29.947 L-166.356,-29.751 L-167.482,-29.547 L-168.604,-29.333 L-169.721,-29.109 L-170.833,-28.876 L-171.940,-28.634 L-173.041,-28.384 L-174.138,-28.124 L-175.229,-27.856 L-176.314,-27.579 L-177.394,-27.294 L-178.468,-27 L-179.537,-26.699 L179.400,-26.389 L178.343,-26.072 L177.292,-25.747 L176.246,-25.414 L175.206,-25.075 L174.172,-24.727 L173.144,-24.373 L172.122,-24.012 L171.105,-23.645 L170.094,-23.270 L169.089,-22.889 L168.090,-22.502 L167.096,-22.109 L166.108,-21.710 L165.125,-21.305 L164.147,-20.894 L163.176,-20.478 L162.209,-20.057 L161.247,-19.630 L160.291,-19.198 L159.340,-18.761 L158.393,-18.320 L157.452,-17.873 L156.515,-17.423 L155.583,-16.968 L154.655,-16.508 L153.732,-16.045 L152.813,-15.578 L151.899,-15.107 L150.988,-14.632 L150.081,-14.154 L149.179,-13.672 L148.279,-13.187 L147.384,-12.699 L146.492,-12.208 L145.603,-11.714 L144.717,-11.218 L143.835,-10.718 L142.955,-10.217 L142.078,-9.713 L141.204,-9.206 L140.332,-8.698 L139.463,-8.188 L138.595,-7.676 L137.730,-7.162 L136.867,-6.646 L136.006,-6.129 L135.146,-5.611 L134.288,-5.091 L133.431,-4.570 L132.576,-4.048 L131.721,-3.526 L130.868,-3.002 L130.015,-2.478 L129.163,-1.953 L128.312,-1.428 L127.461,-0.903 L126.610,-0.377 L125.760,0.149 L124.909,0.674 L124.058,1.200 L123.207,1.725 L122.355,2.250 L121.503,2.774 L120.650,3.298 L119.796,3.821 L118.941,4.343 L118.085,4.865 L117.227,5.385 L116.368,5.904 L115.508,6.421 L114.645,6.938 L113.781,7.452 L112.915,7.965 L112.047,8.476 L111.176,8.986 L110.303,9.493 L109.427,9.998 L108.548,10.501 L107.667,11.001 L106.783,11.499 L105.895,11.994 L105.005,12.486 L104.111,12.975 L103.213,13.462 L102.312,13.945 L101.407,14.424 L100.498,14.901 L99.585,15.373 L98.668,15.842 L97.747,16.307 L96.821,16.768 L95.891,17.225 L94.956,17.678 L94.017,18.126 L93.072,18.570 L92.123,19.009 L91.169,19.443 L90.210,19.872 L89.246,20.296 L88.276,20.714 L87.301,21.127 L86.321,21.535 L85.335,21.936 L84.343,22.332 L83.346,22.722 L82.344,23.105 L81.335,23.483 L80.321,23.853 L79.301,24.217 L78.276,24.574 L77.244,24.924 L76.207,25.267 L75.164,25.603 L74.115,25.931 L73.060,26.252 L72,26.565 " />
		<path d="M-108,-26.565 L-107.347,-25.755 L-106.704,-24.941 L-106.068,-24.125 L-105.441,-23.306 L-104.822,-22.485 L-104.209,-21.662 L-103.604,-20.836 L-103.006,-20.008 L-102.413,-19.178 L-101.827,-18.347 L-101.246,-17.513 L-100.671,-16.678 L-100.100,-15.841 L-99.534,-15.003 L-98.973,-14.164 L-98.416,-13.323 L-97.862,-12.481 L-97.313,-11.637 L-96.766,-10.793 L-96.223,-9.948 L-95.682,-9.102 L-95.144,-8.255 L-94.609,-7.408 L-94.075,-6.559 L-93.543,-5.711 L-93.013,-4.861 L-92.484,-4.012 L-91.956,-3.162 L-91.429,-2.311 L-90.903,-1.461 L-90.377,-0.610 L-89.851,0.240 L-89.326,1.091 L-88.800,1.941 L-88.273,2.792 L-87.746,3.642 L-87.217,4.492 L-86.687,5.341 L-86.156,6.190 L-85.624,7.039 L-85.089,7.887 L-84.552,8.734 L-84.012,9.580 L-83.470,10.426 L-82.925,11.270 L-82.377,12.114 L-81.825,12.957 L-81.270,13.798 L-80.710,14.638 L-80.147,15.477 L-79.578,16.314 L-79.005,17.150 L-78.426,17.984 L-77.843,18.817 L-77.253,19.648 L-76.657,20.476 L-76.055,21.303 L-75.445,22.127 L-74.829,22.950 L-74.205,23.769 L-73.574,24.587 L-72.934,25.401 L-72.285,26.213 L-71.627,27.022 L-70.960,27.827 L-70.283,28.630 L-69.595,29.429 L-68.896,30.224 L-68.186,31.016 L-67.465,31.804 L-66.730,32.587 L-65.983,33.367 L-65.223,34.141 L-64.448,34.911 L-63.659,35.676 L-62.855,36.436 L-62.034,37.190 L-61.198,37.938 L-60.344,38.681 L-59.472,39.417 L-58.582,40.146 L-57.672,40.868 L-56.743,41.584 L-55.793,42.291 L-54.821,42.990 L-53.827,43.681 L-52.810,44.364 L-51.770,45.037 L-50.704,45.700 L-49.614,46.353 L-48.497,46.996 L-47.353,47.627 L-46.182,48.247 L-44.982,48.854 L-43.753,49.449 L-42.494,50.031 L-41.205,50.598 L-39.884,51.151 L-38.532,51.689 L-37.148,52.211 L-35.732,52.716 L-34.283,53.204 L-32.801,53.674 L-31.286,54.126 L-29.739,54.558 L-28.160,54.969 L-26.548,55.360 L-24.905,55.729 L-23.232,56.076 L-21.530,56.400 L-19.799,56.701 L-18.042,56.976 L-16.260,57.227 L-14.454,57.453 L-12.628,57.652 L-10.782,57.824 L-8.921,57.970 L-7.045,58.088 L-5.159,58.178 L-3.264,58.241 L-1.365,58.275 L0.537,58.281 L2.438,58.259 L4.336,58.209 L6.226,58.131 L8.107,58.025 L9.975,57.891 L11.827,57.730 L13.662,57.542 L15.477,57.328 L17.270,57.089 L19.038,56.824 L20.781,56.534 L22.495,56.220 L24.181,55.883 L25.837,55.523 L27.463,55.142 L29.056,54.739 L30.617,54.316 L32.146,53.873 L33.642,53.411 L35.105,52.931 L36.536,52.433 L37.934,51.918 L39.300,51.387 L40.634,50.841 L41.937,50.279 L43.209,49.704 L44.451,49.115 L45.664,48.513 L46.847,47.898 L48.003,47.272 L49.131,46.634 L50.233,45.985 L51.309,45.326 L52.361,44.658 L53.388,43.979 L54.392,43.292 L55.373,42.596 L56.332,41.892 L57.270,41.180 L58.188,40.461 L59.087,39.735 L59.967,39.002 L60.828,38.262 L61.672,37.516 L62.500,36.765 L63.311,36.007 L64.107,35.245 L64.888,34.477 L65.654,33.704 L66.407,32.927 L67.147,32.145 L67.874,31.359 L68.589,30.569 L69.292,29.775 L69.985,28.978 L70.667,28.177 L71.338,27.373 L72,26.565 " />
		<path d="M-108,-26.565 L-106.940,-26.252 L-105.885,-25.931 L-104.836,-25.603 L-103.793,-25.267 L-102.756,-24.924 L-101.724,-24.574 L-100.699,-24.217 L-99.679,-23.853 L-98.665,-23.483 L-97.656,-23.105 L-96.654,-22.722 L-95.657,-22.332 L-94.665,-21.936 L-93.679,-21.535 L-92.699,-21.127 L-91.724,-20.714 L-90.754,-20.296 L-89.790,-19.872 L-88.831,-19.443 L-87.877,-19.009 L-86.928,-18.570 L-85.983,-18.126 L-85.044,-17.678 L-84.109,-17.225 L-83.179,-16.768 L-82.253,-16.307 L-81.332,-15.842 L-80.415,-15.373 L-79.502,-14.901 L-78.593,-14.424 L-77.688,-13.945 L-76.787,-13.462 L-75.889,-12.975 L-74.995,-12.486 L-74.105,-11.994 L-73.217,-11.499 L-72.333,-11.001 L-71.452,-10.501 L-70.573,-9.998 L-69.697,-9.493 L-68.824,-8.986 L-67.953,-8.476 L-67.085,-7.965 L-66.219,-7.452 L-65.355,-6.938 L-64.492,-6.421 L-63.632,-5.904 L-62.773,-5.385 L-61.915,-4.865 L-61.059,-4.343 L-60.204,-3.821 L-59.350,-3.298 L-58.497,-2.774 L-57.645,-2.250 L-56.793,-1.725 L-55.942,-1.200 L-55.091,-0.674 L-54.240,-0.149 L-53.390,0.377 L-52.539,0.903 L-51.688,1.428 L-50.837,1.953 L-49.985,2.478 L-49.132,3.002 L-48.279,3.526 L-47.424,4.048 L-46.569,4.570 L-45.712,5.091 L-44.854,5.611 L-43.994,6.129 L-43.133,6.646 L-42.270,7.162 L-41.405,7.676 L-40.537,8.188 L-39.668,8.698 L-38.796,9.206 L-37.922,9.713 L-37.045,10.217 L-36.165,10.718 L-35.283,11.218 L-34.397,11.714 L-33.508,12.208 L-32.616,12.699 L-31.721,13.187 L-30.821,13.672 L-29.919,14.154 L-29.012,14.632 L-28.101,15.107 L-27.187,15.578 L-26.268,16.045 L-25.345,16.508 L-24.417,16.968 L-23.485,17.423 L-22.548,17.873 L-21.607,18.320 L-20.660,18.761 L-19.709,19.198 L-18.753,19.630 L-17.791,20.057 L-16.824,20.478 L-15.853,20.894 L-14.875,21.305 L-13.892,21.710 L-12.904,22.109 L-11.910,22.502 L-10.911,22.889 L-9.906,23.270 L-8.895,23.645 L-7.878,24.012 L-6.856,24.373 L-5.828,24.727 L-4.794,25.075 L-3.754,25.414 L-2.708,25.747 L-1.657,26.072 L-0.600,26.389 L0.463,26.699 L1.532,27 L2.606,27.294 L3.686,27.579 L4.771,27.856 L5.862,28.124 L6.959,28.384 L8.060,28.634 L9.167,28.876 L10.279,29.109 L11.396,29.333 L12.518,29.547 L13.644,29.751 L14.775,29.947 L15.910,30.132 L17.049,30.308 L18.192,30.474 L19.339,30.629 L20.490,30.775 L21.644,30.910 L22.801,31.036 L23.961,31.150 L25.124,31.255 L26.289,31.349 L27.456,31.432 L28.626,31.505 L29.797,31.567 L30.969,31.619 L32.143,31.659 L33.317,31.689 L34.492,31.709 L35.668,31.717 L36.843,31.715 L38.019,31.702 L39.194,31.678 L40.368,31.643 L41.541,31.598 L42.713,31.541 L43.883,31.475 L45.052,31.397 L46.218,31.309 L47.382,31.211 L48.544,31.102 L49.703,30.982 L50.858,30.853 L52.011,30.713 L53.160,30.563 L54.305,30.403 L55.447,30.233 L56.585,30.053 L57.718,29.863 L58.847,29.664 L59.971,29.455 L61.090,29.236 L62.205,29.009 L63.315,28.772 L64.419,28.526 L65.519,28.272 L66.613,28.008 L67.701,27.736 L68.784,27.456 L69.862,27.167 L70.934,26.870 L72,26.565 " />
		<path d="M-36,-26.565 L-36.662,-27.373 L-37.333,-28.177 L-38.015,-28.978 L-38.708,-29.775 L-39.411,-30.569 L-40.126,-31.359 L-40.853,-32.145 L-41.593,-32.927 L-42.346,-33.704 L-43.112,-34.477 L-43.893,-35.245 L-44.689,-36.007 L-45.500,-36.765 L-46.328,-37.516 L-47.172,-38.262 L-48.033,-39.002 L-48.913,-39.735 L-49.812,-40.461 L-50.730,-41.180 L-51.668,-41.892 L-52.627,-42.596 L-53.608,-43.292 L-54.612,-43.979 L-55.639,-44.658 L-56.691,-45.326 L-57.767,-45.985 L-58.869,-46.634 L-59.997,-47.272 L-61.153,-47.898 L-62.336,-48.513 L-63.549,-49.115 L-64.791,-49.704 L-66.063,-50.279 L-67.366,-50.841 L-68.700,-51.387 L-70.066,-51.918 L-71.464,-52.433 L-72.895,-52.931 L-74.358,-53.411 L-75.854,-53.873 L-77.383,-54.316 L-78.944,-54.739 L-80.537,-55.142 L-82.163,-55.523 L-83.819,-55.883 L-85.505,-56.220 L-87.219,-56.534 L-88.962,-56.824 L-90.730,-57.089 L-92.523,-57.328 L-94.338,-57.542 L-96.173,-57.730 L-98.025,-57.891 L-99.893,-58.025 L-101.774,-58.131 L-103.664,-58.209 L-105.562,-58.259 L-107.463,-58.281 L-109.365,-58.275 L-111.264,-58.241 L-113.159,-58.178 L-115.045,-58.088 L-116.921,-57.970 L-118.782,-57.824 L-120.628,-57.652 L-122.454,-57.453 L-124.260,-57.227 L-126.042,-56.976 L-127.799,-56.701 L-129.530,-56.400 L-131.232,-56.076 L-132.905,-55.729 L-134.548,-55.360 L-136.160,-54.969 L-137.739,-54.558 L-139.286,-54.126 L-140.801,-53.674 L-142.283,-53.204 L-143.732,-52.716 L-145.148,-52.211 L-146.532,-51.689 L-147.884,-51.151 L-149.205,-50.598 L-150.494,-50.031 L-151.753,-49.449 L-152.982,-48.854 L-154.182,-48.247 L-155.353,-47.627 L-156.497,-46.996 L-157.614,-46.353 L-158.704,-45.700 L-159.770,-45.037 L-160.810,-44.364 L-161.827,-43.681 L-162.821,-42.990 L-163.793,-42.291 L-164.743,-41.584 L-165.672,-40.868 L-166.582,-40.146 L-167.472,-39.417 L-168.344,-38.681 L-169.198,-37.938 L-170.034,-37.190 L-170.855,-36.436 L-171.659,-35.676 L-172.448,-34.911 L-173.223,-34.141 L-173.983,-33.367 L-174.730,-32.587 L-175.465,-31.804 L-176.186,-31.016 L-176.896,-30.224 L-177.595,-29.429 L-178.283,-28.630 L-178.960,-27.827 L-179.627,-27.022 L179.715,-26.213 L179.066,-25.401 L178.426,-24.587 L177.795,-23.769 L177.171,-22.950 L176.555,-22.127 L175.945,-21.303 L175.343,-20.476 L174.747,-19.648 L174.157,-18.817 L173.574,-17.984 L172.995,-17.150 L172.422,-16.314 L171.853,-15.477 L171.290,-14.638 L170.730,-13.798 L170.175,-12.957 L169.623,-12.114 L169.075,-11.270 L168.530,-10.426 L167.988,-9.580 L167.448,-8.734 L166.911,-7.887 L166.376,-7.039 L165.844,-6.190 L165.313,-5.341 L164.783,-4.492 L164.254,-3.642 L163.727,-2.792 L163.200,-1.941 L162.674,-1.091 L162.149,-0.240 L161.623,0.610 L161.097,1.461 L160.571,2.311 L160.044,3.162 L159.516,4.012 L158.987,4.861 L158.457,5.711 L157.925,6.559 L157.391,7.408 L156.856,8.255 L156.318,9.102 L155.777,9.948 L155.234,10.793 L154.687,11.637 L154.138,12.481 L153.584,13.323 L153.027,14.164 L152.466,15.003 L151.900,15.841 L151.329,16.678 L150.754,17.513 L150.173,18.347 L149.587,19.178 L148.994,20.008 L148.396,20.836 L147.791,21.662 L147.178,22.485 L146.559,23.306 L145.932,24.125 L145.296,24.941 L144.653,25.755 L144,26.565 " />
		<path d="M-36,-26.565 L-37.066,-26.870 L-38.138,-27.167 L-39.216,-27.456 L-40.299,-27.736 L-41.387,-28.008 L-42.481,-28.272 L-43.581,-28.526 L-44.685,-28.772 L-45.795,-29.009 L-46.910,-29.236 L-48.029,-29.455 L-49.153,-29.664 L-50.282,-29.863 L-51.415,-30.053 L-52.553,-30.233 L-53.695,-30.403 L-54.840,-30.563 L-55.989,-30.713 L-57.142,-30.853 L-58.297,-30.982 L-59.456,-31.102 L-60.618,-31.211 L-61.782,-31.309 L-62.948,-31.397 L-64.117,-31.475 L-65.287,-31.541 L-66.459,-31.598 L-67.632,-31.643 L-68.806,-31.678 L-69.981,-31.702 L-71.157,-31.715 L-72.332,-31.717 L-73.508,-31.709 L-74.683,-31.689 L-75.857,-31.659 L-77.031,-31.619 L-78.203,-31.567 L-79.374,-31.505 L-80.544,-31.432 L-81.711,-31.349 L-82.876,-31.255 L-84.039,-31.150 L-85.199,-31.036 L-86.356,-30.910 L-87.510,-30.775 L-88.661,-30.629 L-89.808,-30.474 L-90.951,-30.308 L-92.090,-30.132 L-93.225,-29.947 L-94.356,-29.751 L-95.482,-29.547 L-96.604,-29.333 L-97.721,-29.109 L-98.833,-28.876 L-99.940,-28.634 L-101.041,-28.384 L-102.138,-28.124 L-103.229,-27.856 L-104.314,-27.579 L-105.394,-27.294 L-106.468,-27 L-107.537,-26.699 L-108.600,-26.389 L-109.657,-26.072 L-110.708,-25.747 L-111.754,-25.414 L-112.794,-25.075 L-113.828,-24.727 L-114.856,-24.373 L-115.878,-24.012 L-116.895,-23.645 L-117.906,-23.270 L-118.911,-22.889 L-119.910,-22.502 L-120.904,-22.109 L-121.892,-21.710 L-122.875,-21.305 L-123.853,-20.894 L-124.824,-20.478 L-125.791,-20.057 L-126.753,-19.630 L-127.709,-19.198 L-128.660,-18.761 L-129.607,-18.320 L-130.548,-17.873 L-131.485,-17.423 L-132.417,-16.968 L-133.345,-16.508 L-134.268,-16.045 L-135.187,-15.578 L-136.101,-15.107 L-137.012,-14.632 L-137.919,-14.154 L-138.821,-13.672 L-139.721,-13.187 L-140.616,-12.699 L-141.508,-12.208 L-142.397,-11.714 L-143.283,-11.218 L-144.165,-10.718 L-145.045,-10.217 L-145.922,-9.713 L-146.796,-9.206 L-147.668,-8.698 L-148.537,-8.188 L-149.405,-7.676 L-150.270,-7.162 L-151.133,-6.646 L-151.994,-6.129 L-152.854,-5.611 L-153.712,-5.091 L-154.569,-4.570 L-155.424,-4.048 L-156.279,-3.526 L-157.132,-3.002 L-157.985,-2.478 L-158.837,-1.953 L-159.688,-1.428 L-160.539,-0.903 L-161.390,-0.377 L-162.240,0.149 L-163.091,0.674 L-163.942,1.200 L-164.793,1.725 L-165.645,2.250 L-166.497,2.774 L-167.350,3.298 L-168.204,3.821 L-169.059,4.343 L-169.915,4.865 L-170.773,5.385 L-171.632,5.904 L-172.492,6.421 L-173.355,6.938 L-174.219,7.452 L-175.085,7.965 L-175.953,8.476 L-176.824,8.986 L-177.697,9.493 L-178.573,9.998 L-179.452,10.501 L179.667,11.001 L178.783,11.499 L177.895,11.994 L177.005,12.486 L176.111,12.975 L175.213,13.462 L174.312,13.945 L173.407,14.424 L172.498,14.901 L171.585,15.373 L170.668,15.842 L169.747,16.307 L168.821,16.768 L167.891,17.225 L166.956,17.678 L166.017,18.126 L165.072,18.570 L164.123,19.009 L163.169,19.443 L162.210,19.872 L161.246,20.296 L160.276,20.714 L159.301,21.127 L158.321,21.535 L157.335,21.936 L156.343,22.332 L155.346,22.722 L154.344,23.105 L153.335,23.483 L152.321,23.853 L151.301,24.217 L150.276,24.574 L149.244,24.924 L148.207,25.267 L147.164,25.603 L146.115,25.931 L145.060,26.252 L144,26.565 " />
		<path d="M-36,-26.565 L-35.347,-25.755 L-34.704,-24.941 L-34.068,-24.125 L-33.441,-23.306 L-32.822,-22.485 L-32.209,-21.662 L-31.604,-20.836 L-31.006,-20.008 L-30.413,-19.178 L-29.827,-18.347 L-29.246,-17.513 L-28.671,-16.678 L-28.100,-15.841 L-27.534,-15.003 L-26.973,-14.164 L-26.416,-13.323 L-25.862,-12.481 L-25.313,-11.637 L-24.766,-10.793 L-24.223,-9.948 L-23.682,-9.102 L-23.144,-8.255 L-22.609,-7.408 L-22.075,-6.559 L-21.543,-5.711 L-21.013,-4.861 L-20.484,-4.012 L-19.956,-3.162 L-19.429,-2.311 L-18.903,-1.461 L-18.377,-0.610 L-17.851,0.240 L-17.326,1.091 L-16.800,1.941 L-16.273,2.792 L-15.746,3.642 L-15.217,4.492 L-14.687,5.341 L-14.156,6.190 L-13.624,7.039 L-13.089,7.887 L-12.552,8.734 L-12.012,9.580 L-11.470,10.426 L-10.925,11.270 L-10.377,12.114 L-9.825,12.957 L-9.270,13.798 L-8.710,14.638 L-8.147,15.477 L-7.578,16.314 L-7.005,17.150 L-6.426,17.984 L-5.843,18.817 L-5.253,19.648 L-4.657,20.476 L-4.055,21.303 L-3.445,22.127 L-2.829,22.950 L-2.205,23.769 L-1.574,24.587 L-0.934,25.401 L-0.285,26.213 L0.373,27.022 L1.040,27.827 L1.717,28.630 L2.405,29.429 L3.104,30.224 L3.814,31.016 L4.535,31.804 L5.270,32.587 L6.017,33.367 L6.777,34.141 L7.552,34.911 L8.341,35.676 L9.145,36.436 L9.966,37.190 L10.802,37.938 L11.656,38.681 L12.528,39.417 L13.418,40.146 L14.328,40.868 L15.257,41.584 L16.207,42.291 L17.179,42.990 L18.173,43.681 L19.190,44.364 L20.230,45.037 L21.296,45.700 L22.386,46.353 L23.503,46.996 L24.647,47.627 L25.818,48.247 L27.018,48.854 L28.247,49.449 L29.506,50.031 L30.795,50.598 L32.116,51.151 L33.468,51.689 L34.852,52.211 L36.268,52.716 L37.717,53.204 L39.199,53.674 L40.714,54.126 L42.261,54.558 L43.840,54.969 L45.452,55.360 L47.095,55.729 L48.768,56.076 L50.470,56.400 L52.201,56.701 L53.958,56.976 L55.740,57.227 L57.546,57.453 L59.372,57.652 L61.218,57.824 L63.079,57.970 L64.955,58.088 L66.841,58.178 L68.736,58.241 L70.635,58.275 L72.537,58.281 L74.438,58.259 L76.336,58.209 L78.226,58.131 L80.107,58.025 L81.975,57.891 L83.827,57.730 L85.662,57.542 L87.477,57.328 L89.270,57.089 L91.038,56.824 L92.781,56.534 L94.495,56.220 L96.181,55.883 L97.837,55.523 L99.463,55.142 L101.056,54.739 L102.617,54.316 L104.146,53.873 L105.642,53.411 L107.105,52.931 L108.536,52.433 L109.934,51.918 L111.300,51.387 L112.634,50.841 L113.937,50.279 L115.209,49.704 L116.451,49.115 L117.664,48.513 L118.847,47.898 L120.003,47.272 L121.131,46.634 L122.233,45.985 L123.309,45.326 L124.361,44.658 L125.388,43.979 L126.392,43.292 L127.373,42.596 L128.332,41.892 L129.270,41.180 L130.188,40.461 L131.087,39.735 L131.967,39.002 L132.828,38.262 L133.672,37.516 L134.500,36.765 L135.311,36.007 L136.107,35.245 L136.888,34.477 L137.654,33.704 L138.407,32.927 L139.147,32.145 L139.874,31.359 L140.589,30.569 L141.292,29.775 L141.985,28.978 L142.667,28.177 L143.338,27.373 L144,26.565 " />
		<path d="M-36,-26.565 L-34.940,-26.252 L-33.885,-25.931 L-32.836,-25.603 L-31.793,-25.267 L-30.756,-24.924 L-29.724,-24.574 L-28.699,-24.217 L-27.679,-23.853 L-26.665,-23.483 L-25.656,-23.105 L-24.654,-22.722 L-23.657,-22.332 L-22.665,-21.936 L-21.679,-21.535 L-20.699,-21.127 L-19.724,-20.714 L-18.754,-20.296 L-17.790,-19.872 L-16.831,-19.443 L-15.877,-19.009 L-14.928,-18.570 L-13.983,-18.126 L-13.044,-17.678 L-12.109,-17.225 L-11.179,-16.768 L-10.253,-16.307 L-9.332,-15.842 L-8.415,-15.373 L-7.502,-14.901 L-6.593,-14.424 L-5.688,-13.945 L-4.787,-13.462 L-3.889,-12.975 L-2.995,-12.486 L-2.105,-11.994 L-1.217,-11.499 L-0.333,-11.001 L0.548,-10.501 L1.427,-9.998 L2.303,-9.493 L3.176,-8.986 L4.047,-8.476 L4.915,-7.965 L5.781,-7.452 L6.645,-6.938 L7.508,-6.421 L8.368,-5.904 L9.227,-5.385 L10.085,-4.865 L10.941,-4.343 L11.796,-3.821 L12.650,-3.298 L13.503,-2.774 L14.355,-2.250 L15.207,-1.725 L16.058,-1.200 L16.909,-0.674 L17.760,-0.149 L18.610,0.377 L19.461,0.903 L20.312,1.428 L21.163,1.953 L22.015,2.478 L22.868,3.002 L23.721,3.526 L24.576,4.048 L25.431,4.570 L26.288,5.091 L27.146,5.611 L28.006,6.129 L28.867,6.646 L29.730,7.162 L30.595,7.676 L31.463,8.188 L32.332,8.698 L33.204,9.206 L34.078,9.713 L34.955,10.217 L35.835,10.718 L36.717,11.218 L37.603,11.714 L38.492,12.208 L39.384,12.699 L40.279,13.187 L41.179,13.672 L42.081,14.154 L42.988,14.632 L43.899,15.107 L44.813,15.578 L45.732,16.045 L46.655,16.508 L47.583,16.968 L48.515,17.423 L49.452,17.873 L50.393,18.320 L51.340,18.761 L52.291,19.198 L53.247,19.630 L54.209,20.057 L55.176,20.478 L56.147,20.894 L57.125,21.305 L58.108,21.710 L59.096,22.109 L60.090,22.502 L61.089,22.889 L62.094,23.270 L63.105,23.645 L64.122,24.012 L65.144,24.373 L66.172,24.727 L67.206,25.075 L68.246,25.414 L69.292,25.747 L70.343,26.072 L71.400,26.389 L72.463,26.699 L73.532,27 L74.606,27.294 L75.686,27.579 L76.771,27.856 L77.862,28.124 L78.959,28.384 L80.060,28.634 L81.167,28.876 L82.279,29.109 L83.396,29.333 L84.518,29.547 L85.644,29.751 L86.775,29.947 L87.910,30.132 L89.049,30.308 L90.192,30.474 L91.339,30.629 L92.490,30.775 L93.644,30.910 L94.801,31.036 L95.961,31.150 L97.124,31.255 L98.289,31.349 L99.456,31.432 L100.626,31.505 L101.797,31.567 L102.969,31.619 L104.143,31.659 L105.317,31.689 L106.492,31.709 L107.668,31.717 L108.843,31.715 L110.019,31.702 L111.194,31.678 L112.368,31.643 L113.541,31.598 L114.713,31.541 L115.883,31.475 L117.052,31.397 L118.218,31.309 L119.382,31.211 L120.544,31.102 L121.703,30.982 L122.858,30.853 L124.011,30.713 L125.160,30.563 L126.305,30.403 L127.447,30.233 L128.585,30.053 L129.718,29.863 L130.847,29.664 L131.971,29.455 L133.090,29.236 L134.205,29.009 L135.315,28.772 L136.419,28.526 L137.519,28.272 L138.613,28.008 L139.701,27.736 L140.784,27.456 L141.862,27.167 L142.934,26.870 L144,26.565 " />
		<path d="M36,-26.565 L35.338,-27.373 L34.667,-28.177 L33.985,-28.978 L33.292,-29.775 L32.589,-30.569 L31.874,-31.359 L31.147,-32.145 L30.407,-32.927 L29.654,-33.704 L28.888,-34.477 L28.107,-35.245 L27.311,-36.007 L26.500,-36.765 L25.672,-37.516 L24.828,-38.262 L23.967,-39.002 L23.087,-39.735 L22.188,-40.461 L21.270,-41.180 L20.332,-41.892 L19.373,-42.596 L18.392,-43.292 L17.388,-43.979 L16.361,-44.658 L15.309,-45.326 L14.233,-45.985 L13.131,-46.634 L12.003,-47.272 L10.847,-47.898 L9.664,-48.513 L8.451,-49.115 L7.209,-49.704 L5.937,-50.279 L4.634,-50.841 L3.300,-51.387 L1.934,-51.918 L0.536,-52.433 L-0.895,-52.931 L-2.358,-53.411 L-3.854,-53.873 L-5.383,-54.316 L-6.944,-54.739 L-8.537,-55.142 L-10.163,-55.523 L-11.819,-55.883 L-13.505,-56.220 L-15.219,-56.534 L-16.962,-56.824 L-18.730,-57.089 L-20.523,-57.328 L-22.338,-57.542 L-24.173,-57.730 L-26.025,-57.891 L-27.893,-58.025 L-29.774,-58.131 L-31.664,-58.209 L-33.562,-58.259 L-35.463,-58.281 L-37.365,-58.275 L-39.264,-58.241 L-41.159,-58.178 L-43.045,-58.088 L-44.921,-57.970 L-46.782,-57.824 L-48.628,-57.652 L-50.454,-57.453 L-52.260,-57.227 L-54.042,-56.976 L-55.799,-56.701 L-57.530,-56.400 L-59.232,-56.076 L-60.905,-55.729 L-62.548,-55.360 L-64.160,-54.969 L-65.739,-54.558 L-67.286,-54.126 L-68.801,-53.674 L-70.283,-53.204 L-71.732,-52.716 L-73.148,-52.211 L-74.532,-51.689 L-75.884,-51.151 L-77.205,-50.598 L-78.494,-50.031 L-79.753,-49.449 L-80.982,-48.854 L-82.182,-48.247 L-83.353,-47.627 L-84.497,-46.996 L-85.614,-46.353 L-86.704,-45.700 L-87.770,-45.037 L-88.810,-44.364 L-89.827,-43.681 L-90.821,-42.990 L-91.793,-42.291 L-92.743,-41.584 L-93.672,-40.868 L-94.582,-40.146 L-95.472,-39.417 L-96.344,-38.681 L-97.198,-37.938 L-98.034,-37.190 L-98.855,-36.436 L-99.659,-35.676 L-100.448,-34.911 L-101.223,-34.141 L-101.983,-33.367 L-102.730,-32.587 L-103.465,-31.804 L-104.186,-31.016 L-104.896,-30.224 L-105.595,-29.429 L-106.283,-28.630 L-106.960,-27.827 L-107.627,-27.022 L-108.285,-26.213 L-108.934,-25.401 L-109.574,-24.587 L-110.205,-23.769 L-110.829,-22.950 L-111.445,-22.127 L-112.055,-21.303 L-112.657,-20.476 L-113.253,-19.648 L-113.843,-18.817 L-114.426,-17.984 L-115.005,-17.150 L-115.578,-16.314 L-116.147,-15.477 L-116.710,-14.638 L-117.270,-13.798 L-117.825,-12.957 L-118.377,-12.114 L-118.925,-11.270 L-119.470,-10.426 L-120.012,-9.580 L-120.552,-8.734 L-121.089,-7.887 L-121.624,-7.039 L-122.156,-6.190 L-122.687,-5.341 L-123.217,-4.492 L-123.746,-3.642 L-124.273,-2.792 L-124.800,-1.941 L-125.326,-1.091 L-125.851,-0.240 L-126.377,0.610 L-126.903,1.461 L-127.429,2.311 L-127.956,3.162 L-128.484,4.012 L-129.013,4.861 L-129.543,5.711 L-130.075,6.559 L-130.609,7.408 L-131.144,8.255 L-131.682,9.102 L-132.223,9.948 L-132.766,10.793 L-133.313,11.637 L-133.862,12.481 L-134.416,13.323 L-134.973,14.164 L-135.534,15.003 L-136.100,15.841 L-136.671,16.678 L-137.246,17.513 L-137.827,18.347 L-138.413,19.178 L-139.006,20.008 L-139.604,20.836 L-140.209,21.662 L-140.822,22.485 L-141.441,23.306 L-142.068,24.125 L-142.704,24.941 L-143.347,25.755 L-144,26.565 " />
		<path d="M36,-26.565 L34.934,-26.870 L33.862,-27.167 L32.784,-27.456 L31.701,-27.736 L30.613,-28.008 L29.519,-28.272 L28.419,-28.526 L27.315,-28.772 L26.205,-29.009 L25.090,-29.236 L23.971,-29.455 L22.847,-29.664 L21.718,-29.863 L20.585,-30.053 L19.447,-30.233 L18.305,-30.403 L17.160,-30.563 L16.011,-30.713 L14.858,-30.853 L13.703,-30.982 L12.544,-31.102 L11.382,-31.211 L10.218,-31.309 L9.052,-31.397 L7.883,-31.475 L6.713,-31.541 L5.541,-31.598 L4.368,-31.643 L3.194,-31.678 L2.019,-31.702 L0.843,-31.715 L-0.332,-31.717 L-1.508,-31.709 L-2.683,-31.689 L-3.857,-31.659 L-5.031,-31.619 L-6.203,-31.567 L-7.374,-31.505 L-8.544,-31.432 L-9.711,-31.349 L-10.876,-31.255 L-12.039,-31.150 L-13.199,-31.036 L-14.356,-30.910 L-15.510,-30.775 L-16.661,-30.629 L-17.808,-30.474 L-18.951,-30.308 L-20.090,-30.132 L-21.225,-29.947 L-22.356,-29.751 L-23.482,-29.547 L-24.604,-29.333 L-25.721,-29.109 L-26.833,-28.876 L-27.940,-28.634 L-29.041,-28.384 L-30.138,-28.124 L-31.229,-27.856 L-32.314,-27.579 L-33.394,-27.294 L-34.468,-27 L-35.537,-26.699 L-36.600,-26.389 L-37.657,-26.072 L-38.708,-25.747 L-39.754,-25.414 L-40.794,-25.075 L-41.828,-24.727 L-42.856,-24.373 L-43.878,-24.012 L-44.895,-23.645 L-45.906,-23.270 L-46.911,-22.889 L-47.910,-22.502 L-48.904,-22.109 L-49.892,-21.710 L-50.875,-21.305 L-51.853,-20.894 L-52.824,-20.478 L-53.791,-20.057 L-54.753,-19.630 L-55.709,-19.198 L-56.660,-18.761 L-57.607,-18.320 L-58.548,-17.873 L-59.485,-17.423 L-60.417,-16.968 L-61.345,-16.508 L-62.268,-16.045 L-63.187,-15.578 L-64.101,-15.107 L-65.012,-14.632 L-65.919,-14.154 L-66.821,-13.672 L-67.721,-13.187 L-68.616,-12.699 L-69.508,-12.208 L-70.397,-11.714 L-71.283,-11.218 L-72.165,-10.718 L-73.045,-10.217 L-73.922,-9.713 L-74.796,-9.206 L-75.668,-8.698 L-76.537,-8.188 L-77.405,-7.676 L-78.270,-7.162 L-79.133,-6.646 L-79.994,-6.129 L-80.854,-5.611 L-81.712,-5.091 L-82.569,-4.570 L-83.424,-4.048 L-84.279,-3.526 L-85.132,-3.002 L-85.985,-2.478 L-86.837,-1.953 L-87.688,-1.428 L-88.539,-0.903 L-89.390,-0.377 L-90.240,0.149 L-91.091,0.674 L-91.942,1.200 L-92.793,1.725 L-93.645,2.250 L-94.497,2.774 L-95.350,3.298 L-96.204,3.821 L-97.059,4.343 L-97.915,4.865 L-98.773,5.385 L-99.632,5.904 L-100.492,6.421 L-101.355,6.938 L-102.219,7.452 L-103.085,7.965 L-103.953,8.476 L-104.824,8.986 L-105.697,9.493 L-106.573,9.998 L-107.452,10.501 L-108.333,11.001 L-109.217,11.499 L-110.105,11.994 L-110.995,12.486 L-111.889,12.975 L-112.787,13.462 L-113.688,13.945 L-114.593,14.424 L-115.502,14.901 L-116.415,15.373 L-117.332,15.842 L-118.253,16.307 L-119.179,16.768 L-120.109,17.225 L-121.044,17.678 L-121.983,18.126 L-122.928,18.570 L-123.877,19.009 L-124.831,19.443 L-125.790,19.872 L-126.754,20.296 L-127.724,20.714 L-128.699,21.127 L-129.679,21.535 L-130.665,21.936 L-131.657,22.332 L-132.654,22.722 L-133.656,23.105 L-134.665,23.483 L-135.679,23.853 L-136.699,24.217 L-137.724,24.574 L-138.756,24.924 L-139.793,25.267 L-140.836,25.603 L-141.885,25.931 L-142.940,26.252 L-144,26.565 " />
		<path d="M36,-26.565 L36.653,-25.755 L37.296,-24.941 L37.932,-24.125 L38.559,-23.306 L39.178,-22.485 L39.791,-21.662 L40.396,-20.836 L40.994,-20.008 L41.587,-19.178 L42.173,-18.347 L42.754,-17.513 L43.329,-16.678 L43.900,-15.841 L44.466,-15.003 L45.027,-14.164 L45.584,-13.323 L46.138,-12.481 L46.687,-11.637 L47.234,-10.793 L47.777,-9.948 L48.318,-9.102 L48.856,-8.255 L49.391,-7.408 L49.925,-6.559 L50.457,-5.711 L50.987,-4.861 L51.516,-4.012 L52.044,-3.162 L52.571,-2.311 L53.097,-1.461 L53.623,-0.610 L54.149,0.240 L54.674,1.091 L55.200,1.941 L55.727,2.792 L56.254,3.642 L56.783,4.492 L57.313,5.341 L57.844,6.190 L58.376,7.039 L58.911,7.887 L59.448,8.734 L59.988,9.580 L60.530,10.426 L61.075,11.270 L61.623,12.114 L62.175,12.957 L62.730,13.798 L63.290,14.638 L63.853,15.477 L64.422,16.314 L64.995,17.150 L65.574,17.984 L66.157,18.817 L66.747,19.648 L67.343,20.476 L67.945,21.303 L68.555,22.127 L69.171,22.950 L69.795,23.769 L70.426,24.587 L71.066,25.401 L71.715,26.213 L72.373,27.022 L73.040,27.827 L73.717,28.630 L74.405,29.429 L75.104,30.224 L75.814,31.016 L76.535,31.804 L77.270,32.587 L78.017,33.367 L78.777,34.141 L79.552,34.911 L80.341,35.676 L81.145,36.436 L81.966,37.190 L82.802,37.938 L83.656,38.681 L84.528,39.417 L85.418,40.146 L86.328,40.868 L87.257,41.584 L88.207,42.291 L89.179,42.990 L90.173,43.681 L91.190,44.364 L92.230,45.037 L93.296,45.700 L94.386,46.353 L95.503,46.996 L96.647,47.627 L97.818,48.247 L99.018,48.854 L100.247,49.449 L101.506,50.031 L102.795,50.598 L104.116,51.151 L105.468,51.689 L106.852,52.211 L108.268,52.716 L109.717,53.204 L111.199,53.674 L112.714,54.126 L114.261,54.558 L115.840,54.969 L117.452,55.360 L119.095,55.729 L120.768,56.076 L122.470,56.400 L124.201,56.701 L125.958,56.976 L127.740,57.227 L129.546,57.453 L131.372,57.652 L133.218,57.824 L135.079,57.970 L136.955,58.088 L138.841,58.178 L140.736,58.241 L142.635,58.275 L144.537,58.281 L146.438,58.259 L148.336,58.209 L150.226,58.131 L152.107,58.025 L153.975,57.891 L155.827,57.730 L157.662,57.542 L159.477,57.328 L161.270,57.089 L163.038,56.824 L164.781,56.534 L166.495,56.220 L168.181,55.883 L169.837,55.523 L171.463,55.142 L173.056,54.739 L174.617,54.316 L176.146,53.873 L177.642,53.411 L179.105,52.931 L-179.464,52.433 L-178.066,51.918 L-176.700,51.387 L-175.366,50.841 L-174.063,50.279 L-172.791,49.704 L-171.549,49.115 L-170.336,48.513 L-169.153,47.898 L-167.997,47.272 L-166.869,46.634 L-165.767,45.985 L-164.691,45.326 L-163.639,44.658 L-162.612,43.979 L-161.608,43.292 L-160.627,42.596 L-159.668,41.892 L-158.730,41.180 L-157.812,40.461 L-156.913,39.735 L-156.033,39.002 L-155.172,38.262 L-154.328,37.516 L-153.500,36.765 L-152.689,36.007 L-151.893,35.245 L-151.112,34.477 L-150.346,33.704 L-149.593,32.927 L-148.853,32.145 L-148.126,31.359 L-147.411,30.569 L-146.708,29.775 L-146.015,28.978 L-145.333,28.177 L-144.662,27.373 L-144,26.565 " />
		<path d="M36,-26.565 L37.060,-26.252 L38.115,-25.931 L39.164,-25.603 L40.207,-25.267 L41.244,-24.924 L42.276,-24.574 L43.301,-24.217 L44.321,-23.853 L45.335,-23.483 L46.344,-23.105 L47.346,-22.722 L48.343,-22.332 L49.335,-21.936 L50.321,-21.535 L51.301,-21.127 L52.276,-20.714 L53.246,-20.296 L54.210,-19.872 L55.169,-19.443 L56.123,-19.009 L57.072,-18.570 L58.017,-18.126 L58.956,-17.678 L59.891,-17.225 L60.821,-16.768 L61.747,-16.307 L62.668,-15.842 L63.585,-15.373 L64.498,-14.901 L65.407,-14.424 L66.312,-13.945 L67.213,-13.462 L68.111,-12.975 L69.005,-12.486 L69.895,-11.994 L70.783,-11.499 L71.667,-11.001 L72.548,-10.501 L73.427,-9.998 L74.303,-9.493 L75.176,-8.986 L76.047,-8.476 L76.915,-7.965 L77.781,-7.452 L78.645,-6.938 L79.508,-6.421 L80.368,-5.904 L81.227,-5.385 L82.085,-4.865 L82.941,-4.343 L83.796,-3.821 L84.650,-3.298 L85.503,-2.774 L86.355,-2.250 L87.207,-1.725 L88.058,-1.200 L88.909,-0.674 L89.760,-0.149 L90.610,0.377 L91.461,0.903 L92.312,1.428 L93.163,1.953 L94.015,2.478 L94.868,3.002 L95.721,3.526 L96.576,4.048 L97.431,4.570 L98.288,5.091 L99.146,5.611 L100.006,6.129 L100.867,6.646 L101.730,7.162 L102.595,7.676 L103.463,8.188 L104.332,8.698 L105.204,9.206 L106.078,9.713 L106.955,10.217 L107.835,10.718 L108.717,11.218 L109.603,11.714 L110.492,12.208 L111.384,12.699 L112.279,13.187 L113.179,13.672 L114.081,14.154 L114.988,14.632 L115.899,15.107 L116.813,15.578 L117.732,16.045 L118.655,16.508 L119.583,16.968 L120.515,17.423 L121.452,17.873 L122.393,18.320 L123.340,18.761 L124.291,19.198 L125.247,19.630 L126.209,20.057 L127.176,20.478 L128.147,20.894 L129.125,21.305 L130.108,21.710 L131.096,22.109 L132.090,22.502 L133.089,22.889 L134.094,23.270 L135.105,23.645 L136.122,24.012 L137.144,24.373 L138.172,24.727 L139.206,25.075 L140.246,25.414 L141.292,25.747 L142.343,26.072 L143.400,26.389 L144.463,26.699 L145.532,27 L146.606,27.294 L147.686,27.579 L148.771,27.856 L149.862,28.124 L150.959,28.384 L152.060,28.634 L153.167,28.876 L154.279,29.109 L155.396,29.333 L156.518,29.547 L157.644,29.751 L158.775,29.947 L159.910,30.132 L161.049,30.308 L162.192,30.474 L163.339,30.629 L164.490,30.775 L165.644,30.910 L166.801,31.036 L167.961,31.150 L169.124,31.255 L170.289,31.349 L171.456,31.432 L172.626,31.505 L173.797,31.567 L174.969,31.619 L176.143,31.659 L177.317,31.689 L178.492,31.709 L179.668,31.717 L-179.157,31.715 L-177.981,31.702 L-176.806,31.678 L-175.632,31.643 L-174.459,31.598 L-173.287,31.541 L-172.117,31.475 L-170.948,31.397 L-169.782,31.309 L-168.618,31.211 L-167.456,31.102 L-166.297,30.982 L-165.142,30.853 L-163.989,30.713 L-162.840,30.563 L-161.695,30.403 L-160.553,30.233 L-159.415,30.053 L-158.282,29.863 L-157.153,29.664 L-156.029,29.455 L-154.910,29.236 L-153.795,29.009 L-152.685,28.772 L-151.581,28.526 L-150.481,28.272 L-149.387,28.008 L-148.299,27.736 L-147.216,27.456 L-146.138,27.167 L-145.066,26.870 L-144,26.565 " />
		<path d="M108,-26.565 L107.338,-27.373 L106.667,-28.177 L105.985,-28.978 L105.292,-29.775 L104.589,-30.569 L103.874,-31.359 L103.147,-32.145 L102.407,-32.927 L101.654,-33.704 L100.888,-34.477 L100.107,-35.245 L99.311,-36.007 L98.500,-36.765 L97.672,-37.516 L96.828,-38.262 L95.967,-39.002 L95.087,-39.735 L94.188,-40.461 L93.270,-41.180 L92.332,-41.892 L91.373,-42.596 L90.392,-43.292 L89.388,-43.979 L88.361,-44.658 L87.309,-45.326 L86.233,-45.985 L85.131,-46.634 L84.003,-47.272 L82.847,-47.898 L81.664,-48.513 L80.451,-49.115 L79.209,-49.704 L77.937,-50.279 L76.634,-50.841 L75.300,-51.387 L73.934,-51.918 L72.536,-52.433 L71.105,-52.931 L69.642,-53.411 L68.146,-53.873 L66.617,-54.316 L65.056,-54.739 L63.463,-55.142 L61.837,-55.523 L60.181,-55.883 L58.495,-56.220 L56.781,-56.534 L55.038,-56.824 L53.270,-57.089 L51.477,-57.328 L49.662,-57.542 L47.827,-57.730 L45.975,-57.891 L44.107,-58.025 L42.226,-58.131 L40.336,-58.209 L38.438,-58.259 L36.537,-58.281 L34.635,-58.275 L32.736,-58.241 L30.841,-58.178 L28.955,-58.088 L27.079,-57.970 L25.218,-57.824 L23.372,-57.652 L21.546,-57.453 L19.740,-57.227 L17.958,-56.976 L16.201,-56.701 L14.470,-56.400 L12.768,-56.076 L11.095,-55.729 L9.452,-55.360 L7.840,-54.969 L6.261,-54.558 L4.714,-54.126 L3.199,-53.674 L1.717,-53.204 L0.268,-52.716 L-1.148,-52.211 L-2.532,-51.689 L-3.884,-51.151 L-5.205,-50.598 L-6.494,-50.031 L-7.753,-49.449 L-8.982,-48.854 L-10.182,-48.247 L-11.353,-47.627 L-12.497,-46.996 L-13.614,-46.353 L-14.704,-45.700 L-15.770,-45.037 L-16.810,-44.364 L-17.827,-43.681 L-18.821,-42.990 L-19.793,-42.291 L-20.743,-41.584 L-21.672,-40.868 L-22.582,-40.146 L-23.472,-39.417 L-24.344,-38.681 L-25.198,-37.938 L-26.034,-37.190 L-26.855,-36.436 L-27.659,-35.676 L-28.448,-34.911 L-29.223,-34.141 L-29.983,-33.367 L-30.730,-32.587 L-31.465,-31.804 L-32.186,-31.016 L-32.896,-30.224 L-33.595,-29.429 L-34.283,-28.630 L-34.960,-27.827 L-35.627,-27.022 L-36.285,-26.213 L-36.934,-25.401 L-37.574,-24.587 L-38.205,-23.769 L-38.829,-22.950 L-39.445,-22.127 L-40.055,-21.303 L-40.657,-20.476 L-41.253,-19.648 L-41.843,-18.817 L-42.426,-17.984 L-43.005,-17.150 L-43.578,-16.314 L-44.147,-15.477 L-44.710,-14.638 L-45.270,-13.798 L-45.825,-12.957 L-46.377,-12.114 L-46.925,-11.270 L-47.470,-10.426 L-48.012,-9.580 L-48.552,-8.734 L-49.089,-7.887 L-49.624,-7.039 L-50.156,-6.190 L-50.687,-5.341 L-51.217,-4.492 L-51.746,-3.642 L-52.273,-2.792 L-52.800,-1.941 L-53.326,-1.091 L-53.851,-0.240 L-54.377,0.610 L-54.903,1.461 L-55.429,2.311 L-55.956,3.162 L-56.484,4.012 L-57.013,4.861 L-57.543,5.711 L-58.075,6.559 L-58.609,7.408 L-59.144,8.255 L-59.682,9.102 L-60.223,9.948 L-60.766,10.793 L-61.313,11.637 L-61.862,12.481 L-62.416,13.323 L-62.973,14.164 L-63.534,15.003 L-64.100,15.841 L-64.671,16.678 L-65.246,17.513 L-65.827,18.347 L-66.413,19.178 L-67.006,20.008 L-67.604,20.836 L-68.209,21.662 L-68.822,22.485 L-69.441,23.306 L-70.068,24.125 L-70.704,24.941 L-71.347,25.755 L-72,26.565 " />
		<path d="M108,-26.565 L106.934,-26.870 L105.862,-27.167 L104.784,-27.456 L103.701,-27.736 L102.613,-28.008 L101.519,-28.272 L100.419,-28.526 L99.315,-28.772 L98.205,-29.009 L97.090,-29.236 L95.971,-29.455 L94.847,-29.664 L93.718,-29.863 L92.585,-30.053 L91.447,-30.233 L90.305,-30.403 L89.160,-30.563 L88.011,-30.713 L86.858,-30.853 L85.703,-30.982 L84.544,-31.102 L83.382,-31.211 L82.218,-31.309 L81.052,-31.397 L79.883,-31.475 L78.713,-31.541 L77.541,-31.598 L76.368,-31.643 L75.194,-31.678 L74.019,-31.702 L72.843,-31.715 L71.668,-31.717 L70.492,-31.709 L69.317,-31.689 L68.143,-31.659 L66.969,-31.619 L65.797,-31.567 L64.626,-31.505 L63.456,-31.432 L62.289,-31.349 L61.124,-31.255 L59.961,-31.150 L58.801,-31.036 L57.644,-30.910 L56.490,-30.775 L55.339,-30.629 L54.192,-30.474 L53.049,-30.308 L51.910,-30.132 L50.775,-29.947 L49.644,-29.751 L48.518,-29.547 L47.396,-29.333 L46.279,-29.109 L45.167,-28.876 L44.060,-28.634 L42.959,-28.384 L41.862,-28.124 L40.771,-27.856 L39.686,-27.579 L38.606,-27.294 L37.532,-27 L36.463,-26.699 L35.400,-26.389 L34.343,-26.072 L33.292,-25.747 L32.246,-25.414 L31.206,-25.075 L30.172,-24.727 L29.144,-24.373 L28.122,-24.012 L27.105,-23.645 L26.094,-23.270 L25.089,-22.889 L24.090,-22.502 L23.096,-22.109 L22.108,-21.710 L21.125,-21.305 L20.147,-20.894 L19.176,-20.478 L18.209,-20.057 L17.247,-19.630 L16.291,-19.198 L15.340,-18.761 L14.393,-18.320 L13.452,-17.873 L12.515,-17.423 L11.583,-16.968 L10.655,-16.508 L9.732,-16.045 L8.813,-15.578 L7.899,-15.107 L6.988,-14.632 L6.081,-14.154 L5.179,-13.672 L4.279,-13.187 L3.384,-12.699 L2.492,-12.208 L1.603,-11.714 L0.717,-11.218 L-0.165,-10.718 L-1.045,-10.217 L-1.922,-9.713 L-2.796,-9.206 L-3.668,-8.698 L-4.537,-8.188 L-5.405,-7.676 L-6.270,-7.162 L-7.133,-6.646 L-7.994,-6.129 L-8.854,-5.611 L-9.712,-5.091 L-10.569,-4.570 L-11.424,-4.048 L-12.279,-3.526 L-13.132,-3.002 L-13.985,-2.478 L-14.837,-1.953 L-15.688,-1.428 L-16.539,-0.903 L-17.390,-0.377 L-18.240,0.149 L-19.091,0.674 L-19.942,1.200 L-20.793,1.725 L-21.645,2.250 L-22.497,2.774 L-23.350,3.298 L-24.204,3.821 L-25.059,4.343 L-25.915,4.865 L-26.773,5.385 L-27.632,5.904 L-28.492,6.421 L-29.355,6.938 L-30.219,7.452 L-31.085,7.965 L-31.953,8.476 L-32.824,8.986 L-33.697,9.493 L-34.573,9.998 L-35.452,10.501 L-36.333,11.001 L-37.217,11.499 L-38.105,11.994 L-38.995,12.486 L-39.889,12.975 L-40.787,13.462 L-41.688,13.945 L-42.593,14.424 L-43.502,14.901 L-44.415,15.373 L-45.332,15.842 L-46.253,16.307 L-47.179,16.768 L-48.109,17.225 L-49.044,17.678 L-49.983,18.126 L-50.928,18.570 L-51.877,19.009 L-52.831,19.443 L-53.790,19.872 L-54.754,20.296 L-55.724,20.714 L-56.699,21.127 L-57.679,21.535 L-58.665,21.936 L-59.657,22.332 L-60.654,22.722 L-61.656,23.105 L-62.665,23.483 L-63.679,23.853 L-64.699,24.217 L-65.724,24.574 L-66.756,24.924 L-67.793,25.267 L-68.836,25.603 L-69.885,25.931 L-70.940,26.252 L-72,26.565 " />
		<path d="M108,-26.565 L108.653,-25.755 L109.296,-24.941 L109.932,-24.125 L110.559,-23.306 L111.178,-22.485 L111.791,-21.662 L112.396,-20.836 L112.994,-20.008 L113.587,-19.178 L114.173,-18.347 L114.754,-17.513 L115.329,-16.678 L115.900,-15.841 L116.466,-15.003 L117.027,-14.164 L117.584,-13.323 L118.138,-12.481 L118.687,-11.637 L119.234,-10.793 L119.777,-9.948 L120.318,-9.102 L120.856,-8.255 L121.391,-7.408 L121.925,-6.559 L122.457,-5.711 L122.987,-4.861 L123.516,-4.012 L124.044,-3.162 L124.571,-2.311 L125.097,-1.461 L125.623,-0.610 L126.149,0.240 L126.674,1.091 L127.200,1.941 L127.727,2.792 L128.254,3.642 L128.783,4.492 L129.313,5.341 L129.844,6.190 L130.376,7.039 L130.911,7.887 L131.448,8.734 L131.988,9.580 L132.530,10.426 L133.075,11.270 L133.623,12.114 L134.175,12.957 L134.730,13.798 L135.290,14.638 L135.853,15.477 L136.422,16.314 L136.995,17.150 L137.574,17.984 L138.157,18.817 L138.747,19.648 L139.343,20.476 L139.945,21.303 L140.555,22.127 L141.171,22.950 L141.795,23.769 L142.426,24.587 L143.066,25.401 L143.715,26.213 L144.373,27.022 L145.040,27.827 L145.717,28.630 L146.405,29.429 L147.104,30.224 L147.814,31.016 L148.535,31.804 L149.270,32.587 L150.017,33.367 L150.777,34.141 L151.552,34.911 L152.341,35.676 L153.145,36.436 L153.966,37.190 L154.802,37.938 L155.656,38.681 L156.528,39.417 L157.418,40.146 L158.328,40.868 L159.257,41.584 L160.207,42.291 L161.179,42.990 L162.173,43.681 L163.190,44.364 L164.230,45.037 L165.296,45.700 L166.386,46.353 L167.503,46.996 L168.647,47.627 L169.818,48.247 L171.018,48.854 L172.247,49.449 L173.506,50.031 L174.795,50.598 L176.116,51.151 L177.468,51.689 L178.852,52.211 L-179.732,52.716 L-178.283,53.204 L-176.801,53.674 L-175.286,54.126 L-173.739,54.558 L-172.160,54.969 L-170.548,55.360 L-168.905,55.729 L-167.232,56.076 L-165.530,56.400 L-163.799,56.701 L-162.042,56.976 L-160.260,57.227 L-158.454,57.453 L-156.628,57.652 L-154.782,57.824 L-152.921,57.970 L-151.045,58.088 L-149.159,58.178 L-147.264,58.241 L-145.365,58.275 L-143.463,58.281 L-141.562,58.259 L-139.664,58.209 L-137.774,58.131 L-135.893,58.025 L-134.025,57.891 L-132.173,57.730 L-130.338,57.542 L-128.523,57.328 L-126.730,57.089 L-124.962,56.824 L-123.219,56.534 L-121.505,56.220 L-119.819,55.883 L-118.163,55.523 L-116.537,55.142 L-114.944,54.739 L-113.383,54.316 L-111.854,53.873 L-110.358,53.411 L-108.895,52.931 L-107.464,52.433 L-106.066,51.918 L-104.700,51.387 L-103.366,50.841 L-102.063,50.279 L-100.791,49.704 L-99.549,49.115 L-98.336,48.513 L-97.153,47.898 L-95.997,47.272 L-94.869,46.634 L-93.767,45.985 L-92.691,45.326 L-91.639,44.658 L-90.612,43.979 L-89.608,43.292 L-88.627,42.596 L-87.668,41.892 L-86.730,41.180 L-85.812,40.461 L-84.913,39.735 L-84.033,39.002 L-83.172,38.262 L-82.328,37.516 L-81.500,36.765 L-80.689,36.007 L-79.893,35.245 L-79.112,34.477 L-78.346,33.704 L-77.593,32.927 L-76.853,32.145 L-76.126,31.359 L-75.411,30.569 L-74.708,29.775 L-74.015,28.978 L-73.333,28.177 L-72.662,27.373 L-72,26.565 " />
		<path d="M108,-26.565 L109.060,-26.252 L110.115,-25.931 L111.164,-25.603 L112.207,-25.267 L113.244,-24.924 L114.276,-24.574 L115.301,-24.217 L116.321,-23.853 L117.335,-23.483 L118.344,-23.105 L119.346,-22.722 L120.343,-22.332 L121.335,-21.936 L122.321,-21.535 L123.301,-21.127 L124.276,-20.714 L125.246,-20.296 L126.210,-19.872 L127.169,-19.443 L128.123,-19.009 L129.072,-18.570 L130.017,-18.126 L130.956,-17.678 L131.891,-17.225 L132.821,-16.768 L133.747,-16.307 L134.668,-15.842 L135.585,-15.373 L136.498,-14.901 L137.407,-14.424 L138.312,-13.945 L139.213,-13.462 L140.111,-12.975 L141.005,-12.486 L141.895,-11.994 L142.783,-11.499 L143.667,-11.001 L144.548,-10.501 L145.427,-9.998 L146.303,-9.493 L147.176,-8.986 L148.047,-8.476 L148.915,-7.965 L149.781,-7.452 L150.645,-6.938 L151.508,-6.421 L152.368,-5.904 L153.227,-5.385 L154.085,-4.865 L154.941,-4.343 L155.796,-3.821 L156.650,-3.298 L157.503,-2.774 L158.355,-2.250 L159.207,-1.725 L160.058,-1.200 L160.909,-0.674 L161.760,-0.149 L162.610,0.377 L163.461,0.903 L164.312,1.428 L165.163,1.953 L166.015,2.478 L166.868,3.002 L167.721,3.526 L168.576,4.048 L169.431,4.570 L170.288,5.091 L171.146,5.611 L172.006,6.129 L172.867,6.646 L173.730,7.162 L174.595,7.676 L175.463,8.188 L176.332,8.698 L177.204,9.206 L178.078,9.713 L178.955,10.217 L179.835,10.718 L-179.283,11.218 L-178.397,11.714 L-177.508,12.208 L-176.616,12.699 L-175.721,13.187 L-174.821,13.672 L-173.919,14.154 L-173.012,14.632 L-172.101,15.107 L-171.187,15.578 L-170.268,16.045 L-169.345,16.508 L-168.417,16.968 L-167.485,17.423 L-166.548,17.873 L-165.607,18.320 L-164.660,18.761 L-163.709,19.198 L-162.753,19.630 L-161.791,20.057 L-160.824,20.478 L-159.853,20.894 L-158.875,21.305 L-157.892,21.710 L-156.904,22.109 L-155.910,22.502 L-154.911,22.889 L-153.906,23.270 L-152.895,23.645 L-151.878,24.012 L-150.856,24.373 L-149.828,24.727 L-148.794,25.075 L-147.754,25.414 L-146.708,25.747 L-145.657,26.072 L-144.600,26.389 L-143.537,26.699 L-142.468,27 L-141.394,27.294 L-140.314,27.579 L-139.229,27.856 L-138.138,28.124 L-137.041,28.384 L-135.940,28.634 L-134.833,28.876 L-133.721,29.109 L-132.604,29.333 L-131.482,29.547 L-130.356,29.751 L-129.225,29.947 L-128.090,30.132 L-126.951,30.308 L-125.808,30.474 L-124.661,30.629 L-123.510,30.775 L-122.356,30.910 L-121.199,31.036 L-120.039,31.150 L-118.876,31.255 L-117.711,31.349 L-116.544,31.432 L-115.374,31.505 L-114.203,31.567 L-113.031,31.619 L-111.857,31.659 L-110.683,31.689 L-109.508,31.709 L-108.332,31.717 L-107.157,31.715 L-105.981,31.702 L-104.806,31.678 L-103.632,31.643 L-102.459,31.598 L-101.287,31.541 L-100.117,31.475 L-98.948,31.397 L-97.782,31.309 L-96.618,31.211 L-95.456,31.102 L-94.297,30.982 L-93.142,30.853 L-91.989,30.713 L-90.840,30.563 L-89.695,30.403 L-88.553,30.233 L-87.415,30.053 L-86.282,29.863 L-85.153,29.664 L-84.029,29.455 L-82.910,29.236 L-81.795,29.009 L-80.685,28.772 L-79.581,28.526 L-78.481,28.272 L-77.387,28.008 L-76.299,27.736 L-75.216,27.456 L-74.138,27.167 L-73.066,26.870 L-72,26.565 " />
	</g>
</svg>
