<?xml version="1.0" encoding="UTF-8" standalone="no"?>
<!DOCTYPE svg PUBLIC "-//W3C//DTD SVG 1.1//EN" "http://www.w3.org/Graphics/SVG/1.1/DTD/svg11.dtd">
<svg xmlns="http://www.w3.org/2000/svg" version="1.1" width="1200px" height="600px" viewBox="-180 -90 360 180" >
  <g style="fill:none;stroke:#000000;stroke-width:1px">
    <path d="M0.000,90.000 L0.000,89.000 L0.000,88.000 L0.000,87.000 L0.000,86.000 L0.000,85.000 L0.000,84.000 L0.000,83.000 L0.000,82.000 L0.000,81.000 L0.000,80.000 L0.000,79.000 L0.000,78.000 L0.000,77.000 L0.000,76.000 L0.000,75.000 L0.000,74.000 L0.000,73.000 L0.000,72.000 L0.000,71.000 L0.000,70.000 L0.000,69.000 L0.000,68.000 L0.000,67.000 L0.000,66.000 L0.000,65.000 L0.000,64.000 L0.000,63.000 L0.000,62.000 L0.000,61.000 L0.000,60.000 L0.000,59.000 L0.000,58.000 L0.000,57.000 L0.000,56.000 L0.000,55.000 L0.000,54.000 L0.000,53.000 L0.000,52.000 L0.000,51.000 L0.000,50.000 L0.000,49.000 L0.000,48.000 L0.000,47.000 L0.000,46.000 L0.000,45.000 L0.000,44.000 L0.000,43.000 L0.000,42.000 L0.000,41.000 L0.000,40.000 L0.000,39.000 L0.000,38.000 L0.000,37.000 L0.000,36.000 L0.000,35.000 L0.000,34.000 L0.000,33.000 L0.000,32.000 L0.000,31.000 L0.000,30.000 L0.000,29.000 L0.000,28.000 L0.000,27.000 L0.000,26.000 L0.000,25.000 L0.000,24.000 L0.000,23.000 L0.000,22.000 L0.000,21.000 L0.000,20.000 L0.000,19.000 L0.000,18.000 L0.000,17.000 L0.000,16.000 L0.000,15.000 L0.000,14.000 L0.000,13.000 L0.000,12.000 L0.000,11.000 L0.000,10.000 L0.000,9.000 L0.000,8.000 L0.000,7.000 L0.000,6.000 L0.000,5.000 L0.000,4.000 L0.000,3.000 L0.000,2.000 L0.000,1.000 L0.000,-0.000 L0.000,-1.000 L0.000,-2.000 L0.000,-3.000 L0.000,-4.000 L0.000,-5.000 L0.000,-6.000 L0.000,-7.000 L0.000,-8.000 L0.000,-9.000 L0.000,-10.000 L0.000,-11.000 L0.000,-12.000 L0.000,-13.000 L0.000,-14.000 L0.000,-15.000 L0.000,-16.000 L0.000,-17.000 L0.000,-18.000 L0.000,-19.000 L0.000,-20.000 L0.000,-21.000 L0.000,-22.000 L0.000,-23.000 L0.000,-24.000 L0.000,-25.000 L0.000,-26.000 L0.000,-27.000 L0.000,-28.000 L0.000,-29.000 L0.000,-30.000 L0.000,-31.000 L0.000,-32.000 L0.000,-33.000 L0.000,-34.000 L0.000,-35.000 L0.000,-36.000 L0.000,-37.000 L0.000,-38.000 L0.000,-39.000 L0.000,-40.000 L0.000,-41.000 L0.000,-42.000 L0.000,-43.000 L0.000,-44.000 L0.000,-45.000 L0.000,-46.000 L0.000,-47.000 L0.000,-48.000 L0.000,-49.000 L0.000,-50.000 L0.000,-51.000 L0.000,-52.000 L0.000,-53.000 L0.000,-54.000 L0.000,-55.000 L0.000,-56.000 L0.000,-57.000 L0.000,-58.000 L0.000,-59.000 L0.000,-60.000 L0.000,-61.000 L0.000,-62.000 L0.000,-63.000 L0.000,-64.000 L0.000,-65.000 L0.000,-66.000 L0.000,-67.000 L0.000,-68.000 L0.000,-69.000 L0.000,-70.000 L0.000,-71.000 L0.000,-72.000 L0.000,-73.000 L0.000,-74.000 L0.000,-75.000 L0.000,-76.000 L0.000,-77.000 L0.000,-78.000 L0.000,-79.000 L0.000,-80.000 L0.000,-81.000 L0.000,-82.000 L0.000,-83.000 L0.000,-84.000 L0.000,-85.000 L0.000,-86.000 L0.000,-87.000 L0.000,-88.000 L0.000,-89.000 L180.000,-90.000 L180.000,-89.000 L180.000,-88.000 L180.000,-87.000 L180.000,-86.000 L180.000,-85.000 L180.000,-84.000 L180.000,-83.000 L180.000,-82.000 L180.000,-81.000 L180.000,-80.000 L180.000,-79.000 L180.000,-78.000 L180.000,-77.000 L180.000,-76.000 L180.000,-75.000 L180.000,-74.000 L180.000,-73.000 L180.000,-72.000 L180.000,-71.000 L180.000,-70.000 L180.000,-69.000 L180.000,-68.000 L180.000,-67.000 L180.000,-66.000 L180.000,-65.000 L180.000,-64.000 L180.000,-63.000 L180.000,-62.000 L180.000,-61.000 L180.000,-60.000 L180.000,-59.000 L180.000,-58.000 L180.000,-57.000 L180.000,-56.000 L180.000,-55.000 L180.000,-54.000 L180.000,-53.000 L180.000,-52.000 L180.000,-51.000 L180.000,-50.000 L180.000,-49.000 L180.000,-48.000 L180.000,-47.000 L180.000,-46.000 L180.000,-45.000 L180.000,-44.000 L180.000,-43.000 L180.000,-42.000 L180.000,-41.000 L180.000,-40.000 L180.000,-39.000 L180.000,-38.000 L180.000,-37.000 L180.000,-36.000 L180.000,-35.000 L180.000,-34.000 L180.000,-33.000 L180.000,-32.000 L180.000,-31.000 L180.000,-30.000 L180.000,-29.000 L180.000,-28.000 L180.000,-27.000 L180.000,-26.000 L180.000,-25.000 L180.000,-24.000 L180.000,-23.000 L180.000,-22.000 L180.000,-21.000 L180.000,-20.000 L180.000,-19.000 L180.000,-18.000 L180.000,-17.000 L180.000,-16.000 L180.000,-15.000 L180.000,-14.000 L180.000,-13.000 L180.000,-12.000 L180.000,-11.000 L180.000,-10.000 L180.000,-9.000 L180.000,-8.000 L180.000,-7.000 L180.000,-6.000 L180.000,-5.000 L180.000,-4.000 L180.000,-3.000 L180.000,-2.000 L180.000,-1.000 L180.000,0.000 L180.000,1.000 L180.000,2.000 L180.000,3.000 L180.000,4.000 L180.000,5.000 L180.000,6.000 L180.000,7.000 L180.000,8.000 L180.000,9.000 L180.000,10.000 L180.000,11.000 L180.000,12.000 L180.000,13.000 L180.000,14.000 L180.000,15.000 L180.000,16.000 L180.000,17.000 L180.000,18.000 L180.000,19.000 L180.000,20.000 L180.000,21.000 L180.000,22.000 L180.000,23.000 L180.000,24.000 L180.000,25.000 L180.000,26.000 L180.000,27.000 L180.000,28.000 L180.000,29.000 L180.000,30.000 L180.000,31.000 L180.000,32.000 L180.000,33.000 L180.000,34.000 L180.000,35.000 L180.000,36.000 L180.000,37.000 L180.000,38.000 L180.000,39.000 L180.000,40.000 L180.000,41.000 L180.000,42.000 L180.000,43.000 L180.000,44.000 L180.000,45.000 L180.000,46.000 L180.000,47.000 L180.000,48.000 L180.000,49.000 L180.000,50.000 L180.000,51.000 L180.000,52.000 L180.000,53.000 L180.000,54.000 L180.000,55.000 L180.000,56.000 L180.000,57.000 L180.000,58.000 L180.000,59.000 L180.000,60.000 L180.000,61.000 L180.000,62.000 L180.000,63.000 L180.000,64.000 L180.000,65.000 L180.000,66.000 L180.000,67.000 L180.000,68.000 L180.000,69.000 L180.000,70.000 L180.000,71.000 L180.000,72.000 L180.000,73.000 L180.000,74.000 L180.000,75.000 L180.000,76.000 L180.000,77.000 L180.000,78.000 L180.000,79.000 L180.000,80.000 L180.000,81.000 L180.000,82.000 L180.000,83.000 L180.000,84.000 L180.000,85.000 L180.000,86.000 L180.000,87.000 L180.000,88.000 L180.000,89.000 Z"/>
    <path d="M36.000,90.000 L36.000,89.000 L36.000,88.000 L36.000,87.000 L36.000,86.000 L36.000,85.000 L36.000,84.000 L36.000,83.000 L36.000,82.000 L36.000,81.000 L36.000,80.000 L36.000,79.000 L36.000,78.000 L36.000,77.000 L36.000,76.000 L36.000,75.000 L36.000,74.000 L36.000,73.000 L36.000,72.000 L36.000,71.000 L36.000,70.000 L36.000,69.000 L36.000,68.000 L36.000,67.000 L36.000,66.000 L36.000,65.000 L36.000,64.000 L36.000,63.000 L36.000,62.000 L36.000,61.000 L36.000,60.000 L36.000,59.000 L36.000,58.000 L36.000,57.000 L36.000,56.000 L36.000,55.000 L36.000,54.000 L36.000,53.000 L36.000,52.000 L36.000,51.000 L36.000,50.000 L36.000,49.000 L36.000,48.000 L36.000,47.000 L36.000,46.000 L36.000,45.000 L36.000,44.000 L36.000,43.000 L36.000,42.000 L36.000,41.000 L36.000,40.000 L36.000,39.000 L36.000,38.000 L36.000,37.000 L36.000,36.000 L36.000,35.000 L36.000,34.000 L36.000,33.000 L36.000,32.000 L36.000,31.000 L36.000,30.000 L36.000,29.000 L36.000,28.000 L36.000,27.000 L36.000,26.000 L36.000,25.000 L36.000,24.000 L36.000,23.000 L36.000,22.000 L36.000,21.000 L36.000,20.000 L36.000,19.000 L36.000,18.000 L36.000,17.000 L36.000,16.000 L36.000,15.000 L36.000,14.000 L36.000,13.000 L36.000,12.000 L36.000,11.000 L36.000,10.000 L36.000,9.000 L36.000,8.000 L36.000,7.000 L36.000,6.000 L36.000,5.000 L36.000,4.000 L36.000,3.000 L36.000,2.000 L36.000,1.000 L36.000,-0.000 L36.000,-1.000 L36.000,-2.000 L36.000,-3.000 L36.000,-4.000 L36.000,-5.000 L36.000,-6.000 L36.000,-7.000 L36.000,-8.000 L36.000,-9.000 L36.000,-10.000 L36.000,-11.000 L36.000,-12.000 L36.000,-13.000 L36.000,-14.000 L36.000,-15.000 L36.000,-16.000 L36.000,-17.000 L36.000,-18.000 L36.000,-19.000 L36.000,-20.000 L36.000,-21.000 L36.000,-22.000 L36.000,-23.000 L36.000,-24.000 L36.000,-25.000 L36.000,-26.000 L36.000,-27.000 L36.000,-28.000 L36.000,-29.000 L36.000,-30.000 L36.000,-31.000 L36.000,-32.000 L36.000,-33.000 L36.000,-34.000 L36.000,-35.000 L36.000,-36.000 L36.000,-37.000 L36.000,-38.000 L36.000,-39.000 L36.000,-40.000 L36.000,-41.000 L36.000,-42.000 L36.000,-43.000 L36.000,-44.000 L36.000,-45.000 L36.000,-46.000 L36.000,-47.000 L36.000,-48.000 L36.000,-49.000 L36.000,-50.000 L36.000,-51.000 L36.000,-52.000 L36.000,-53.000 L36.000,-54.000 L36.000,-55.000 L36.000,-56.000 L36.000,-57.000 L36.000,-58.000 L36.000,-59.000 L36.000,-60.000 L36.000,-61.000 L36.000,-62.000 L36.000,-63.000 L36.000,-64.000 L36.000,-65.000 L36.000,-66.000 L36.000,-67.000 L36.000,-68.000 L36.000,-69.000 L36.000,-70.000 L36.000,-71.000 L36.000,-72.000 L36.000,-73.000 L36.000,-74.000 L36.000,-75.000 L36.000,-76.000 L36.000,-77.000 L36.000,-78.000 L36.000,-79.000 L36.000,-80.000 L36.000,-81.000 L36.000,-82.000 L36.000,-83.000 L36.000,-84.000 L36.000,-85.000 L36.000,-86.000 L36.000,-87.000 L36.000,-88.000 L36.000,-89.000 L216.000,-90.000 L216.000,-89.000 L216.000,-88.000 L216.000,-87.000 L216.000,-86.000 L216.000,-85.000 L216.000,-84.000 L216.000,-83.000 L216.000,-82.000 L216.000,-81.000 L216.000,-80.000 L216.000,-79.000 L216.000,-78.000 L216.000,-77.000 L216.000,-76.000 L216.000,-75.000 L216.000,-74.000 L216.000,-73.000 L216.000,-72.000 L216.000,-71.000 L216.000,-70.000 L216.000,-69.000 L216.000,-68.000 L216.000,-67.000 L216.000,-66.000 L216.000,-65.000 L216.000,-64.000 L216.000,-63.000 L216.000,-62.000 L216.000,-61.000 L216.000,-60.000 L216.000,-59.000 L216.000,-58.000 L216.000,-57.000 L216.000,-56.000 L216.000,-55.000 L216.000,-54.000 L216.000,-53.000 L216.000,-52.000 L216.000,-51.000 L216.000,-50.000 L216.000,-49.000 L216.000,-48.000 L216.000,-47.000 L216.000,-46.000 L216.000,-45.000 L216.000,-44.000 L216.000,-43.000 L216.000,-42.000 L216.000,-41.000 L216.000,-40.000 L216.000,-39.000 L216.000,-38.000 L216.000,-37.000 L216.000,-36.000 L216.000,-35.000 L216.000,-34.000 L216.000,-33.000 L216.000,-32.000 L216.000,-31.000 L216.000,-30.000 L216.000,-29.000 L216.000,-28.000 L216.000,-27.000 L216.000,-26.000 L216.000,-25.000 L216.000,-24.000 L216.000,-23.000 L216.000,-22.000 L216.000,-21.000 L216.000,-20.000 L216.000,-19.000 L216.000,-18.000 L216.000,-17.000 L216.000,-16.000 L216.000,-15.000 L216.000,-14.000 L216.000,-13.000 L216.000,-12.000 L216.000,-11.000 L216.000,-10.000 L216.000,-9.000 L216.000,-8.000 L216.000,-7.000 L216.000,-6.000 L216.000,-5.000 L216.000,-4.000 L216.000,-3.000 L216.000,-2.000 L216.000,-1.000 L216.000,0.000 L216.000,1.000 L216.000,2.000 L216.000,3.000 L216.000,4.000 L216.000,5.000 L216.000,6.000 L216.000,7.000 L216.000,8.000 L216.000,9.000 L216.000,10.000 L216.000,11.000 L216.000,12.000 L216.000,13.000 L216.000,14.000 L216.000,15.000 L216.000,16.000 L216.000,17.000 L216.000,18.000 L216.000,19.000 L216.000,20.000 L216.000,21.000 L216.000,22.000 L216.000,23.000 L216.000,24.000 L216.000,25.000 L216.000,26.000 L216.000,27.000 L216.000,28.000 L216.000,29.000 L216.000,30.000 L216.000,31.000 L216.000,32.000 L216.000,33.000 L216.000,34.000 L216.000,35.000 L216.000,36.000 L216.000,37.000 L216.000,38.000 L216.000,39.000 L216.000,40.000 L216.000,41.000 L216.000,42.000 L216.000,43.000 L216.000,44.000 L216.000,45.000 L216.000,46.000 L216.000,47.000 L216.000,48.000 L216.000,49.000 L216.000,50.000 L216.000,51.000 L216.000,52.000 L216.000,53.000 L216.000,54.000 L216.000,55.000 L216.000,56.000 L216.000,57.000 L216.000,58.000 L216.000,59.000 L216.000,60.000 L216.000,61.000 L216.000,62.000 L216.000,63.000 L216.000,64.000 L216.000,65.000 L216.000,66.000 L216.000,67.000 L216.000,68.000 L216.000,69.000 L216.000,70.000 L216.000,71.000 L216.000,72.000 L216.000,73.000 L216.000,74.000 L216.000,75.000 L216.000,76.000 L216.000,77.000 L216.000,78.000 L216.000,79.000 L216.000,80.000 L216.000,81.000 L216.000,82.000 L216.000,83.000 L216.000,84.000 L216.000,85.000 L216.000,86.000 L216.000,87.000 L216.000,88.000 L216.000,89.000 Z"/>
    <path d="M72.000,90.000 L72.000,89.000 L72.000,88.000 L72.000,87.000 L72.000,86.000 L72.000,85.000 L72.000,84.000 L72.000,83.000 L72.000,82.000 L72.000,81.000 L72.000,80.000 L72.000,79.000 L72.000,78.000 L72.000,77.000 L72.000,76.000 L72.000,75.000 L72.000,74.000 L72.000,73.000 L72.000,72.000 L72.000,71.000 L72.000,70.000 L72.000,69.000 L72.000,68.000 L72.000,67.000 L72.000,66.000 L72.000,65.000 L72.000,64.000 L72.000,63.000 L72.000,62.000 L72.000,61.000 L72.000,60.000 L72.000,59.000 L72.000,58.000 L72.000,57.000 L72.000,56.000 L72.000,55.000 L72.000,54.000 L72.000,53.000 L72.000,52.000 L72.000,51.000 L72.000,50.000 L72.000,49.000 L72.000,48.000 L72.000,47.000 L72.000,46.000 L72.000,45.000 L72.000,44.000 L72.000,43.000 L72.000,42.000 L72.000,41.000 L72.000,40.000 L72.000,39.000 L72.000,38.000 L72.000,37.000 L72.000,36.000 L72.000,35.000 L72.000,34.000 L72.000,33.000 L72.000,32.000 L72.000,31.000 L72.000,30.000 L72.000,29.000 L72.000,28.000 L72.000,27.000 L72.000,26.000 L72.000,25.000 L72.000,24.000 L72.000,23.000 L72.000,22.000 L72.000,21.000 L72.000,20.000 L72.000,19.000 L72.000,18.000 L72.000,17.000 L72.000,16.000 L72.000,15.000 L72.000,14.000 L72.000,13.000 L72.000,12.000 L72.000,11.000 L72.000,10.000 L72.000,9.000 L72.000,8.000 L72.000,7.000 L72.000,6.000 L72.000,5.000 L72.000,4.000 L72.000,3.000 L72.000,2.000 L72.000,1.000 L72.000,-0.000 L72.000,-1.000 L72.000,-2.000 L72.000,-3.000 L72.000,-4.000 L72.000,-5.000 L72.000,-6.000 L72.000,-7.000 L72.000,-8.000 L72.000,-9.000 L72.000,-10.000 L72.000,-11.000 L72.000,-12.000 L72.000,-13.000 L72.000,-14.000 L72.000,-15.000 L72.000,-16.000 L72.000,-17.000 L72.000,-18.000 L72.000,-19.000 L72.000,-20.000 L72.000,-21.000 L72.000,-22.000 L72.000,-23.000 L72.000,-24.000 L72.000,-25.000 L72.000,-26.000 L72.000,-27.000 L72.000,-28.000 L72.000,-29.000 L72.000,-30.000 L72.000,-31.000 L72.000,-32.000 L72.000,-33.000 L72.000,-34.000 L72.000,-35.000 L72.000,-36.000 L72.000,-37.000 L72.000,-38.000 L72.000,-39.000 L72.000,-40.000 L72.000,-41.000 L72.000,-42.000 L72.000,-43.000 L72.000,-44.000 L72.000,-45.000 L72.000,-46.000 L72.000,-47.000 L72.000,-48.000 L72.000,-49.000 L72.000,-50.000 L72.000,-51.000 L72.000,-52.000 L72.000,-53.000 L72.000,-54.000 L72.000,-55.000 L72.000,-56.000 L72.000,-57.000 L72.000,-58.000 L72.000,-59.000 L72.000,-60.000 L72.000,-61.000 L72.000,-62.000 L72.000,-63.000 L72.000,-64.000 L72.000,-65.000 L72.000,-66.000 L72.000,-67.000 L72.000,-68.000 L72.000,-69.000 L72.000,-70.000 L72.000,-71.000 L72.000,-72.000 L72.000,-73.000 L72.000,-74.000 L72.000,-75.000 L72.000,-76.000 L72.000,-77.000 L72.000,-78.000 L72.000,-79.000 L72.000,-80.000 L72.000,-81.000 L72.000,-82.000 L72.000,-83.000 L72.000,-84.000 L72.000,-85.000 L72.000,-86.000 L72.000,-87.000 L72.000,-88.000 L72.000,-89.000 L252.000,-90.000 L252.000,-89.000 L252.000,-88.000 L252.000,-87.000 L252.000,-86.000 L252.000,-85.000 L252.000,-84.000 L252.000,-83.000 L252.000,-82.000 L252.000,-81.000 L252.000,-80.000 L252.000,-79.000 L252.000,-78.000 L252.000,-77.000 L252.000,-76.000 L252.000,-75.000 L252.000,-74.000 L252.000,-73.000 L252.000,-72.000 L252.000,-71.000 L252.000,-70.000 L252.000,-69.000 L252.000,-68.000 L252.000,-67.000 L252.000,-66.000 L252.000,-65.000 L252.000,-64.000 L252.000,-63.000 L252.000,-62.000 L252.000,-61.000 L252.000,-60.000 L252.000,-59.000 L252.000,-58.000 L252.000,-57.000 L252.000,-56.000 L252.000,-55.000 L252.000,-54.000 L252.000,-53.000 L252.000,-52.000 L252.000,-51.000 L252.000,-50.000 L252.000,-49.000 L252.000,-48.000 L252.000,-47.000 L252.000,-46.000 L252.000,-45.000 L252.000,-44.000 L252.000,-43.000 L252.000,-42.000 L252.000,-41.000 L252.000,-40.000 L252.000,-39.000 L252.000,-38.000 L252.000,-37.000 L252.000,-36.000 L252.000,-35.000 L252.000,-34.000 L252.000,-33.000 L252.000,-32.000 L252.000,-31.000 L252.000,-30.000 L252.000,-29.000 L252.000,-28.000 L252.000,-27.000 L252.000,-26.000 L252.000,-25.000 L252.000,-24.000 L252.000,-23.000 L252.000,-22.000 L252.000,-21.000 L252.000,-20.000 L252.000,-19.000 L252.000,-18.000 L252.000,-17.000 L252.000,-16.000 L252.000,-15.000 L252.000,-14.000 L252.000,-13.000 L252.000,-12.000 L252.000,-11.000 L252.000,-10.000 L252.000,-9.000 L252.000,-8.000 L252.000,-7.000 L252.000,-6.000 L252.000,-5.000 L252.000,-4.000 L252.000,-3.000 L252.000,-2.000 L252.000,-1.000 L252.000,0.000 L252.000,1.000 L252.000,2.000 L252.000,3.000 L252.000,4.000 L252.000,5.000 L252.000,6.000 L252.000,7.000 L252.000,8.000 L252.000,9.000 L252.000,10.000 L252.000,11.000 L252.000,12.000 L252.000,13.000 L252.000,14.000 L252.000,15.000 L252.000,16.000 L252.000,17.000 L252.000,18.000 L252.000,19.000 L252.000,20.000 L252.000,21.000 L252.000,22.000 L252.000,23.000 L252.000,24.000 L252.000,25.000 L252.000,26.000 L252.000,27.000 L252.000,28.000 L252.000,29.000 L252.000,30.000 L252.000,31.000 L252.000,32.000 L252.000,33.000 L252.000,34.000 L252.000,35.000 L252.000,36.000 L252.000,37.000 L252.000,38.000 L252.000,39.000 L252.000,40.000 L252.000,41.000 L252.000,42.000 L252.000,43.000 L252.000,44.000 L252.000,45.000 L252.000,46.000 L252.000,47.000 L252.000,48.000 L252.000,49.000 L252.000,50.000 L252.000,51.000 L252.000,52.000 L252.000,53.000 L252.000,54.000 L252.000,55.000 L252.000,56.000 L252.000,57.000 L252.000,58.000 L252.000,59.000 L252.000,60.000 L252.000,61.000 L252.000,62.000 L252.000,63.000 L252.000,64.000 L252.000,65.000 L252.000,66.000 L252.000,67.000 L252.000,68.000 L252.000,69.000 L252.000,70.000 L252.000,71.000 L252.000,72.000 L252.000,73.000 L252.000,74.000 L252.000,75.000 L252.000,76.000 L252.000,77.000 L252.000,78.000 L252.000,79.000 L252.000,80.000 L252.000,81.000 L252.000,82.000 L252.000,83.000 L252.000,84.000 L252.000,85.000 L252.000,86.000 L252.000,87.000 L252.000,88.000 L252.000,89.000 Z"/>
    <path d="M108.000,90.000 L108.000,89.000 L108.000,88.000 L108.000,87.000 L108.000,86.000 L108.000,85.000 L108.000,84.000 L108.000,83.000 L108.000,82.000 L108.000,81.000 L108.000,80.000 L108.000,79.000 L108.000,78.000 L108.000,77.000 L108.000,76.000 L108.000,75.000 L108.000,74.000 L108.000,73.000 L108.000,72.000 L108.000,71.000 L108.000,70.000 L108.000,69.000 L108.000,68.000 L108.000,67.000 L108.000,66.000 L108.000,65.000 L108.000,64.000 L108.000,63.000 L108.000,62.000 L108.000,61.000 L108.000,60.000 L108.000,59.000 L108.000,58.000 L108.000,57.000 L108.000,56.000 L108.000,55.000 L108.000,54.000 L108.000,53.000 L108.000,52.000 L108.000,51.000 L108.000,50.000 L108.000,49.000 L108.000,48.000 L108.000,47.000 L108.000,46.000 L108.000,45.000 L108.000,44.000 L108.000,43.000 L108.000,42.000 L108.000,41.000 L108.000,40.000 L108.000,39.000 L108.000,38.000 L108.000,37.000 L108.000,36.000 L108.000,35.000 L108.000,34.000 L108.000,33.000 L108.000,32.000 L108.000,31.000 L108.000,30.000 L108.000,29.000 L108.000,28.000 L108.000,27.000 L108.000,26.000 L108.000,25.000 L108.000,24.000 L108.000,23.000 L108.000,22.000 L108.000,21.000 L108.000,20.000 L108.000,19.000 L108.000,18.000 L108.000,17.000 L108.000,16.000 L108.000,15.000 L108.000,14.000 L108.000,13.000 L108.000,12.000 L108.000,11.000 L108.000,10.000 L108.000,9.000 L108.000,8.000 L108.000,7.000 L108.000,6.000 L108.000,5.000 L108.000,4.000 L108.000,3.000 L108.000,2.000 L108.000,1.000 L108.000,0.000 L108.000,-1.000 L108.000,-2.000 L108.000,-3.000 L108.000,-4.000 L108.000,-5.000 L108.000,-6.000 L108.000,-7.000 L108.000,-8.000 L108.000,-9.000 L108.000,-10.000 L108.000,-11.000 L108.000,-12.000 L108.000,-13.000 L108.000,-14.000 L108.000,-15.000 L108.000,-16.000 L108.000,-17.000 L108.000,-18.000 L108.000,-19.000 L108.000,-20.000 L108.000,-21.000 L108.000,-22.000 L108.000,-23.000 L108.000,-24.000 L108.000,-25.000 L108.000,-26.000 L108.000,-27.000 L108.000,-28.000 L108.000,-29.000 L108.000,-30.000 L108.000,-31.000 L108.000,-32.000 L108.000,-33.000 L108.000,-34.000 L108.000,-35.000 L108.000,-36.000 L108.000,-37.000 L108.000,-38.000 L108.000,-39.000 L108.000,-40.000 L108.000,-41.000 L108.000,-42.000 L108.000,-43.000 L108.000,-44.000 L108.000,-45.000 L108.000,-46.000 L108.000,-47.000 L108.000,-48.000 L108.000,-49.000 L108.000,-50.000 L108.000,-51.000 L108.000,-52.000 L108.000,-53.000 L108.000,-54.000 L108.000,-55.000 L108.000,-56.000 L108.000,-57.000 L108.000,-58.000 L108.000,-59.000 L108.000,-60.000 L108.000,-61.000 L108.000,-62.000 L108.000,-63.000 L108.000,-64.000 L108.000,-65.000 L108.000,-66.000 L108.000,-67.000 L108.000,-68.000 L108.000,-69.000 L108.000,-70.000 L108.000,-71.000 L108.000,-72.000 L108.000,-73.000 L108.000,-74.000 L108.000,-75.000 L108.000,-76.000 L108.000,-77.000 L108.000,-78.000 L108.000,-79.000 L108.000,-80.000 L108.000,-81.000 L108.000,-82.000 L108.000,-83.000 L108.000,-84.000 L108.000,-85.000 L108.000,-86.000 L108.000,-87.000 L108.000,-88.000 L108.000,-89.000 L288.000,-90.000 L288.000,-89.000 L288.000,-88.000 L288.000,-87.000 L288.000,-86.000 L288.000,-85.000 L288.000,-84.000 L288.000,-83.000 L288.000,-82.000 L288.000,-81.000 L288.000,-80.000 L288.000,-79.000 L288.000,-78.000 L288.000,-77.000 L288.000,-76.000 L288.000,-75.000 L288.000,-74.000 L288.000,-73.000 L288.000,-72.000 L288.000,-71.000 L288.000,-70.000 L288.000,-69.000 L288.000,-68.000 L288.000,-67.000 L288.000,-66.000 L288.000,-65.000 L288.000,-64.000 L288.000,-63.000 L288.000,-62.000 L288.000,-61.000 L288.000,-60.000 L288.000,-59.000 L288.000,-58.000 L288.000,-57.000 L288.000,-56.000 L288.000,-55.000 L288.000,-54.000 L288.000,-53.000 L288.000,-52.000 L288.000,-51.000 L288.000,-50.000 L288.000,-49.000 L288.000,-48.000 L288.000,-47.000 L288.000,-46.000 L288.000,-45.000 L288.000,-44.000 L288.000,-43.000 L288.000,-42.000 L288.000,-41.000 L288.000,-40.000 L288.000,-39.000 L288.000,-38.000 L288.000,-37.000 L288.000,-36.000 L288.000,-35.000 L288.000,-34.000 L288.000,-33.000 L288.000,-32.000 L288.000,-31.000 L288.000,-30.000 L288.000,-29.000 L288.000,-28.000 L288.000,-27.000 L288.000,-26.000 L288.000,-25.000 L288.000,-24.000 L288.000,-23.000 L288.000,-22.000 L288.000,-21.000 L288.000,-20.000 L288.000,-19.000 L288.000,-18.000 L288.000,-17.000 L288.000,-16.000 L288.000,-15.000 L288.000,-14.000 L288.000,-13.000 L288.000,-12.000 L288.000,-11.000 L288.000,-10.000 L288.000,-9.000 L288.000,-8.000 L288.000,-7.000 L288.000,-6.000 L288.000,-5.000 L288.000,-4.000 L288.000,-3.000 L288.000,-2.000 L288.000,-1.000 L288.000,-0.000 L288.000,1.000 L288.000,2.000 L288.000,3.000 L288.000,4.000 L288.000,5.000 L288.000,6.000 L288.000,7.000 L288.000,8.000 L288.000,9.000 L288.000,10.000 L288.000,11.000 L288.000,12.000 L288.000,13.000 L288.000,14.000 L288.000,15.000 L288.000,16.000 L288.000,17.000 L288.000,18.000 L288.000,19.000 L288.000,20.000 L288.000,21.000 L288.000,22.000 L288.000,23.000 L288.000,24.000 L288.000,25.000 L288.000,26.000 L288.000,27.000 L288.000,28.000 L288.000,29.000 L288.000,30.000 L288.000,31.000 L288.000,32.000 L288.000,33.000 L288.000,34.000 L288.000,35.000 L288.000,36.000 L288.000,37.000 L288.000,38.000 L288.000,39.000 L288.000,40.000 L288.000,41.000 L288.000,42.000 L288.000,43.000 L288.000,44.000 L288.000,45.000 L288.000,46.000 L288.000,47.000 L288.000,48.000 L288.000,49.000 L288.000,50.000 L288.000,51.000 L288.000,52.000 L288.000,53.000 L288.000,54.000 L288.000,55.000 L288.000,56.000 L288.000,57.000 L288.000,58.000 L288.000,59.000 L288.000,60.000 L288.000,61.000 L288.000,62.000 L288.000,63.000 L288.000,64.000 L288.000,65.000 L288.000,66.000 L288.000,67.000 L288.000,68.000 L288.000,69.000 L288.000,70.000 L288.000,71.000 L288.000,72.000 L288.000,73.000 L288.000,74.000 L288.000,75.000 L288.000,76.000 L288.000,77.000 L288.000,78.000 L288.000,79.000 L288.000,80.000 L288.000,81.000 L288.000,82.000 L288.000,83.000 L288.000,84.000 L288.000,85.000 L288.000,86.000 L288.000,87.000 L288.000,88.000 L288.000,89.000 Z"/>
    <path d="M144.000,90.000 L144.000,89.000 L144.000,88.000 L144.000,87.000 L144.000,86.000 L144.000,85.000 L144.000,84.000 L144.000,83.000 L144.000,82.000 L144.000,81.000 L144.000,80.000 L144.000,79.000 L144.000,78.000 L144.000,77.000 L144.000,76.000 L144.000,75.000 L144.000,74.000 L144.000,73.000 L144.000,72.000 L144.000,71.000 L144.000,70.000 L144.000,69.000 L144.000,68.000 L144.000,67.000 L144.000,66.000 L144.000,65.000 L144.000,64.000 L144.000,63.000 L144.000,62.000 L144.000,61.000 L144.000,60.000 L144.000,59.000 L144.000,58.000 L144.000,57.000 L144.000,56.000 L144.000,55.000 L144.000,54.000 L144.000,53.000 L144.000,52.000 L144.000,51.000 L144.000,50.000 L144.000,49.000 L144.000,48.000 L144.000,47.000 L144.000,46.000 L144.000,45.000 L144.000,44.000 L144.000,43.000 L144.000,42.000 L144.000,41.000 L144.000,40.000 L144.000,39.000 L144.000,38.000 L144.000,37.000 L144.000,36.000 L144.000,35.000 L144.000,34.000 L144.000,33.000 L144.000,32.000 L144.000,31.000 L144.000,30.000 L144.000,29.000 L144.000,28.000 L144.000,27.000 L144.000,26.000 L144.000,25.000 L144.000,24.000 L144.000,23.000 L144.000,22.000 L144.000,21.000 L144.000,20.000 L144.000,19.000 L144.000,18.000 L144.000,17.000 L144.000,16.000 L144.000,15.000 L144.000,14.000 L144.000,13.000 L144.000,12.000 L144.000,11.000 L144.000,10.000 L144.000,9.000 L144.000,8.000 L144.000,7.000 L144.000,6.000 L144.000,5.000 L144.000,4.000 L144.000,3.000 L144.000,2.000 L144.000,1.000 L144.000,0.000 L144.000,-1.000 L144.000,-2.000 L144.000,-3.000 L144.000,-4.000 L144.000,-5.000 L144.000,-6.000 L144.000,-7.000 L144.000,-8.000 L144.000,-9.000 L144.000,-10.000 L144.000,-11.000 L144.000,-12.000 L144.000,-13.000 L144.000,-14.000 L144.000,-15.000 L144.000,-16.000 L144.000,-17.000 L144.000,-18.000 L144.000,-19.000 L144.000,-20.000 L144.000,-21.000 L144.000,-22.000 L144.000,-23.000 L144.000,-24.000 L144.000,-25.000 L144.000,-26.000 L144.000,-27.000 L144.000,-28.000 L144.000,-29.000 L144.000,-30.000 L144.000,-31.000 L144.000,-32.000 L144.000,-33.000 L144.000,-34.000 L144.000,-35.000 L144.000,-36.000 L144.000,-37.000 L144.000,-38.000 L144.000,-39.000 L144.000,-40.000 L144.000,-41.000 L144.000,-42.000 L144.000,-43.000 L144.000,-44.000 L144.000,-45.000 L144.000,-46.000 L144.000,-47.000 L144.000,-48.000 L144.000,-49.000 L144.000,-50.000 L144.000,-51.000 L144.000,-52.000 L144.000,-53.000 L144.000,-54.000 L144.000,-55.000 L144.000,-56.000 L144.000,-57.000 L144.000,-58.000 L144.000,-59.000 L144.000,-60.000 L144.000,-61.000 L144.000,-62.000 L144.000,-63.000 L144.000,-64.000 L144.000,-65.000 L144.000,-66.000 L144.000,-67.000 L144.000,-68.000 L144.000,-69.000 L144.000,-70.000 L144.000,-71.000 L144.000,-72.000 L144.000,-73.000 L144.000,-74.000 L144.000,-75.000 L144.000,-76.000 L144.000,-77.000 L144.000,-78.000 L144.000,-79.000 L144.000,-80.000 L144.000,-81.000 L144.000,-82.000 L144.000,-83.000 L144.000,-84.000 L144.000,-85.000 L144.000,-86.000 L144.000,-87.000 L144.000,-88.000 L144.000,-89.000 L324.000,-90.000 L324.000,-89.000 L324.000,-88.000 L324.000,-87.000 L324.000,-86.000 L324.000,-85.000 L324.000,-84.000 L324.000,-83.000 L324.000,-82.000 L324.000,-81.000 L324.000,-80.000 L324.000,-79.000 L324.000,-78.000 L324.000,-77.000 L324.000,-76.000 L324.000,-75.000 L324.000,-74.000 L324.000,-73.000 L324.000,-72.000 L324.000,-71.000 L324.000,-70.000 L324.000,-69.000 L324.000,-68.000 L324.000,-67.000 L324.000,-66.000 L324.000,-65.000 L324.000,-64.000 L324.000,-63.000 L324.000,-62.000 L324.000,-61.000 L324.000,-60.000 L324.000,-59.000 L324.000,-58.000 L324.000,-57.000 L324.000,-56.000 L324.000,-55.000 L324.000,-54.000 L324.000,-53.000 L324.000,-52.000 L324.000,-51.000 L324.000,-50.000 L324.000,-49.000 L324.000,-48.000 L324.000,-47.000 L324.000,-46.000 L324.000,-45.000 L324.000,-44.000 L324.000,-43.000 L324.000,-42.000 L324.000,-41.000 L324.000,-40.000 L324.000,-39.000 L324.000,-38.000 L324.000,-37.000 L324.000,-36.000 L324.000,-35.000 L324.000,-34.000 L324.000,-33.000 L324.000,-32.000 L324.000,-31.000 L324.000,-30.000 L324.000,-29.000 L324.000,-28.000 L324.000,-27.000 L324.000,-26.000 L324.000,-25.000 L324.000,-24.000 L324.000,-23.000 L324.000,-22.000 L324.000,-21.000 L324.000,-20.000 L324.000,-19.000 L324.000,-18.000 L324.000,-17.000 L324.000,-16.000 L324.000,-15.000 L324.000,-14.000 L324.000,-13.000 L324.000,-12.000 L324.000,-11.000 L324.000,-10.000 L324.000,-9.000 L324.000,-8.000 L324.000,-7.000 L324.000,-6.000 L324.000,-5.000 L324.000,-4.000 L324.000,-3.000 L324.000,-2.000 L324.000,-1.000 L324.000,-0.000 L324.000,1.000 L324.000,2.000 L324.000,3.000 L324.000,4.000 L324.000,5.000 L324.000,6.000 L324.000,7.000 L324.000,8.000 L324.000,9.000 L324.000,10.000 L324.000,11.000 L324.000,12.000 L324.000,13.000 L324.000,14.000 L324.000,15.000 L324.000,16.000 L324.000,17.000 L324.000,18.000 L324.000,19.000 L324.000,20.000 L324.000,21.000 L324.000,22.000 L324.000,23.000 L324.000,24.000 L324.000,25.000 L324.000,26.000 L324.000,27.000 L324.000,28.000 L324.000,29.000 L324.000,30.000 L324.000,31.000 L324.000,32.000 L324.000,33.000 L324.000,34.000 L324.000,35.000 L324.000,36.000 L324.000,37.000 L324.000,38.000 L324.000,39.000 L324.000,40.000 L324.000,41.000 L324.000,42.000 L324.000,43.000 L324.000,44.000 L324.000,45.000 L324.000,46.000 L324.000,47.000 L324.000,48.000 L324.000,49.000 L324.000,50.000 L324.000,51.000 L324.000,52.000 L324.000,53.000 L324.000,54.000 L324.000,55.000 L324.000,56.000 L324.000,57.000 L324.000,58.000 L324.000,59.000 L324.000,60.000 L324.000,61.000 L324.000,62.000 L324.000,63.000 L324.000,64.000 L324.000,65.000 L324.000,66.000 L324.000,67.000 L324.000,68.000 L324.000,69.000 L324.000,70.000 L324.000,71.000 L324.000,72.000 L324.000,73.000 L324.000,74.000 L324.000,75.000 L324.000,76.000 L324.000,77.000 L324.000,78.000 L324.000,79.000 L324.000,80.000 L324.000,81.000 L324.000,82.000 L324.000,83.000 L324.000,84.000 L324.000,85.000 L324.000,86.000 L324.000,87.000 L324.000,88.000 L324.000,89.000 Z"/>
    <path d="M0.000,26.565 L1.060,26.252 L2.115,25.931 L3.164,25.603 L4.207,25.267 L5.244,24.924 L6.276,24.574 L7.301,24.217 L8.321,23.853 L9.335,23.483 L10.344,23.105 L11.346,22.722 L12.343,22.332 L13.335,21.936 L14.321,21.535 L15.301,21.127 L16.276,20.714 L17.246,20.296 L18.210,19.872 L19.169,19.443 L20.123,19.009 L21.072,18.570 L22.017,18.126 L22.956,17.678 L23.891,17.225 L24.821,16.768 L25.747,16.307 L26.668,15.842 L27.585,15.373 L28.498,14.901 L29.407,14.424 L30.312,13.945 L31.213,13.462 L32.111,12.975 L33.005,12.486 L33.895,11.994 L34.783,11.499 L35.667,11.001 L36.548,10.501 L37.427,9.998 L38.303,9.493 L39.176,8.986 L40.047,8.476 L40.915,7.965 L41.781,7.452 L42.645,6.938 L43.508,6.421 L44.368,5.904 L45.227,5.385 L46.085,4.865 L46.941,4.343 L47.796,3.821 L48.650,3.298 L49.503,2.774 L50.355,2.250 L51.207,1.725 L52.058,1.200 L52.909,0.674 L53.760,0.149 L54.610,-0.377 L55.461,-0.903 L56.312,-1.428 L57.163,-1.953 L58.015,-2.478 L58.868,-3.002 L59.721,-3.526 L60.576,-4.048 L61.431,-4.570 L62.288,-5.091 L63.146,-5.611 L64.006,-6.129 L64.867,-6.646 L65.730,-7.162 L66.595,-7.676 L67.463,-8.188 L68.332,-8.698 L69.204,-9.206 L70.078,-9.713 L70.955,-10.217 L71.835,-10.718 L72.717,-11.218 L73.603,-11.714 L74.492,-12.208 L75.384,-12.699 L76.279,-13.187 L77.179,-13.672 L78.081,-14.154 L78.988,-14.632 L79.899,-15.107 L80.813,-15.578 L81.732,-16.045 L82.655,-16.508 L83.583,-16.968 L84.515,-17.423 L85.452,-17.873 L86.393,-18.320 L87.340,-18.761 L88.291,-19.198 L89.247,-19.630 L90.209,-20.057 L91.176,-20.478 L92.147,-20.894 L93.125,-21.305 L94.108,-21.710 L95.096,-22.109 L96.090,-22.502 L97.089,-22.889 L98.094,-23.270 L99.105,-23.645 L100.122,-24.012 L101.144,-24.373 L102.172,-24.727 L103.206,-25.075 L104.246,-25.414 L105.292,-25.747 L106.343,-26.072 L107.400,-26.389 L108.463,-26.699 L109.532,-27.000 L110.606,-27.294 L111.686,-27.579 L112.771,-27.856 L113.862,-28.124 L114.959,-28.384 L116.060,-28.634 L117.167,-28.876 L118.279,-29.109 L119.396,-29.333 L120.518,-29.547 L121.644,-29.751 L122.775,-29.947 L123.910,-30.132 L125.049,-30.308 L126.192,-30.474 L127.339,-30.629 L128.490,-30.775 L129.644,-30.910 L130.801,-31.036 L131.961,-31.150 L133.124,-31.255 L134.289,-31.349 L135.456,-31.432 L136.626,-31.505 L137.797,-31.567 L138.969,-31.619 L140.143,-31.659 L141.317,-31.689 L142.492,-31.709 L143.668,-31.717 L144.843,-31.715 L146.019,-31.702 L147.194,-31.678 L148.368,-31.643 L149.541,-31.598 L150.713,-31.541 L151.883,-31.475 L153.052,-31.397 L154.218,-31.309 L155.382,-31.211 L156.544,-31.102 L157.703,-30.982 L158.858,-30.853 L160.011,-30.713 L161.160,-30.563 L162.305,-30.403 L163.447,-30.233 L164.585,-30.053 L165.718,-29.863 L166.847,-29.664 L167.971,-29.455 L169.090,-29.236 L170.205,-29.009 L171.315,-28.772 L172.419,-28.526 L173.519,-28.272 L174.613,-28.008 L175.701,-27.736 L176.784,-27.456 L177.862,-27.167 L178.934,-26.870 L-180.000,-26.565 L-178.940,-26.252 L-177.885,-25.931 L-176.836,-25.603 L-175.793,-25.267 L-174.756,-24.924 L-173.724,-24.574 L-172.699,-24.217 L-171.679,-23.853 L-170.665,-23.483 L-169.656,-23.105 L-168.654,-22.722 L-167.657,-22.332 L-166.665,-21.936 L-165.679,-21.535 L-164.699,-21.127 L-163.724,-20.714 L-162.754,-20.296 L-161.790,-19.872 L-160.831,-19.443 L-159.877,-19.009 L-158.928,-18.570 L-157.983,-18.126 L-157.044,-17.678 L-156.109,-17.225 L-155.179,-16.768 L-154.253,-16.307 L-153.332,-15.842 L-152.415,-15.373 L-151.502,-14.901 L-150.593,-14.424 L-149.688,-13.945 L-148.787,-13.462 L-147.889,-12.975 L-146.995,-12.486 L-146.105,-11.994 L-145.217,-11.499 L-144.333,-11.001 L-143.452,-10.501 L-142.573,-9.998 L-141.697,-9.493 L-140.824,-8.986 L-139.953,-8.476 L-139.085,-7.965 L-138.219,-7.452 L-137.355,-6.938 L-136.492,-6.421 L-135.632,-5.904 L-134.773,-5.385 L-133.915,-4.865 L-133.059,-4.343 L-132.204,-3.821 L-131.350,-3.298 L-130.497,-2.774 L-129.645,-2.250 L-128.793,-1.725 L-127.942,-1.200 L-127.091,-0.674 L-126.240,-0.149 L-125.390,0.377 L-124.539,0.903 L-123.688,1.428 L-122.837,1.953 L-121.985,2.478 L-121.132,3.002 L-120.279,3.526 L-119.424,4.048 L-118.569,4.570 L-117.712,5.091 L-116.854,5.611 L-115.994,6.129 L-115.133,6.646 L-114.270,7.162 L-113.405,7.676 L-112.537,8.188 L-111.668,8.698 L-110.796,9.206 L-109.922,9.713 L-109.045,10.217 L-108.165,10.718 L-107.283,11.218 L-106.397,11.714 L-105.508,12.208 L-104.616,12.699 L-103.721,13.187 L-102.821,13.672 L-101.919,14.154 L-101.012,14.632 L-100.101,15.107 L-99.187,15.578 L-98.268,16.045 L-97.345,16.508 L-96.417,16.968 L-95.485,17.423 L-94.548,17.873 L-93.607,18.320 L-92.660,18.761 L-91.709,19.198 L-90.753,19.630 L-89.791,20.057 L-88.824,20.478 L-87.853,20.894 L-86.875,21.305 L-85.892,21.710 L-84.904,22.109 L-83.910,22.502 L-82.911,22.889 L-81.906,23.270 L-80.895,23.645 L-79.878,24.012 L-78.856,24.373 L-77.828,24.727 L-76.794,25.075 L-75.754,25.414 L-74.708,25.747 L-73.657,26.072 L-72.600,26.389 L-71.537,26.699 L-70.468,27.000 L-69.394,27.294 L-68.314,27.579 L-67.229,27.856 L-66.138,28.124 L-65.041,28.384 L-63.940,28.634 L-62.833,28.876 L-61.721,29.109 L-60.604,29.333 L-59.482,29.547 L-58.356,29.751 L-57.225,29.947 L-56.090,30.132 L-54.951,30.308 L-53.808,30.474 L-52.661,30.629 L-51.510,30.775 L-50.356,30.910 L-49.199,31.036 L-48.039,31.150 L-46.876,31.255 L-45.711,31.349 L-44.544,31.432 L-43.374,31.505 L-42.203,31.567 L-41.031,31.619 L-39.857,31.659 L-38.683,31.689 L-37.508,31.709 L-36.332,31.717 L-35.157,31.715 L-33.981,31.702 L-32.806,31.678 L-31.632,31.643 L-30.459,31.598 L-29.287,31.541 L-28.117,31.475 L-26.948,31.397 L-25.782,31.309 L-24.618,31.211 L-23.456,31.102 L-22.297,30.982 L-21.142,30.853 L-19.989,30.713 L-18.840,30.563 L-17.695,30.403 L-16.553,30.233 L-15.415,30.053 L-14.282,29.863 L-13.153,29.664 L-12.029,29.455 L-10.910,29.236 L-9.795,29.009 L-8.685,28.772 L-7.581,28.526 L-6.481,28.272 L-5.387,28.008 L-4.299,27.736 L-3.216,27.456 L-2.138,27.167 L-1.066,26.870 Z"/>
    <path d="M0.000,26.565 L0.662,27.373 L1.333,28.177 L2.015,28.978 L2.708,29.775 L3.411,30.569 L4.126,31.359 L4.853,32.145 L5.593,32.927 L6.346,33.704 L7.112,34.477 L7.893,35.245 L8.689,36.007 L9.500,36.765 L10.328,37.516 L11.172,38.262 L12.033,39.002 L12.913,39.735 L13.812,40.461 L14.730,41.180 L15.668,41.892 L16.627,42.596 L17.608,43.292 L18.612,43.979 L19.639,44.658 L20.691,45.326 L21.767,45.985 L22.869,46.634 L23.997,47.272 L25.153,47.898 L26.336,48.513 L27.549,49.115 L28.791,49.704 L30.063,50.279 L31.366,50.841 L32.700,51.387 L34.066,51.918 L35.464,52.433 L36.895,52.931 L38.358,53.411 L39.854,53.873 L41.383,54.316 L42.944,54.739 L44.537,55.142 L46.163,55.523 L47.819,55.883 L49.505,56.220 L51.219,56.534 L52.962,56.824 L54.730,57.089 L56.523,57.328 L58.338,57.542 L60.173,57.730 L62.025,57.891 L63.893,58.025 L65.774,58.131 L67.664,58.209 L69.562,58.259 L71.463,58.281 L73.365,58.275 L75.264,58.241 L77.159,58.178 L79.045,58.088 L80.921,57.970 L82.782,57.824 L84.628,57.652 L86.454,57.453 L88.260,57.227 L90.042,56.976 L91.799,56.701 L93.530,56.400 L95.232,56.076 L96.905,55.729 L98.548,55.360 L100.160,54.969 L101.739,54.558 L103.286,54.126 L104.801,53.674 L106.283,53.204 L107.732,52.716 L109.148,52.211 L110.532,51.689 L111.884,51.151 L113.205,50.598 L114.494,50.031 L115.753,49.449 L116.982,48.854 L118.182,48.247 L119.353,47.627 L120.497,46.996 L121.614,46.353 L122.704,45.700 L123.770,45.037 L124.810,44.364 L125.827,43.681 L126.821,42.990 L127.793,42.291 L128.743,41.584 L129.672,40.868 L130.582,40.146 L131.472,39.417 L132.344,38.681 L133.198,37.938 L134.034,37.190 L134.855,36.436 L135.659,35.676 L136.448,34.911 L137.223,34.141 L137.983,33.367 L138.730,32.587 L139.465,31.804 L140.186,31.016 L140.896,30.224 L141.595,29.429 L142.283,28.630 L142.960,27.827 L143.627,27.022 L144.285,26.213 L144.934,25.401 L145.574,24.587 L146.205,23.769 L146.829,22.950 L147.445,22.127 L148.055,21.303 L148.657,20.476 L149.253,19.648 L149.843,18.817 L150.426,17.984 L151.005,17.150 L151.578,16.314 L152.147,15.477 L152.710,14.638 L153.270,13.798 L153.825,12.957 L154.377,12.114 L154.925,11.270 L155.470,10.426 L156.012,9.580 L156.552,8.734 L157.089,7.887 L157.624,7.039 L158.156,6.190 L158.687,5.341 L159.217,4.492 L159.746,3.642 L160.273,2.792 L160.800,1.941 L161.326,1.091 L161.851,0.240 L162.377,-0.610 L162.903,-1.461 L163.429,-2.311 L163.956,-3.162 L164.484,-4.012 L165.013,-4.861 L165.543,-5.711 L166.075,-6.559 L166.609,-7.408 L167.144,-8.255 L167.682,-9.102 L168.223,-9.948 L168.766,-10.793 L169.313,-11.637 L169.862,-12.481 L170.416,-13.323 L170.973,-14.164 L171.534,-15.003 L172.100,-15.841 L172.671,-16.678 L173.246,-17.513 L173.827,-18.347 L174.413,-19.178 L175.006,-20.008 L175.604,-20.836 L176.209,-21.662 L176.822,-22.485 L177.441,-23.306 L178.068,-24.125 L178.704,-24.941 L179.347,-25.755 L-180.000,-26.565 L-179.338,-27.373 L-178.667,-28.177 L-177.985,-28.978 L-177.292,-29.775 L-176.589,-30.569 L-175.874,-31.359 L-175.147,-32.145 L-174.407,-32.927 L-173.654,-33.704 L-172.888,-34.477 L-172.107,-35.245 L-171.311,-36.007 L-170.500,-36.765 L-169.672,-37.516 L-168.828,-38.262 L-167.967,-39.002 L-167.087,-39.735 L-166.188,-40.461 L-165.270,-41.180 L-164.332,-41.892 L-163.373,-42.596 L-162.392,-43.292 L-161.388,-43.979 L-160.361,-44.658 L-159.309,-45.326 L-158.233,-45.985 L-157.131,-46.634 L-156.003,-47.272 L-154.847,-47.898 L-153.664,-48.513 L-152.451,-49.115 L-151.209,-49.704 L-149.937,-50.279 L-148.634,-50.841 L-147.300,-51.387 L-145.934,-51.918 L-144.536,-52.433 L-143.105,-52.931 L-141.642,-53.411 L-140.146,-53.873 L-138.617,-54.316 L-137.056,-54.739 L-135.463,-55.142 L-133.837,-55.523 L-132.181,-55.883 L-130.495,-56.220 L-128.781,-56.534 L-127.038,-56.824 L-125.270,-57.089 L-123.477,-57.328 L-121.662,-57.542 L-119.827,-57.730 L-117.975,-57.891 L-116.107,-58.025 L-114.226,-58.131 L-112.336,-58.209 L-110.438,-58.259 L-108.537,-58.281 L-106.635,-58.275 L-104.736,-58.241 L-102.841,-58.178 L-100.955,-58.088 L-99.079,-57.970 L-97.218,-57.824 L-95.372,-57.652 L-93.546,-57.453 L-91.740,-57.227 L-89.958,-56.976 L-88.201,-56.701 L-86.470,-56.400 L-84.768,-56.076 L-83.095,-55.729 L-81.452,-55.360 L-79.840,-54.969 L-78.261,-54.558 L-76.714,-54.126 L-75.199,-53.674 L-73.717,-53.204 L-72.268,-52.716 L-70.852,-52.211 L-69.468,-51.689 L-68.116,-51.151 L-66.795,-50.598 L-65.506,-50.031 L-64.247,-49.449 L-63.018,-48.854 L-61.818,-48.247 L-60.647,-47.627 L-59.503,-46.996 L-58.386,-46.353 L-57.296,-45.700 L-56.230,-45.037 L-55.190,-44.364 L-54.173,-43.681 L-53.179,-42.990 L-52.207,-42.291 L-51.257,-41.584 L-50.328,-40.868 L-49.418,-40.146 L-48.528,-39.417 L-47.656,-38.681 L-46.802,-37.938 L-45.966,-37.190 L-45.145,-36.436 L-44.341,-35.676 L-43.552,-34.911 L-42.777,-34.141 L-42.017,-33.367 L-41.270,-32.587 L-40.535,-31.804 L-39.814,-31.016 L-39.104,-30.224 L-38.405,-29.429 L-37.717,-28.630 L-37.040,-27.827 L-36.373,-27.022 L-35.715,-26.213 L-35.066,-25.401 L-34.426,-24.587 L-33.795,-23.769 L-33.171,-22.950 L-32.555,-22.127 L-31.945,-21.303 L-31.343,-20.476 L-30.747,-19.648 L-30.157,-18.817 L-29.574,-17.984 L-28.995,-17.150 L-28.422,-16.314 L-27.853,-15.477 L-27.290,-14.638 L-26.730,-13.798 L-26.175,-12.957 L-25.623,-12.114 L-25.075,-11.270 L-24.530,-10.426 L-23.988,-9.580 L-23.448,-8.734 L-22.911,-7.887 L-22.376,-7.039 L-21.844,-6.190 L-21.313,-5.341 L-20.783,-4.492 L-20.254,-3.642 L-19.727,-2.792 L-19.200,-1.941 L-18.674,-1.091 L-18.149,-0.240 L-17.623,0.610 L-17.097,1.461 L-16.571,2.311 L-16.044,3.162 L-15.516,4.012 L-14.987,4.861 L-14.457,5.711 L-13.925,6.559 L-13.391,7.408 L-12.856,8.255 L-12.318,9.102 L-11.777,9.948 L-11.234,10.793 L-10.687,11.637 L-10.138,12.481 L-9.584,13.323 L-9.027,14.164 L-8.466,15.003 L-7.900,15.841 L-7.329,16.678 L-6.754,17.513 L-6.173,18.347 L-5.587,19.178 L-4.994,20.008 L-4.396,20.836 L-3.791,21.662 L-3.178,22.485 L-2.559,23.306 L-1.932,24.125 L-1.296,24.941 L-0.653,25.755 Z"/>
    <path d="M72.000,26.565 L73.060,26.252 L74.115,25.931 L75.164,25.603 L76.207,25.267 L77.244,24.924 L78.276,24.574 L79.301,24.217 L80.321,23.853 L81.335,23.483 L82.344,23.105 L83.346,22.722 L84.343,22.332 L85.335,21.936 L86.321,21.535 L87.301,21.127 L88.276,20.714 L89.246,20.296 L90.210,19.872 L91.169,19.443 L92.123,19.009 L93.072,18.570 L94.017,18.126 L94.956,17.678 L95.891,17.225 L96.821,16.768 L97.747,16.307 L98.668,15.842 L99.585,15.373 L100.498,14.901 L101.407,14.424 L102.312,13.945 L103.213,13.462 L104.111,12.975 L105.005,12.486 L105.895,11.994 L106.783,11.499 L107.667,11.001 L108.548,10.501 L109.427,9.998 L110.303,9.493 L111.176,8.986 L112.047,8.476 L112.915,7.965 L113.781,7.452 L114.645,6.938 L115.508,6.421 L116.368,5.904 L117.227,5.385 L118.085,4.865 L118.941,4.343 L119.796,3.821 L120.650,3.298 L121.503,2.774 L122.355,2.250 L123.207,1.725 L124.058,1.200 L124.909,0.674 L125.760,0.149 L126.610,-0.377 L127.461,-0.903 L128.312,-1.428 L129.163,-1.953 L130.015,-2.478 L130.868,-3.002 L131.721,-3.526 L132.576,-4.048 L133.431,-4.570 L134.288,-5.091 L135.146,-5.611 L136.006,-6.129 L136.867,-6.646 L137.730,-7.162 L138.595,-7.676 L139.463,-8.188 L140.332,-8.698 L141.204,-9.206 L142.078,-9.713 L142.955,-10.217 L143.835,-10.718 L144.717,-11.218 L145.603,-11.714 L146.492,-12.208 L147.384,-12.699 L148.279,-13.187 L149.179,-13.672 L150.081,-14.154 L150.988,-14.632 L151.899,-15.107 L152.813,-15.578 L153.732,-16.045 L154.655,-16.508 L155.583,-16.968 L156.515,-17.423 L157.452,-17.873 L158.393,-18.320 L159.340,-18.761 L160.291,-19.198 L161.247,-19.630 L162.209,-20.057 L163.176,-20.478 L164.147,-20.894 L165.125,-21.305 L166.108,-21.710 L167.096,-22.109 L168.090,-22.502 L169.089,-22.889 L170.094,-23.270 L171.105,-23.645 L172.122,-24.012 L173.144,-24.373 L174.172,-24.727 L175.206,-25.075 L176.246,-25.414 L177.292,-25.747 L178.343,-26.072 L179.400,-26.389 L180.463,-26.699 L181.532,-27.000 L182.606,-27.294 L183.686,-27.579 L184.771,-27.856 L185.862,-28.124 L186.959,-28.384 L188.060,-28.634 L189.167,-28.876 L190.279,-29.109 L191.396,-29.333 L192.518,-29.547 L193.644,-29.751 L194.775,-29.947 L195.910,-30.132 L197.049,-30.308 L198.192,-30.474 L199.339,-30.629 L200.490,-30.775 L201.644,-30.910 L202.801,-31.036 L203.961,-31.150 L205.124,-31.255 L206.289,-31.349 L207.456,-31.432 L208.626,-31.505 L209.797,-31.567 L210.969,-31.619 L212.143,-31.659 L213.317,-31.689 L214.492,-31.709 L215.668,-31.717 L216.843,-31.715 L218.019,-31.702 L219.194,-31.678 L220.368,-31.643 L221.541,-31.598 L222.713,-31.541 L223.883,-31.475 L225.052,-31.397 L226.218,-31.309 L227.382,-31.211 L228.544,-31.102 L229.703,-30.982 L230.858,-30.853 L232.011,-30.713 L233.160,-30.563 L234.305,-30.403 L235.447,-30.233 L236.585,-30.053 L237.718,-29.863 L238.847,-29.664 L239.971,-29.455 L241.090,-29.236 L242.205,-29.009 L243.315,-28.772 L244.419,-28.526 L245.519,-28.272 L246.613,-28.008 L247.701,-27.736 L248.784,-27.456 L249.862,-27.167 L250.934,-26.870 L-108.000,-26.565 L-106.940,-26.252 L-105.885,-25.931 L-104.836,-25.603 L-103.793,-25.267 L-102.756,-24.924 L-101.724,-24.574 L-100.699,-24.217 L-99.679,-23.853 L-98.665,-23.483 L-97.656,-23.105 L-96.654,-22.722 L-95.657,-22.332 L-94.665,-21.936 L-93.679,-21.535 L-92.699,-21.127 L-91.724,-20.714 L-90.754,-20.296 L-89.790,-19.872 L-88.831,-19.443 L-87.877,-19.009 L-86.928,-18.570 L-85.983,-18.126 L-85.044,-17.678 L-84.109,-17.225 L-83.179,-16.768 L-82.253,-16.307 L-81.332,-15.842 L-80.415,-15.373 L-79.502,-14.901 L-78.593,-14.424 L-77.688,-13.945 L-76.787,-13.462 L-75.889,-12.975 L-74.995,-12.486 L-74.105,-11.994 L-73.217,-11.499 L-72.333,-11.001 L-71.452,-10.501 L-70.573,-9.998 L-69.697,-9.493 L-68.824,-8.986 L-67.953,-8.476 L-67.085,-7.965 L-66.219,-7.452 L-65.355,-6.938 L-64.492,-6.421 L-63.632,-5.904 L-62.773,-5.385 L-61.915,-4.865 L-61.059,-4.343 L-60.204,-3.821 L-59.350,-3.298 L-58.497,-2.774 L-57.645,-2.250 L-56.793,-1.725 L-55.942,-1.200 L-55.091,-0.674 L-54.240,-0.149 L-53.390,0.377 L-52.539,0.903 L-51.688,1.428 L-50.837,1.953 L-49.985,2.478 L-49.132,3.002 L-48.279,3.526 L-47.424,4.048 L-46.569,4.570 L-45.712,5.091 L-44.854,5.611 L-43.994,6.129 L-43.133,6.646 L-42.270,7.162 L-41.405,7.676 L-40.537,8.188 L-39.668,8.698 L-38.796,9.206 L-37.922,9.713 L-37.045,10.217 L-36.165,10.718 L-35.283,11.218 L-34.397,11.714 L-33.508,12.208 L-32.616,12.699 L-31.721,13.187 L-30.821,13.672 L-29.919,14.154 L-29.012,14.632 L-28.101,15.107 L-27.187,15.578 L-26.268,16.045 L-25.345,16.508 L-24.417,16.968 L-23.485,17.423 L-22.548,17.873 L-21.607,18.320 L-20.660,18.761 L-19.709,19.198 L-18.753,19.630 L-17.791,20.057 L-16.824,20.478 L-15.853,20.894 L-14.875,21.305 L-13.892,21.710 L-12.904,22.109 L-11.910,22.502 L-10.911,22.889 L-9.906,23.270 L-8.895,23.645 L-7.878,24.012 L-6.856,24.373 L-5.828,24.727 L-4.794,25.075 L-3.754,25.414 L-2.708,25.747 L-1.657,26.072 L-0.600,26.389 L0.463,26.699 L1.532,27.000 L2.606,27.294 L3.686,27.579 L4.771,27.856 L5.862,28.124 L6.959,28.384 L8.060,28.634 L9.167,28.876 L10.279,29.109 L11.396,29.333 L12.518,29.547 L13.644,29.751 L14.775,29.947 L15.910,30.132 L17.049,30.308 L18.192,30.474 L19.339,30.629 L20.490,30.775 L21.644,30.910 L22.801,31.036 L23.961,31.150 L25.124,31.255 L26.289,31.349 L27.456,31.432 L28.626,31.505 L29.797,31.567 L30.969,31.619 L32.143,31.659 L33.317,31.689 L34.492,31.709 L35.668,31.717 L36.843,31.715 L38.019,31.702 L39.194,31.678 L40.368,31.643 L41.541,31.598 L42.713,31.541 L43.883,31.475 L45.052,31.397 L46.218,31.309 L47.382,31.211 L48.544,31.102 L49.703,30.982 L50.858,30.853 L52.011,30.713 L53.160,30.563 L54.305,30.403 L55.447,30.233 L56.585,30.053 L57.718,29.863 L58.847,29.664 L59.971,29.455 L61.090,29.236 L62.205,29.009 L63.315,28.772 L64.419,28.526 L65.519,28.272 L66.613,28.008 L67.701,27.736 L68.784,27.456 L69.862,27.167 L70.934,26.870 Z"/>
    <path d="M72.000,26.565 L72.662,27.373 L73.333,28.177 L74.015,28.978 L74.708,29.775 L75.411,30.569 L76.126,31.359 L76.853,32.145 L77.593,32.927 L78.346,33.704 L79.112,34.477 L79.893,35.245 L80.689,36.007 L81.500,36.765 L82.328,37.516 L83.172,38.262 L84.033,39.002 L84.913,39.735 L85.812,40.461 L86.730,41.180 L87.668,41.892 L88.627,42.596 L89.608,43.292 L90.612,43.979 L91.639,44.658 L92.691,45.326 L93.767,45.985 L94.869,46.634 L95.997,47.272 L97.153,47.898 L98.336,48.513 L99.549,49.115 L100.791,49.704 L102.063,50.279 L103.366,50.841 L104.700,51.387 L106.066,51.918 L107.464,52.433 L108.895,52.931 L110.358,53.411 L111.854,53.873 L113.383,54.316 L114.944,54.739 L116.537,55.142 L118.163,55.523 L119.819,55.883 L121.505,56.220 L123.219,56.534 L124.962,56.824 L126.730,57.089 L128.523,57.328 L130.338,57.542 L132.173,57.730 L134.025,57.891 L135.893,58.025 L137.774,58.131 L139.664,58.209 L141.562,58.259 L143.463,58.281 L145.365,58.275 L147.264,58.241 L149.159,58.178 L151.045,58.088 L152.921,57.970 L154.782,57.824 L156.628,57.652 L158.454,57.453 L160.260,57.227 L162.042,56.976 L163.799,56.701 L165.530,56.400 L167.232,56.076 L168.905,55.729 L170.548,55.360 L172.160,54.969 L173.739,54.558 L175.286,54.126 L176.801,53.674 L178.283,53.204 L179.732,52.716 L181.148,52.211 L182.532,51.689 L183.884,51.151 L185.205,50.598 L186.494,50.031 L187.753,49.449 L188.982,48.854 L190.182,48.247 L191.353,47.627 L192.497,46.996 L193.614,46.353 L194.704,45.700 L195.770,45.037 L196.810,44.364 L197.827,43.681 L198.821,42.990 L199.793,42.291 L200.743,41.584 L201.672,40.868 L202.582,40.146 L203.472,39.417 L204.344,38.681 L205.198,37.938 L206.034,37.190 L206.855,36.436 L207.659,35.676 L208.448,34.911 L209.223,34.141 L209.983,33.367 L210.730,32.587 L211.465,31.804 L212.186,31.016 L212.896,30.224 L213.595,29.429 L214.283,28.630 L214.960,27.827 L215.627,27.022 L216.285,26.213 L216.934,25.401 L217.574,24.587 L218.205,23.769 L218.829,22.950 L219.445,22.127 L220.055,21.303 L220.657,20.476 L221.253,19.648 L221.843,18.817 L222.426,17.984 L223.005,17.150 L223.578,16.314 L224.147,15.477 L224.710,14.638 L225.270,13.798 L225.825,12.957 L226.377,12.114 L226.925,11.270 L227.470,10.426 L228.012,9.580 L228.552,8.734 L229.089,7.887 L229.624,7.039 L230.156,6.190 L230.687,5.341 L231.217,4.492 L231.746,3.642 L232.273,2.792 L232.800,1.941 L233.326,1.091 L233.851,0.240 L234.377,-0.610 L234.903,-1.461 L235.429,-2.311 L235.956,-3.162 L236.484,-4.012 L237.013,-4.861 L237.543,-5.711 L238.075,-6.559 L238.609,-7.408 L239.144,-8.255 L239.682,-9.102 L240.223,-9.948 L240.766,-10.793 L241.313,-11.637 L241.862,-12.481 L242.416,-13.323 L242.973,-14.164 L243.534,-15.003 L244.100,-15.841 L244.671,-16.678 L245.246,-17.513 L245.827,-18.347 L246.413,-19.178 L247.006,-20.008 L247.604,-20.836 L248.209,-21.662 L248.822,-22.485 L249.441,-23.306 L250.068,-24.125 L250.704,-24.941 L251.347,-25.755 L-108.000,-26.565 L-107.338,-27.373 L-106.667,-28.177 L-105.985,-28.978 L-105.292,-29.775 L-104.589,-30.569 L-103.874,-31.359 L-103.147,-32.145 L-102.407,-32.927 L-101.654,-33.704 L-100.888,-34.477 L-100.107,-35.245 L-99.311,-36.007 L-98.500,-36.765 L-97.672,-37.516 L-96.828,-38.262 L-95.967,-39.002 L-95.087,-39.735 L-94.188,-40.461 L-93.270,-41.180 L-92.332,-41.892 L-91.373,-42.596 L-90.392,-43.292 L-89.388,-43.979 L-88.361,-44.658 L-87.309,-45.326 L-86.233,-45.985 L-85.131,-46.634 L-84.003,-47.272 L-82.847,-47.898 L-81.664,-48.513 L-80.451,-49.115 L-79.209,-49.704 L-77.937,-50.279 L-76.634,-50.841 L-75.300,-51.387 L-73.934,-51.918 L-72.536,-52.433 L-71.105,-52.931 L-69.642,-53.411 L-68.146,-53.873 L-66.617,-54.316 L-65.056,-54.739 L-63.463,-55.142 L-61.837,-55.523 L-60.181,-55.883 L-58.495,-56.220 L-56.781,-56.534 L-55.038,-56.824 L-53.270,-57.089 L-51.477,-57.328 L-49.662,-57.542 L-47.827,-57.730 L-45.975,-57.891 L-44.107,-58.025 L-42.226,-58.131 L-40.336,-58.209 L-38.438,-58.259 L-36.537,-58.281 L-34.635,-58.275 L-32.736,-58.241 L-30.841,-58.178 L-28.955,-58.088 L-27.079,-57.970 L-25.218,-57.824 L-23.372,-57.652 L-21.546,-57.453 L-19.740,-57.227 L-17.958,-56.976 L-16.201,-56.701 L-14.470,-56.400 L-12.768,-56.076 L-11.095,-55.729 L-9.452,-55.360 L-7.840,-54.969 L-6.261,-54.558 L-4.714,-54.126 L-3.199,-53.674 L-1.717,-53.204 L-0.268,-52.716 L1.148,-52.211 L2.532,-51.689 L3.884,-51.151 L5.205,-50.598 L6.494,-50.031 L7.753,-49.449 L8.982,-48.854 L10.182,-48.247 L11.353,-47.627 L12.497,-46.996 L13.614,-46.353 L14.704,-45.700 L15.770,-45.037 L16.810,-44.364 L17.827,-43.681 L18.821,-42.990 L19.793,-42.291 L20.743,-41.584 L21.672,-40.868 L22.582,-40.146 L23.472,-39.417 L24.344,-38.681 L25.198,-37.938 L26.034,-37.190 L26.855,-36.436 L27.659,-35.676 L28.448,-34.911 L29.223,-34.141 L29.983,-33.367 L30.730,-32.587 L31.465,-31.804 L32.186,-31.016 L32.896,-30.224 L33.595,-29.429 L34.283,-28.630 L34.960,-27.827 L35.627,-27.022 L36.285,-26.213 L36.934,-25.401 L37.574,-24.587 L38.205,-23.769 L38.829,-22.950 L39.445,-22.127 L40.055,-21.303 L40.657,-20.476 L41.253,-19.648 L41.843,-18.817 L42.426,-17.984 L43.005,-17.150 L43.578,-16.314 L44.147,-15.477 L44.710,-14.638 L45.270,-13.798 L45.825,-12.957 L46.377,-12.114 L46.925,-11.270 L47.470,-10.426 L48.012,-9.580 L48.552,-8.734 L49.089,-7.887 L49.624,-7.039 L50.156,-6.190 L50.687,-5.341 L51.217,-4.492 L51.746,-3.642 L52.273,-2.792 L52.800,-1.941 L53.326,-1.091 L53.851,-0.240 L54.377,0.610 L54.903,1.461 L55.429,2.311 L55.956,3.162 L56.484,4.012 L57.013,4.861 L57.543,5.711 L58.075,6.559 L58.609,7.408 L59.144,8.255 L59.682,9.102 L60.223,9.948 L60.766,10.793 L61.313,11.637 L61.862,12.481 L62.416,13.323 L62.973,14.164 L63.534,15.003 L64.100,15.841 L64.671,16.678 L65.246,17.513 L65.827,18.347 L66.413,19.178 L67.006,20.008 L67.604,20.836 L68.209,21.662 L68.822,22.485 L69.441,23.306 L70.068,24.125 L70.704,24.941 L71.347,25.755 Z"/>
    <path d="M144.000,26.565 L145.060,26.252 L146.115,25.931 L147.164,25.603 L148.207,25.267 L149.244,24.924 L150.276,24.574 L151.301,24.217 L152.321,23.853 L153.335,23.483 L154.344,23.105 L155.346,22.722 L156.343,22.332 L157.335,21.936 L158.321,21.535 L159.301,21.127 L160.276,20.714 L161.246,20.296 L162.210,19.872 L163.169,19.443 L164.123,19.009 L165.072,18.570 L166.017,18.126 L166.956,17.678 L167.891,17.225 L168.821,16.768 L169.747,16.307 L170.668,15.842 L171.585,15.373 L172.498,14.901 L173.407,14.424 L174.312,13.945 L175.213,13.462 L176.111,12.975 L177.005,12.486 L177.895,11.994 L178.783,11.499 L179.667,11.001 L180.548,10.501 L181.427,9.998 L182.303,9.493 L183.176,8.986 L184.047,8.476 L184.915,7.965 L185.781,7.452 L186.645,6.938 L187.508,6.421 L188.368,5.904 L189.227,5.385 L190.085,4.865 L190.941,4.343 L191.796,3.821 L192.650,3.298 L193.503,2.774 L194.355,2.250 L195.207,1.725 L196.058,1.200 L196.909,0.674 L197.760,0.149 L198.610,-0.377 L199.461,-0.903 L200.312,-1.428 L201.163,-1.953 L202.015,-2.478 L202.868,-3.002 L203.721,-3.526 L204.576,-4.048 L205.431,-4.570 L206.288,-5.091 L207.146,-5.611 L208.006,-6.129 L208.867,-6.646 L209.730,-7.162 L210.595,-7.676 L211.463,-8.188 L212.332,-8.698 L213.204,-9.206 L214.078,-9.713 L214.955,-10.217 L215.835,-10.718 L216.717,-11.218 L217.603,-11.714 L218.492,-12.208 L219.384,-12.699 L220.279,-13.187 L221.179,-13.672 L222.081,-14.154 L222.988,-14.632 L223.899,-15.107 L224.813,-15.578 L225.732,-16.045 L226.655,-16.508 L227.583,-16.968 L228.515,-17.423 L229.452,-17.873 L230.393,-18.320 L231.340,-18.761 L232.291,-19.198 L233.247,-19.630 L234.209,-20.057 L235.176,-20.478 L236.147,-20.894 L237.125,-21.305 L238.108,-21.710 L239.096,-22.109 L240.090,-22.502 L241.089,-22.889 L242.094,-23.270 L243.105,-23.645 L244.122,-24.012 L245.144,-24.373 L246.172,-24.727 L247.206,-25.075 L248.246,-25.414 L249.292,-25.747 L250.343,-26.072 L251.400,-26.389 L252.463,-26.699 L253.532,-27.000 L254.606,-27.294 L255.686,-27.579 L256.771,-27.856 L257.862,-28.124 L258.959,-28.384 L260.060,-28.634 L261.167,-28.876 L262.279,-29.109 L263.396,-29.333 L264.518,-29.547 L265.644,-29.751 L266.775,-29.947 L267.910,-30.132 L269.049,-30.308 L270.192,-30.474 L271.339,-30.629 L272.490,-30.775 L273.644,-30.910 L274.801,-31.036 L275.961,-31.150 L277.124,-31.255 L278.289,-31.349 L279.456,-31.432 L280.626,-31.505 L281.797,-31.567 L282.969,-31.619 L284.143,-31.659 L285.317,-31.689 L286.492,-31.709 L287.668,-31.717 L288.843,-31.715 L290.019,-31.702 L291.194,-31.678 L292.368,-31.643 L293.541,-31.598 L294.713,-31.541 L295.883,-31.475 L297.052,-31.397 L298.218,-31.309 L299.382,-31.211 L300.544,-31.102 L301.703,-30.982 L302.858,-30.853 L304.011,-30.713 L305.160,-30.563 L306.305,-30.403 L307.447,-30.233 L308.585,-30.053 L309.718,-29.863 L310.847,-29.664 L311.971,-29.455 L313.090,-29.236 L314.205,-29.009 L315.315,-28.772 L316.419,-28.526 L317.519,-28.272 L318.613,-28.008 L319.701,-27.736 L320.784,-27.456 L321.862,-27.167 L322.934,-26.870 L-36.000,-26.565 L-34.940,-26.252 L-33.885,-25.931 L-32.836,-25.603 L-31.793,-25.267 L-30.756,-24.924 L-29.724,-24.574 L-28.699,-24.217 L-27.679,-23.853 L-26.665,-23.483 L-25.656,-23.105 L-24.654,-22.722 L-23.657,-22.332 L-22.665,-21.936 L-21.679,-21.535 L-20.699,-21.127 L-19.724,-20.714 L-18.754,-20.296 L-17.790,-19.872 L-16.831,-19.443 L-15.877,-19.009 L-14.928,-18.570 L-13.983,-18.126 L-13.044,-17.678 L-12.109,-17.225 L-11.179,-16.768 L-10.253,-16.307 L-9.332,-15.842 L-8.415,-15.373 L-7.502,-14.901 L-6.593,-14.424 L-5.688,-13.945 L-4.787,-13.462 L-3.889,-12.975 L-2.995,-12.486 L-2.105,-11.994 L-1.217,-11.499 L-0.333,-11.001 L0.548,-10.501 L1.427,-9.998 L2.303,-9.493 L3.176,-8.986 L4.047,-8.476 L4.915,-7.965 L5.781,-7.452 L6.645,-6.938 L7.508,-6.421 L8.368,-5.904 L9.227,-5.385 L10.085,-4.865 L10.941,-4.343 L11.796,-3.821 L12.650,-3.298 L13.503,-2.774 L14.355,-2.250 L15.207,-1.725 L16.058,-1.200 L16.909,-0.674 L17.760,-0.149 L18.610,0.377 L19.461,0.903 L20.312,1.428 L21.163,1.953 L22.015,2.478 L22.868,3.002 L23.721,3.526 L24.576,4.048 L25.431,4.570 L26.288,5.091 L27.146,5.611 L28.006,6.129 L28.867,6.646 L29.730,7.162 L30.595,7.676 L31.463,8.188 L32.332,8.698 L33.204,9.206 L34.078,9.713 L34.955,10.217 L35.835,10.718 L36.717,11.218 L37.603,11.714 L38.492,12.208 L39.384,12.699 L40.279,13.187 L41.179,13.672 L42.081,14.154 L42.988,14.632 L43.899,15.107 L44.813,15.578 L45.732,16.045 L46.655,16.508 L47.583,16.968 L48.515,17.423 L49.452,17.873 L50.393,18.320 L51.340,18.761 L52.291,19.198 L53.247,19.630 L54.209,20.057 L55.176,20.478 L56.147,20.894 L57.125,21.305 L58.108,21.710 L59.096,22.109 L60.090,22.502 L61.089,22.889 L62.094,23.270 L63.105,23.645 L64.122,24.012 L65.144,24.373 L66.172,24.727 L67.206,25.075 L68.246,25.414 L69.292,25.747 L70.343,26.072 L71.400,26.389 L72.463,26.699 L73.532,27.000 L74.606,27.294 L75.686,27.579 L76.771,27.856 L77.862,28.124 L78.959,28.384 L80.060,28.634 L81.167,28.876 L82.279,29.109 L83.396,29.333 L84.518,29.547 L85.644,29.751 L86.775,29.947 L87.910,30.132 L89.049,30.308 L90.192,30.474 L91.339,30.629 L92.490,30.775 L93.644,30.910 L94.801,31.036 L95.961,31.150 L97.124,31.255 L98.289,31.349 L99.456,31.432 L100.626,31.505 L101.797,31.567 L102.969,31.619 L104.143,31.659 L105.317,31.689 L106.492,31.709 L107.668,31.717 L108.843,31.715 L110.019,31.702 L111.194,31.678 L112.368,31.643 L113.541,31.598 L114.713,31.541 L115.883,31.475 L117.052,31.397 L118.218,31.309 L119.382,31.211 L120.544,31.102 L121.703,30.982 L122.858,30.853 L124.011,30.713 L125.160,30.563 L126.305,30.403 L127.447,30.233 L128.585,30.053 L129.718,29.863 L130.847,29.664 L131.971,29.455 L133.090,29.236 L134.205,29.009 L135.315,28.772 L136.419,28.526 L137.519,28.272 L138.613,28.008 L139.701,27.736 L140.784,27.456 L141.862,27.167 L142.934,26.870 Z"/>
    <path d="M144.000,26.565 L144.662,27.373 L145.333,28.177 L146.015,28.978 L146.708,29.775 L147.411,30.569 L148.126,31.359 L148.853,32.145 L149.593,32.927 L150.346,33.704 L151.112,34.477 L151.893,35.245 L152.689,36.007 L153.500,36.765 L154.328,37.516 L155.172,38.262 L156.033,39.002 L156.913,39.735 L157.812,40.461 L158.730,41.180 L159.668,41.892 L160.627,42.596 L161.608,43.292 L162.612,43.979 L163.639,44.658 L164.691,45.326 L165.767,45.985 L166.869,46.634 L167.997,47.272 L169.153,47.898 L170.336,48.513 L171.549,49.115 L172.791,49.704 L174.063,50.279 L175.366,50.841 L176.700,51.387 L178.066,51.918 L179.464,52.433 L180.895,52.931 L182.358,53.411 L183.854,53.873 L185.383,54.316 L186.944,54.739 L188.537,55.142 L190.163,55.523 L191.819,55.883 L193.505,56.220 L195.219,56.534 L196.962,56.824 L198.730,57.089 L200.523,57.328 L202.338,57.542 L204.173,57.730 L206.025,57.891 L207.893,58.025 L209.774,58.131 L211.664,58.209 L213.562,58.259 L215.463,58.281 L217.365,58.275 L219.264,58.241 L221.159,58.178 L223.045,58.088 L224.921,57.970 L226.782,57.824 L228.628,57.652 L230.454,57.453 L232.260,57.227 L234.042,56.976 L235.799,56.701 L237.530,56.400 L239.232,56.076 L240.905,55.729 L242.548,55.360 L244.160,54.969 L245.739,54.558 L247.286,54.126 L248.801,53.674 L250.283,53.204 L251.732,52.716 L253.148,52.211 L254.532,51.689 L255.884,51.151 L257.205,50.598 L258.494,50.031 L259.753,49.449 L260.982,48.854 L262.182,48.247 L263.353,47.627 L264.497,46.996 L265.614,46.353 L266.704,45.700 L267.770,45.037 L268.810,44.364 L269.827,43.681 L270.821,42.990 L271.793,42.291 L272.743,41.584 L273.672,40.868 L274.582,40.146 L275.472,39.417 L276.344,38.681 L277.198,37.938 L278.034,37.190 L278.855,36.436 L279.659,35.676 L280.448,34.911 L281.223,34.141 L281.983,33.367 L282.730,32.587 L283.465,31.804 L284.186,31.016 L284.896,30.224 L285.595,29.429 L286.283,28.630 L286.960,27.827 L287.627,27.022 L288.285,26.213 L288.934,25.401 L289.574,24.587 L290.205,23.769 L290.829,22.950 L291.445,22.127 L292.055,21.303 L292.657,20.476 L293.253,19.648 L293.843,18.817 L294.426,17.984 L295.005,17.150 L295.578,16.314 L296.147,15.477 L296.710,14.638 L297.270,13.798 L297.825,12.957 L298.377,12.114 L298.925,11.270 L299.470,10.426 L300.012,9.580 L300.552,8.734 L301.089,7.887 L301.624,7.039 L302.156,6.190 L302.687,5.341 L303.217,4.492 L303.746,3.642 L304.273,2.792 L304.800,1.941 L305.326,1.091 L305.851,0.240 L306.377,-0.610 L306.903,-1.461 L307.429,-2.311 L307.956,-3.162 L308.484,-4.012 L309.013,-4.861 L309.543,-5.711 L310.075,-6.559 L310.609,-7.408 L311.144,-8.255 L311.682,-9.102 L312.223,-9.948 L312.766,-10.793 L313.313,-11.637 L313.862,-12.481 L314.416,-13.323 L314.973,-14.164 L315.534,-15.003 L316.100,-15.841 L316.671,-16.678 L317.246,-17.513 L317.827,-18.347 L318.413,-19.178 L319.006,-20.008 L319.604,-20.836 L320.209,-21.662 L320.822,-22.485 L321.441,-23.306 L322.068,-24.125 L322.704,-24.941 L323.347,-25.755 L-36.000,-26.565 L-35.338,-27.373 L-34.667,-28.177 L-33.985,-28.978 L-33.292,-29.775 L-32.589,-30.569 L-31.874,-31.359 L-31.147,-32.145 L-30.407,-32.927 L-29.654,-33.704 L-28.888,-34.477 L-28.107,-35.245 L-27.311,-36.007 L-26.500,-36.765 L-25.672,-37.516 L-24.828,-38.262 L-23.967,-39.002 L-23.087,-39.735 L-22.188,-40.461 L-21.270,-41.180 L-20.332,-41.892 L-19.373,-42.596 L-18.392,-43.292 L-17.388,-43.979 L-16.361,-44.658 L-15.309,-45.326 L-14.233,-45.985 L-13.131,-46.634 L-12.003,-47.272 L-10.847,-47.898 L-9.664,-48.513 L-8.451,-49.115 L-7.209,-49.704 L-5.937,-50.279 L-4.634,-50.841 L-3.300,-51.387 L-1.934,-51.918 L-0.536,-52.433 L0.895,-52.931 L2.358,-53.411 L3.854,-53.873 L5.383,-54.316 L6.944,-54.739 L8.537,-55.142 L10.163,-55.523 L11.819,-55.883 L13.505,-56.220 L15.219,-56.534 L16.962,-56.824 L18.730,-57.089 L20.523,-57.328 L22.338,-57.542 L24.173,-57.730 L26.025,-57.891 L27.893,-58.025 L29.774,-58.131 L31.664,-58.209 L33.562,-58.259 L35.463,-58.281 L37.365,-58.275 L39.264,-58.241 L41.159,-58.178 L43.045,-58.088 L44.921,-57.970 L46.782,-57.824 L48.628,-57.652 L50.454,-57.453 L52.260,-57.227 L54.042,-56.976 L55.799,-56.701 L57.530,-56.400 L59.232,-56.076 L60.905,-55.729 L62.548,-55.360 L64.160,-54.969 L65.739,-54.558 L67.286,-54.126 L68.801,-53.674 L70.283,-53.204 L71.732,-52.716 L73.148,-52.211 L74.532,-51.689 L75.884,-51.151 L77.205,-50.598 L78.494,-50.031 L79.753,-49.449 L80.982,-48.854 L82.182,-48.247 L83.353,-47.627 L84.497,-46.996 L85.614,-46.353 L86.704,-45.700 L87.770,-45.037 L88.810,-44.364 L89.827,-43.681 L90.821,-42.990 L91.793,-42.291 L92.743,-41.584 L93.672,-40.868 L94.582,-40.146 L95.472,-39.417 L96.344,-38.681 L97.198,-37.938 L98.034,-37.190 L98.855,-36.436 L99.659,-35.676 L100.448,-34.911 L101.223,-34.141 L101.983,-33.367 L102.730,-32.587 L103.465,-31.804 L104.186,-31.016 L104.896,-30.224 L105.595,-29.429 L106.283,-28.630 L106.960,-27.827 L107.627,-27.022 L108.285,-26.213 L108.934,-25.401 L109.574,-24.587 L110.205,-23.769 L110.829,-22.950 L111.445,-22.127 L112.055,-21.303 L112.657,-20.476 L113.253,-19.648 L113.843,-18.817 L114.426,-17.984 L115.005,-17.150 L115.578,-16.314 L116.147,-15.477 L116.710,-14.638 L117.270,-13.798 L117.825,-12.957 L118.377,-12.114 L118.925,-11.270 L119.470,-10.426 L120.012,-9.580 L120.552,-8.734 L121.089,-7.887 L121.624,-7.039 L122.156,-6.190 L122.687,-5.341 L123.217,-4.492 L123.746,-3.642 L124.273,-2.792 L124.800,-1.941 L125.326,-1.091 L125.851,-0.240 L126.377,0.610 L126.903,1.461 L127.429,2.311 L127.956,3.162 L128.484,4.012 L129.013,4.861 L129.543,5.711 L130.075,6.559 L130.609,7.408 L131.144,8.255 L131.682,9.102 L132.223,9.948 L132.766,10.793 L133.313,11.637 L133.862,12.481 L134.416,13.323 L134.973,14.164 L135.534,15.003 L136.100,15.841 L136.671,16.678 L137.246,17.513 L137.827,18.347 L138.413,19.178 L139.006,20.008 L139.604,20.836 L140.209,21.662 L140.822,22.485 L141.441,23.306 L142.068,24.125 L142.704,24.941 L143.347,25.755 Z"/>
    <path d="M216.000,26.565 L217.060,26.252 L218.115,25.931 L219.164,25.603 L220.207,25.267 L221.244,24.924 L222.276,24.574 L223.301,24.217 L224.321,23.853 L225.335,23.483 L226.344,23.105 L227.346,22.722 L228.343,22.332 L229.335,21.936 L230.321,21.535 L231.301,21.127 L232.276,20.714 L233.246,20.296 L234.210,19.872 L235.169,19.443 L236.123,19.009 L237.072,18.570 L238.017,18.126 L238.956,17.678 L239.891,17.225 L240.821,16.768 L241.747,16.307 L242.668,15.842 L243.585,15.373 L244.498,14.901 L245.407,14.424 L246.312,13.945 L247.213,13.462 L248.111,12.975 L249.005,12.486 L249.895,11.994 L250.783,11.499 L251.667,11.001 L252.548,10.501 L253.427,9.998 L254.303,9.493 L255.176,8.986 L256.047,8.476 L256.915,7.965 L257.781,7.452 L258.645,6.938 L259.508,6.421 L260.368,5.904 L261.227,5.385 L262.085,4.865 L262.941,4.343 L263.796,3.821 L264.650,3.298 L265.503,2.774 L266.355,2.250 L267.207,1.725 L268.058,1.200 L268.909,0.674 L269.760,0.149 L270.610,-0.377 L271.461,-0.903 L272.312,-1.428 L273.163,-1.953 L274.015,-2.478 L274.868,-3.002 L275.721,-3.526 L276.576,-4.048 L277.431,-4.570 L278.288,-5.091 L279.146,-5.611 L280.006,-6.129 L280.867,-6.646 L281.730,-7.162 L282.595,-7.676 L283.463,-8.188 L284.332,-8.698 L285.204,-9.206 L286.078,-9.713 L286.955,-10.217 L287.835,-10.718 L288.717,-11.218 L289.603,-11.714 L290.492,-12.208 L291.384,-12.699 L292.279,-13.187 L293.179,-13.672 L294.081,-14.154 L294.988,-14.632 L295.899,-15.107 L296.813,-15.578 L297.732,-16.045 L298.655,-16.508 L299.583,-16.968 L300.515,-17.423 L301.452,-17.873 L302.393,-18.320 L303.340,-18.761 L304.291,-19.198 L305.247,-19.630 L306.209,-20.057 L307.176,-20.478 L308.147,-20.894 L309.125,-21.305 L310.108,-21.710 L311.096,-22.109 L312.090,-22.502 L313.089,-22.889 L314.094,-23.270 L315.105,-23.645 L316.122,-24.012 L317.144,-24.373 L318.172,-24.727 L319.206,-25.075 L320.246,-25.414 L321.292,-25.747 L322.343,-26.072 L323.400,-26.389 L324.463,-26.699 L325.532,-27.000 L326.606,-27.294 L327.686,-27.579 L328.771,-27.856 L329.862,-28.124 L330.959,-28.384 L332.060,-28.634 L333.167,-28.876 L334.279,-29.109 L335.396,-29.333 L336.518,-29.547 L337.644,-29.751 L338.775,-29.947 L339.910,-30.132 L341.049,-30.308 L342.192,-30.474 L343.339,-30.629 L344.490,-30.775 L345.644,-30.910 L346.801,-31.036 L347.961,-31.150 L349.124,-31.255 L350.289,-31.349 L351.456,-31.432 L352.626,-31.505 L353.797,-31.567 L354.969,-31.619 L356.143,-31.659 L357.317,-31.689 L358.492,-31.709 L359.668,-31.717 L360.843,-31.715 L362.019,-31.702 L363.194,-31.678 L364.368,-31.643 L365.541,-31.598 L366.713,-31.541 L367.883,-31.475 L369.052,-31.397 L370.218,-31.309 L371.382,-31.211 L372.544,-31.102 L373.703,-30.982 L374.858,-30.853 L376.011,-30.713 L377.160,-30.563 L378.305,-30.403 L379.447,-30.233 L380.585,-30.053 L381.718,-29.863 L382.847,-29.664 L383.971,-29.455 L385.090,-29.236 L386.205,-29.009 L387.315,-28.772 L388.419,-28.526 L389.519,-28.272 L390.613,-28.008 L391.701,-27.736 L392.784,-27.456 L393.862,-27.167 L394.934,-26.870 L36.000,-26.565 L37.060,-26.252 L38.115,-25.931 L39.164,-25.603 L40.207,-25.267 L41.244,-24.924 L42.276,-24.574 L43.301,-24.217 L44.321,-23.853 L45.335,-23.483 L46.344,-23.105 L47.346,-22.722 L48.343,-22.332 L49.335,-21.936 L50.321,-21.535 L51.301,-21.127 L52.276,-20.714 L53.246,-20.296 L54.210,-19.872 L55.169,-19.443 L56.123,-19.009 L57.072,-18.570 L58.017,-18.126 L58.956,-17.678 L59.891,-17.225 L60.821,-16.768 L61.747,-16.307 L62.668,-15.842 L63.585,-15.373 L64.498,-14.901 L65.407,-14.424 L66.312,-13.945 L67.213,-13.462 L68.111,-12.975 L69.005,-12.486 L69.895,-11.994 L70.783,-11.499 L71.667,-11.001 L72.548,-10.501 L73.427,-9.998 L74.303,-9.493 L75.176,-8.986 L76.047,-8.476 L76.915,-7.965 L77.781,-7.452 L78.645,-6.938 L79.508,-6.421 L80.368,-5.904 L81.227,-5.385 L82.085,-4.865 L82.941,-4.343 L83.796,-3.821 L84.650,-3.298 L85.503,-2.774 L86.355,-2.250 L87.207,-1.725 L88.058,-1.200 L88.909,-0.674 L89.760,-0.149 L90.610,0.377 L91.461,0.903 L92.312,1.428 L93.163,1.953 L94.015,2.478 L94.868,3.002 L95.721,3.526 L96.576,4.048 L97.431,4.570 L98.288,5.091 L99.146,5.611 L100.006,6.129 L100.867,6.646 L101.730,7.162 L102.595,7.676 L103.463,8.188 L104.332,8.698 L105.204,9.206 L106.078,9.713 L106.955,10.217 L107.835,10.718 L108.717,11.218 L109.603,11.714 L110.492,12.208 L111.384,12.699 L112.279,13.187 L113.179,13.672 L114.081,14.154 L114.988,14.632 L115.899,15.107 L116.813,15.578 L117.732,16.045 L118.655,16.508 L119.583,16.968 L120.515,17.423 L121.452,17.873 L122.393,18.320 L123.340,18.761 L124.291,19.198 L125.247,19.630 L126.209,20.057 L127.176,20.478 L128.147,20.894 L129.125,21.305 L130.108,21.710 L131.096,22.109 L132.090,22.502 L133.089,22.889 L134.094,23.270 L135.105,23.645 L136.122,24.012 L137.144,24.373 L138.172,24.727 L139.206,25.075 L140.246,25.414 L141.292,25.747 L142.343,26.072 L143.400,26.389 L144.463,26.699 L145.532,27.000 L146.606,27.294 L147.686,27.579 L148.771,27.856 L149.862,28.124 L150.959,28.384 L152.060,28.634 L153.167,28.876 L154.279,29.109 L155.396,29.333 L156.518,29.547 L157.644,29.751 L158.775,29.947 L159.910,30.132 L161.049,30.308 L162.192,30.474 L163.339,30.629 L164.490,30.775 L165.644,30.910 L166.801,31.036 L167.961,31.150 L169.124,31.255 L170.289,31.349 L171.456,31.432 L172.626,31.505 L173.797,31.567 L174.969,31.619 L176.143,31.659 L177.317,31.689 L178.492,31.709 L179.668,31.717 L180.843,31.715 L182.019,31.702 L183.194,31.678 L184.368,31.643 L185.541,31.598 L186.713,31.541 L187.883,31.475 L189.052,31.397 L190.218,31.309 L191.382,31.211 L192.544,31.102 L193.703,30.982 L194.858,30.853 L196.011,30.713 L197.160,30.563 L198.305,30.403 L199.447,30.233 L200.585,30.053 L201.718,29.863 L202.847,29.664 L203.971,29.455 L205.090,29.236 L206.205,29.009 L207.315,28.772 L208.419,28.526 L209.519,28.272 L210.613,28.008 L211.701,27.736 L212.784,27.456 L213.862,27.167 L214.934,26.870 Z"/>
    <path d="M216.000,26.565 L216.662,27.373 L217.333,28.177 L218.015,28.978 L218.708,29.775 L219.411,30.569 L220.126,31.359 L220.853,32.145 L221.593,32.927 L222.346,33.704 L223.112,34.477 L223.893,35.245 L224.689,36.007 L225.500,36.765 L226.328,37.516 L227.172,38.262 L228.033,39.002 L228.913,39.735 L229.812,40.461 L230.730,41.180 L231.668,41.892 L232.627,42.596 L233.608,43.292 L234.612,43.979 L235.639,44.658 L236.691,45.326 L237.767,45.985 L238.869,46.634 L239.997,47.272 L241.153,47.898 L242.336,48.513 L243.549,49.115 L244.791,49.704 L246.063,50.279 L247.366,50.841 L248.700,51.387 L250.066,51.918 L251.464,52.433 L252.895,52.931 L254.358,53.411 L255.854,53.873 L257.383,54.316 L258.944,54.739 L260.537,55.142 L262.163,55.523 L263.819,55.883 L265.505,56.220 L267.219,56.534 L268.962,56.824 L270.730,57.089 L272.523,57.328 L274.338,57.542 L276.173,57.730 L278.025,57.891 L279.893,58.025 L281.774,58.131 L283.664,58.209 L285.562,58.259 L287.463,58.281 L289.365,58.275 L291.264,58.241 L293.159,58.178 L295.045,58.088 L296.921,57.970 L298.782,57.824 L300.628,57.652 L302.454,57.453 L304.260,57.227 L306.042,56.976 L307.799,56.701 L309.530,56.400 L311.232,56.076 L312.905,55.729 L314.548,55.360 L316.160,54.969 L317.739,54.558 L319.286,54.126 L320.801,53.674 L322.283,53.204 L323.732,52.716 L325.148,52.211 L326.532,51.689 L327.884,51.151 L329.205,50.598 L330.494,50.031 L331.753,49.449 L332.982,48.854 L334.182,48.247 L335.353,47.627 L336.497,46.996 L337.614,46.353 L338.704,45.700 L339.770,45.037 L340.810,44.364 L341.827,43.681 L342.821,42.990 L343.793,42.291 L344.743,41.584 L345.672,40.868 L346.582,40.146 L347.472,39.417 L348.344,38.681 L349.198,37.938 L350.034,37.190 L350.855,36.436 L351.659,35.676 L352.448,34.911 L353.223,34.141 L353.983,33.367 L354.730,32.587 L355.465,31.804 L356.186,31.016 L356.896,30.224 L357.595,29.429 L358.283,28.630 L358.960,27.827 L359.627,27.022 L360.285,26.213 L360.934,25.401 L361.574,24.587 L362.205,23.769 L362.829,22.950 L363.445,22.127 L364.055,21.303 L364.657,20.476 L365.253,19.648 L365.843,18.817 L366.426,17.984 L367.005,17.150 L367.578,16.314 L368.147,15.477 L368.710,14.638 L369.270,13.798 L369.825,12.957 L370.377,12.114 L370.925,11.270 L371.470,10.426 L372.012,9.580 L372.552,8.734 L373.089,7.887 L373.624,7.039 L374.156,6.190 L374.687,5.341 L375.217,4.492 L375.746,3.642 L376.273,2.792 L376.800,1.941 L377.326,1.091 L377.851,0.240 L378.377,-0.610 L378.903,-1.461 L379.429,-2.311 L379.956,-3.162 L380.484,-4.012 L381.013,-4.861 L381.543,-5.711 L382.075,-6.559 L382.609,-7.408 L383.144,-8.255 L383.682,-9.102 L384.223,-9.948 L384.766,-10.793 L385.313,-11.637 L385.862,-12.481 L386.416,-13.323 L386.973,-14.164 L387.534,-15.003 L388.100,-15.841 L388.671,-16.678 L389.246,-17.513 L389.827,-18.347 L390.413,-19.178 L391.006,-20.008 L391.604,-20.836 L392.209,-21.662 L392.822,-22.485 L393.441,-23.306 L394.068,-24.125 L394.704,-24.941 L395.347,-25.755 L36.000,-26.565 L36.662,-27.373 L37.333,-28.177 L38.015,-28.978 L38.708,-29.775 L39.411,-30.569 L40.126,-31.359 L40.853,-32.145 L41.593,-32.927 L42.346,-33.704 L43.112,-34.477 L43.893,-35.245 L44.689,-36.007 L45.500,-36.765 L46.328,-37.516 L47.172,-38.262 L48.033,-39.002 L48.913,-39.735 L49.812,-40.461 L50.730,-41.180 L51.668,-41.892 L52.627,-42.596 L53.608,-43.292 L54.612,-43.979 L55.639,-44.658 L56.691,-45.326 L57.767,-45.985 L58.869,-46.634 L59.997,-47.272 L61.153,-47.898 L62.336,-48.513 L63.549,-49.115 L64.791,-49.704 L66.063,-50.279 L67.366,-50.841 L68.700,-51.387 L70.066,-51.918 L71.464,-52.433 L72.895,-52.931 L74.358,-53.411 L75.854,-53.873 L77.383,-54.316 L78.944,-54.739 L80.537,-55.142 L82.163,-55.523 L83.819,-55.883 L85.505,-56.220 L87.219,-56.534 L88.962,-56.824 L90.730,-57.089 L92.523,-57.328 L94.338,-57.542 L96.173,-57.730 L98.025,-57.891 L99.893,-58.025 L101.774,-58.131 L103.664,-58.209 L105.562,-58.259 L107.463,-58.281 L109.365,-58.275 L111.264,-58.241 L113.159,-58.178 L115.045,-58.088 L116.921,-57.970 L118.782,-57.824 L120.628,-57.652 L122.454,-57.453 L124.260,-57.227 L126.042,-56.976 L127.799,-56.701 L129.530,-56.400 L131.232,-56.076 L132.905,-55.729 L134.548,-55.360 L136.160,-54.969 L137.739,-54.558 L139.286,-54.126 L140.801,-53.674 L142.283,-53.204 L143.732,-52.716 L145.148,-52.211 L146.532,-51.689 L147.884,-51.151 L149.205,-50.598 L150.494,-50.031 L151.753,-49.449 L152.982,-48.854 L154.182,-48.247 L155.353,-47.627 L156.497,-46.996 L157.614,-46.353 L158.704,-45.700 L159.770,-45.037 L160.810,-44.364 L161.827,-43.681 L162.821,-42.990 L163.793,-42.291 L164.743,-41.584 L165.672,-40.868 L166.582,-40.146 L167.472,-39.417 L168.344,-38.681 L169.198,-37.938 L170.034,-37.190 L170.855,-36.436 L171.659,-35.676 L172.448,-34.911 L173.223,-34.141 L173.983,-33.367 L174.730,-32.587 L175.465,-31.804 L176.186,-31.016 L176.896,-30.224 L177.595,-29.429 L178.283,-28.630 L178.960,-27.827 L179.627,-27.022 L180.285,-26.213 L180.934,-25.401 L181.574,-24.587 L182.205,-23.769 L182.829,-22.950 L183.445,-22.127 L184.055,-21.303 L184.657,-20.476 L185.253,-19.648 L185.843,-18.817 L186.426,-17.984 L187.005,-17.150 L187.578,-16.314 L188.147,-15.477 L188.710,-14.638 L189.270,-13.798 L189.825,-12.957 L190.377,-12.114 L190.925,-11.270 L191.470,-10.426 L192.012,-9.580 L192.552,-8.734 L193.089,-7.887 L193.624,-7.039 L194.156,-6.190 L194.687,-5.341 L195.217,-4.492 L195.746,-3.642 L196.273,-2.792 L196.800,-1.941 L197.326,-1.091 L197.851,-0.240 L198.377,0.610 L198.903,1.461 L199.429,2.311 L199.956,3.162 L200.484,4.012 L201.013,4.861 L201.543,5.711 L202.075,6.559 L202.609,7.408 L203.144,8.255 L203.682,9.102 L204.223,9.948 L204.766,10.793 L205.313,11.637 L205.862,12.481 L206.416,13.323 L206.973,14.164 L207.534,15.003 L208.100,15.841 L208.671,16.678 L209.246,17.513 L209.827,18.347 L210.413,19.178 L211.006,20.008 L211.604,20.836 L212.209,21.662 L212.822,22.485 L213.441,23.306 L214.068,24.125 L214.704,24.941 L215.347,25.755 Z"/>
    <path d="M288.000,26.565 L289.060,26.252 L290.115,25.931 L291.164,25.603 L292.207,25.267 L293.244,24.924 L294.276,24.574 L295.301,24.217 L296.321,23.853 L297.335,23.483 L298.344,23.105 L299.346,22.722 L300.343,22.332 L301.335,21.936 L302.321,21.535 L303.301,21.127 L304.276,20.714 L305.246,20.296 L306.210,19.872 L307.169,19.443 L308.123,19.009 L309.072,18.570 L310.017,18.126 L310.956,17.678 L311.891,17.225 L312.821,16.768 L313.747,16.307 L314.668,15.842 L315.585,15.373 L316.498,14.901 L317.407,14.424 L318.312,13.945 L319.213,13.462 L320.111,12.975 L321.005,12.486 L321.895,11.994 L322.783,11.499 L323.667,11.001 L324.548,10.501 L325.427,9.998 L326.303,9.493 L327.176,8.986 L328.047,8.476 L328.915,7.965 L329.781,7.452 L330.645,6.938 L331.508,6.421 L332.368,5.904 L333.227,5.385 L334.085,4.865 L334.941,4.343 L335.796,3.821 L336.650,3.298 L337.503,2.774 L338.355,2.250 L339.207,1.725 L340.058,1.200 L340.909,0.674 L341.760,0.149 L342.610,-0.377 L343.461,-0.903 L344.312,-1.428 L345.163,-1.953 L346.015,-2.478 L346.868,-3.002 L347.721,-3.526 L348.576,-4.048 L349.431,-4.570 L350.288,-5.091 L351.146,-5.611 L352.006,-6.129 L352.867,-6.646 L353.730,-7.162 L354.595,-7.676 L355.463,-8.188 L356.332,-8.698 L357.204,-9.206 L358.078,-9.713 L358.955,-10.217 L359.835,-10.718 L360.717,-11.218 L361.603,-11.714 L362.492,-12.208 L363.384,-12.699 L364.279,-13.187 L365.179,-13.672 L366.081,-14.154 L366.988,-14.632 L367.899,-15.107 L368.813,-15.578 L369.732,-16.045 L370.655,-16.508 L371.583,-16.968 L372.515,-17.423 L373.452,-17.873 L374.393,-18.320 L375.340,-18.761 L376.291,-19.198 L377.247,-19.630 L378.209,-20.057 L379.176,-20.478 L380.147,-20.894 L381.125,-21.305 L382.108,-21.710 L383.096,-22.109 L384.090,-22.502 L385.089,-22.889 L386.094,-23.270 L387.105,-23.645 L388.122,-24.012 L389.144,-24.373 L390.172,-24.727 L391.206,-25.075 L392.246,-25.414 L393.292,-25.747 L394.343,-26.072 L395.400,-26.389 L396.463,-26.699 L397.532,-27.000 L398.606,-27.294 L399.686,-27.579 L400.771,-27.856 L401.862,-28.124 L402.959,-28.384 L404.060,-28.634 L405.167,-28.876 L406.279,-29.109 L407.396,-29.333 L408.518,-29.547 L409.644,-29.751 L410.775,-29.947 L411.910,-30.132 L413.049,-30.308 L414.192,-30.474 L415.339,-30.629 L416.490,-30.775 L417.644,-30.910 L418.801,-31.036 L419.961,-31.150 L421.124,-31.255 L422.289,-31.349 L423.456,-31.432 L424.626,-31.505 L425.797,-31.567 L426.969,-31.619 L428.143,-31.659 L429.317,-31.689 L430.492,-31.709 L431.668,-31.717 L432.843,-31.715 L434.019,-31.702 L435.194,-31.678 L436.368,-31.643 L437.541,-31.598 L438.713,-31.541 L439.883,-31.475 L441.052,-31.397 L442.218,-31.309 L443.382,-31.211 L444.544,-31.102 L445.703,-30.982 L446.858,-30.853 L448.011,-30.713 L449.160,-30.563 L450.305,-30.403 L451.447,-30.233 L452.585,-30.053 L453.718,-29.863 L454.847,-29.664 L455.971,-29.455 L457.090,-29.236 L458.205,-29.009 L459.315,-28.772 L460.419,-28.526 L461.519,-28.272 L462.613,-28.008 L463.701,-27.736 L464.784,-27.456 L465.862,-27.167 L466.934,-26.870 L108.000,-26.565 L109.060,-26.252 L110.115,-25.931 L111.164,-25.603 L112.207,-25.267 L113.244,-24.924 L114.276,-24.574 L115.301,-24.217 L116.321,-23.853 L117.335,-23.483 L118.344,-23.105 L119.346,-22.722 L120.343,-22.332 L121.335,-21.936 L122.321,-21.535 L123.301,-21.127 L124.276,-20.714 L125.246,-20.296 L126.210,-19.872 L127.169,-19.443 L128.123,-19.009 L129.072,-18.570 L130.017,-18.126 L130.956,-17.678 L131.891,-17.225 L132.821,-16.768 L133.747,-16.307 L134.668,-15.842 L135.585,-15.373 L136.498,-14.901 L137.407,-14.424 L138.312,-13.945 L139.213,-13.462 L140.111,-12.975 L141.005,-12.486 L141.895,-11.994 L142.783,-11.499 L143.667,-11.001 L144.548,-10.501 L145.427,-9.998 L146.303,-9.493 L147.176,-8.986 L148.047,-8.476 L148.915,-7.965 L149.781,-7.452 L150.645,-6.938 L151.508,-6.421 L152.368,-5.904 L153.227,-5.385 L154.085,-4.865 L154.941,-4.343 L155.796,-3.821 L156.650,-3.298 L157.503,-2.774 L158.355,-2.250 L159.207,-1.725 L160.058,-1.200 L160.909,-0.674 L161.760,-0.149 L162.610,0.377 L163.461,0.903 L164.312,1.428 L165.163,1.953 L166.015,2.478 L166.868,3.002 L167.721,3.526 L168.576,4.048 L169.431,4.570 L170.288,5.091 L171.146,5.611 L172.006,6.129 L172.867,6.646 L173.730,7.162 L174.595,7.676 L175.463,8.188 L176.332,8.698 L177.204,9.206 L178.078,9.713 L178.955,10.217 L179.835,10.718 L180.717,11.218 L181.603,11.714 L182.492,12.208 L183.384,12.699 L184.279,13.187 L185.179,13.672 L186.081,14.154 L186.988,14.632 L187.899,15.107 L188.813,15.578 L189.732,16.045 L190.655,16.508 L191.583,16.968 L192.515,17.423 L193.452,17.873 L194.393,18.320 L195.340,18.761 L196.291,19.198 L197.247,19.630 L198.209,20.057 L199.176,20.478 L200.147,20.894 L201.125,21.305 L202.108,21.710 L203.096,22.109 L204.090,22.502 L205.089,22.889 L206.094,23.270 L207.105,23.645 L208.122,24.012 L209.144,24.373 L210.172,24.727 L211.206,25.075 L212.246,25.414 L213.292,25.747 L214.343,26.072 L215.400,26.389 L216.463,26.699 L217.532,27.000 L218.606,27.294 L219.686,27.579 L220.771,27.856 L221.862,28.124 L222.959,28.384 L224.060,28.634 L225.167,28.876 L226.279,29.109 L227.396,29.333 L228.518,29.547 L229.644,29.751 L230.775,29.947 L231.910,30.132 L233.049,30.308 L234.192,30.474 L235.339,30.629 L236.490,30.775 L237.644,30.910 L238.801,31.036 L239.961,31.150 L241.124,31.255 L242.289,31.349 L243.456,31.432 L244.626,31.505 L245.797,31.567 L246.969,31.619 L248.143,31.659 L249.317,31.689 L250.492,31.709 L251.668,31.717 L252.843,31.715 L254.019,31.702 L255.194,31.678 L256.368,31.643 L257.541,31.598 L258.713,31.541 L259.883,31.475 L261.052,31.397 L262.218,31.309 L263.382,31.211 L264.544,31.102 L265.703,30.982 L266.858,30.853 L268.011,30.713 L269.160,30.563 L270.305,30.403 L271.447,30.233 L272.585,30.053 L273.718,29.863 L274.847,29.664 L275.971,29.455 L277.090,29.236 L278.205,29.009 L279.315,28.772 L280.419,28.526 L281.519,28.272 L282.613,28.008 L283.701,27.736 L284.784,27.456 L285.862,27.167 L286.934,26.870 Z"/>
    <path d="M288.000,26.565 L288.662,27.373 L289.333,28.177 L290.015,28.978 L290.708,29.775 L291.411,30.569 L292.126,31.359 L292.853,32.145 L293.593,32.927 L294.346,33.704 L295.112,34.477 L295.893,35.245 L296.689,36.007 L297.500,36.765 L298.328,37.516 L299.172,38.262 L300.033,39.002 L300.913,39.735 L301.812,40.461 L302.730,41.180 L303.668,41.892 L304.627,42.596 L305.608,43.292 L306.612,43.979 L307.639,44.658 L308.691,45.326 L309.767,45.985 L310.869,46.634 L311.997,47.272 L313.153,47.898 L314.336,48.513 L315.549,49.115 L316.791,49.704 L318.063,50.279 L319.366,50.841 L320.700,51.387 L322.066,51.918 L323.464,52.433 L324.895,52.931 L326.358,53.411 L327.854,53.873 L329.383,54.316 L330.944,54.739 L332.537,55.142 L334.163,55.523 L335.819,55.883 L337.505,56.220 L339.219,56.534 L340.962,56.824 L342.730,57.089 L344.523,57.328 L346.338,57.542 L348.173,57.730 L350.025,57.891 L351.893,58.025 L353.774,58.131 L355.664,58.209 L357.562,58.259 L359.463,58.281 L361.365,58.275 L363.264,58.241 L365.159,58.178 L367.045,58.088 L368.921,57.970 L370.782,57.824 L372.628,57.652 L374.454,57.453 L376.260,57.227 L378.042,56.976 L379.799,56.701 L381.530,56.400 L383.232,56.076 L384.905,55.729 L386.548,55.360 L388.160,54.969 L389.739,54.558 L391.286,54.126 L392.801,53.674 L394.283,53.204 L395.732,52.716 L397.148,52.211 L398.532,51.689 L399.884,51.151 L401.205,50.598 L402.494,50.031 L403.753,49.449 L404.982,48.854 L406.182,48.247 L407.353,47.627 L408.497,46.996 L409.614,46.353 L410.704,45.700 L411.770,45.037 L412.810,44.364 L413.827,43.681 L414.821,42.990 L415.793,42.291 L416.743,41.584 L417.672,40.868 L418.582,40.146 L419.472,39.417 L420.344,38.681 L421.198,37.938 L422.034,37.190 L422.855,36.436 L423.659,35.676 L424.448,34.911 L425.223,34.141 L425.983,33.367 L426.730,32.587 L427.465,31.804 L428.186,31.016 L428.896,30.224 L429.595,29.429 L430.283,28.630 L430.960,27.827 L431.627,27.022 L432.285,26.213 L432.934,25.401 L433.574,24.587 L434.205,23.769 L434.829,22.950 L435.445,22.127 L436.055,21.303 L436.657,20.476 L437.253,19.648 L437.843,18.817 L438.426,17.984 L439.005,17.150 L439.578,16.314 L440.147,15.477 L440.710,14.638 L441.270,13.798 L441.825,12.957 L442.377,12.114 L442.925,11.270 L443.470,10.426 L444.012,9.580 L444.552,8.734 L445.089,7.887 L445.624,7.039 L446.156,6.190 L446.687,5.341 L447.217,4.492 L447.746,3.642 L448.273,2.792 L448.800,1.941 L449.326,1.091 L449.851,0.240 L450.377,-0.610 L450.903,-1.461 L451.429,-2.311 L451.956,-3.162 L452.484,-4.012 L453.013,-4.861 L453.543,-5.711 L454.075,-6.559 L454.609,-7.408 L455.144,-8.255 L455.682,-9.102 L456.223,-9.948 L456.766,-10.793 L457.313,-11.637 L457.862,-12.481 L458.416,-13.323 L458.973,-14.164 L459.534,-15.003 L460.100,-15.841 L460.671,-16.678 L461.246,-17.513 L461.827,-18.347 L462.413,-19.178 L463.006,-20.008 L463.604,-20.836 L464.209,-21.662 L464.822,-22.485 L465.441,-23.306 L466.068,-24.125 L466.704,-24.941 L467.347,-25.755 L108.000,-26.565 L108.662,-27.373 L109.333,-28.177 L110.015,-28.978 L110.708,-29.775 L111.411,-30.569 L112.126,-31.359 L112.853,-32.145 L113.593,-32.927 L114.346,-33.704 L115.112,-34.477 L115.893,-35.245 L116.689,-36.007 L117.500,-36.765 L118.328,-37.516 L119.172,-38.262 L120.033,-39.002 L120.913,-39.735 L121.812,-40.461 L122.730,-41.180 L123.668,-41.892 L124.627,-42.596 L125.608,-43.292 L126.612,-43.979 L127.639,-44.658 L128.691,-45.326 L129.767,-45.985 L130.869,-46.634 L131.997,-47.272 L133.153,-47.898 L134.336,-48.513 L135.549,-49.115 L136.791,-49.704 L138.063,-50.279 L139.366,-50.841 L140.700,-51.387 L142.066,-51.918 L143.464,-52.433 L144.895,-52.931 L146.358,-53.411 L147.854,-53.873 L149.383,-54.316 L150.944,-54.739 L152.537,-55.142 L154.163,-55.523 L155.819,-55.883 L157.505,-56.220 L159.219,-56.534 L160.962,-56.824 L162.730,-57.089 L164.523,-57.328 L166.338,-57.542 L168.173,-57.730 L170.025,-57.891 L171.893,-58.025 L173.774,-58.131 L175.664,-58.209 L177.562,-58.259 L179.463,-58.281 L181.365,-58.275 L183.264,-58.241 L185.159,-58.178 L187.045,-58.088 L188.921,-57.970 L190.782,-57.824 L192.628,-57.652 L194.454,-57.453 L196.260,-57.227 L198.042,-56.976 L199.799,-56.701 L201.530,-56.400 L203.232,-56.076 L204.905,-55.729 L206.548,-55.360 L208.160,-54.969 L209.739,-54.558 L211.286,-54.126 L212.801,-53.674 L214.283,-53.204 L215.732,-52.716 L217.148,-52.211 L218.532,-51.689 L219.884,-51.151 L221.205,-50.598 L222.494,-50.031 L223.753,-49.449 L224.982,-48.854 L226.182,-48.247 L227.353,-47.627 L228.497,-46.996 L229.614,-46.353 L230.704,-45.700 L231.770,-45.037 L232.810,-44.364 L233.827,-43.681 L234.821,-42.990 L235.793,-42.291 L236.743,-41.584 L237.672,-40.868 L238.582,-40.146 L239.472,-39.417 L240.344,-38.681 L241.198,-37.938 L242.034,-37.190 L242.855,-36.436 L243.659,-35.676 L244.448,-34.911 L245.223,-34.141 L245.983,-33.367 L246.730,-32.587 L247.465,-31.804 L248.186,-31.016 L248.896,-30.224 L249.595,-29.429 L250.283,-28.630 L250.960,-27.827 L251.627,-27.022 L252.285,-26.213 L252.934,-25.401 L253.574,-24.587 L254.205,-23.769 L254.829,-22.950 L255.445,-22.127 L256.055,-21.303 L256.657,-20.476 L257.253,-19.648 L257.843,-18.817 L258.426,-17.984 L259.005,-17.150 L259.578,-16.314 L260.147,-15.477 L260.710,-14.638 L261.270,-13.798 L261.825,-12.957 L262.377,-12.114 L262.925,-11.270 L263.470,-10.426 L264.012,-9.580 L264.552,-8.734 L265.089,-7.887 L265.624,-7.039 L266.156,-6.190 L266.687,-5.341 L267.217,-4.492 L267.746,-3.642 L268.273,-2.792 L268.800,-1.941 L269.326,-1.091 L269.851,-0.240 L270.377,0.610 L270.903,1.461 L271.429,2.311 L271.956,3.162 L272.484,4.012 L273.013,4.861 L273.543,5.711 L274.075,6.559 L274.609,7.408 L275.144,8.255 L275.682,9.102 L276.223,9.948 L276.766,10.793 L277.313,11.637 L277.862,12.481 L278.416,13.323 L278.973,14.164 L279.534,15.003 L280.100,15.841 L280.671,16.678 L281.246,17.513 L281.827,18.347 L282.413,19.178 L283.006,20.008 L283.604,20.836 L284.209,21.662 L284.822,22.485 L285.441,23.306 L286.068,24.125 L286.704,24.941 L287.347,25.755 Z"/>
  </g>
</svg>
